<svg width="327" height="575" viewBox="0 0 327 575" fill="none" xmlns="http://www.w3.org/2000/svg">
<g clip-path="url(#clip0_6_1418)">
<path d="M165.36 574.14C146.44 574.14 62.68 568.39 32.51 553.81C2.34 539.23 4.50999 506.81 1.86999 494.09C-0.770011 481.37 1.86999 218.26 1.86999 183.78C1.86999 149.3 22.7 100.78 36.72 86.73C50.74 72.68 47.42 50.98 47.42 50.98H279.42C279.42 50.98 276.1 72.69 290.12 86.73C304.14 100.77 324.97 149.3 324.97 183.78C324.97 218.26 327.57 481.32 324.97 494.09C322.37 506.86 324.5 539.23 294.33 553.81C264.16 568.39 180.4 574.14 161.48 574.14" fill="white"/>
<path d="M48.88 50.98H32.09C32.09 50.98 30.69 42.52 40.49 43.66C50.29 44.8 48.88 28.27 48.88 28.27H278.75C278.75 28.27 277.34 44.8 287.14 43.66C296.94 42.52 295.54 50.98 295.54 50.98H278.75" fill="white"/>
<path d="M15.76 506.78C15.76 506.78 15.76 543.46 64.9 548.52" stroke="black" stroke-width="1.48" stroke-miterlimit="10"/>
<path d="M311.87 506.78C311.87 506.78 311.87 543.46 262.73 548.52" stroke="black" stroke-width="1.48" stroke-miterlimit="10"/>
<path d="M295.61 0.75H32.02V28.27H295.61V0.75Z" fill="white"/>
<path d="M36.74 5.42999V12.06" stroke="black" stroke-width="1.5" stroke-linecap="round" stroke-linejoin="round"/>
<path d="M41.7 5.42999V12.06" stroke="black" stroke-width="1.5" stroke-linecap="round" stroke-linejoin="round"/>
<path d="M46.66 5.42999V12.06" stroke="black" stroke-width="1.5" stroke-linecap="round" stroke-linejoin="round"/>
<path d="M51.63 5.42999V12.06" stroke="black" stroke-width="1.5" stroke-linecap="round" stroke-linejoin="round"/>
<path d="M56.59 5.42999V12.06" stroke="black" stroke-width="1.5" stroke-linecap="round" stroke-linejoin="round"/>
<path d="M61.5601 5.42999V12.06" stroke="black" stroke-width="1.5" stroke-linecap="round" stroke-linejoin="round"/>
<path d="M66.52 5.42999V12.06" stroke="black" stroke-width="1.5" stroke-linecap="round" stroke-linejoin="round"/>
<path d="M71.49 5.42999V12.06" stroke="black" stroke-width="1.5" stroke-linecap="round" stroke-linejoin="round"/>
<path d="M76.45 5.42999V12.06" stroke="black" stroke-width="1.5" stroke-linecap="round" stroke-linejoin="round"/>
<path d="M81.42 5.42999V12.06" stroke="black" stroke-width="1.5" stroke-linecap="round" stroke-linejoin="round"/>
<path d="M86.38 5.42999V12.06" stroke="black" stroke-width="1.5" stroke-linecap="round" stroke-linejoin="round"/>
<path d="M91.34 5.42999V12.06" stroke="black" stroke-width="1.5" stroke-linecap="round" stroke-linejoin="round"/>
<path d="M96.3101 5.42999V12.06" stroke="black" stroke-width="1.5" stroke-linecap="round" stroke-linejoin="round"/>
<path d="M101.27 5.42999V12.06" stroke="black" stroke-width="1.5" stroke-linecap="round" stroke-linejoin="round"/>
<path d="M106.24 5.42999V12.06" stroke="black" stroke-width="1.5" stroke-linecap="round" stroke-linejoin="round"/>
<path d="M111.2 5.42999V12.06" stroke="black" stroke-width="1.5" stroke-linecap="round" stroke-linejoin="round"/>
<path d="M116.17 5.42999V12.06" stroke="black" stroke-width="1.5" stroke-linecap="round" stroke-linejoin="round"/>
<path d="M121.13 5.42999V12.06" stroke="black" stroke-width="1.5" stroke-linecap="round" stroke-linejoin="round"/>
<path d="M126.09 5.42999V12.06" stroke="black" stroke-width="1.5" stroke-linecap="round" stroke-linejoin="round"/>
<path d="M131.06 5.42999V12.06" stroke="black" stroke-width="1.5" stroke-linecap="round" stroke-linejoin="round"/>
<path d="M136.02 5.42999V12.06" stroke="black" stroke-width="1.5" stroke-linecap="round" stroke-linejoin="round"/>
<path d="M140.99 5.42999V12.06" stroke="black" stroke-width="1.5" stroke-linecap="round" stroke-linejoin="round"/>
<path d="M145.95 5.42999V12.06" stroke="black" stroke-width="1.5" stroke-linecap="round" stroke-linejoin="round"/>
<path d="M150.92 5.42999V12.06" stroke="black" stroke-width="1.5" stroke-linecap="round" stroke-linejoin="round"/>
<path d="M155.88 5.42999V12.06" stroke="black" stroke-width="1.5" stroke-linecap="round" stroke-linejoin="round"/>
<path d="M160.85 5.42999V12.06" stroke="black" stroke-width="1.5" stroke-linecap="round" stroke-linejoin="round"/>
<path d="M165.81 5.42999V12.06" stroke="black" stroke-width="1.5" stroke-linecap="round" stroke-linejoin="round"/>
<path d="M170.77 5.42999V12.06" stroke="black" stroke-width="1.5" stroke-linecap="round" stroke-linejoin="round"/>
<path d="M175.74 5.42999V12.06" stroke="black" stroke-width="1.5" stroke-linecap="round" stroke-linejoin="round"/>
<path d="M180.7 5.42999V12.06" stroke="black" stroke-width="1.5" stroke-linecap="round" stroke-linejoin="round"/>
<path d="M185.67 5.42999V12.06" stroke="black" stroke-width="1.5" stroke-linecap="round" stroke-linejoin="round"/>
<path d="M190.63 5.42999V12.06" stroke="black" stroke-width="1.5" stroke-linecap="round" stroke-linejoin="round"/>
<path d="M195.6 5.42999V12.06" stroke="black" stroke-width="1.5" stroke-linecap="round" stroke-linejoin="round"/>
<path d="M200.56 5.42999V12.06" stroke="black" stroke-width="1.5" stroke-linecap="round" stroke-linejoin="round"/>
<path d="M205.53 5.42999V12.06" stroke="black" stroke-width="1.5" stroke-linecap="round" stroke-linejoin="round"/>
<path d="M210.49 5.42999V12.06" stroke="black" stroke-width="1.5" stroke-linecap="round" stroke-linejoin="round"/>
<path d="M215.45 5.42999V12.06" stroke="black" stroke-width="1.5" stroke-linecap="round" stroke-linejoin="round"/>
<path d="M220.42 5.42999V12.06" stroke="black" stroke-width="1.5" stroke-linecap="round" stroke-linejoin="round"/>
<path d="M225.38 5.42999V12.06" stroke="black" stroke-width="1.5" stroke-linecap="round" stroke-linejoin="round"/>
<path d="M230.35 5.42999V12.06" stroke="black" stroke-width="1.5" stroke-linecap="round" stroke-linejoin="round"/>
<path d="M235.31 5.42999V12.06" stroke="black" stroke-width="1.5" stroke-linecap="round" stroke-linejoin="round"/>
<path d="M240.28 5.42999V12.06" stroke="black" stroke-width="1.5" stroke-linecap="round" stroke-linejoin="round"/>
<path d="M245.24 5.42999V12.06" stroke="black" stroke-width="1.5" stroke-linecap="round" stroke-linejoin="round"/>
<path d="M250.2 5.42999V12.06" stroke="black" stroke-width="1.5" stroke-linecap="round" stroke-linejoin="round"/>
<path d="M255.17 5.42999V12.06" stroke="black" stroke-width="1.5" stroke-linecap="round" stroke-linejoin="round"/>
<path d="M260.13 5.42999V12.06" stroke="black" stroke-width="1.5" stroke-linecap="round" stroke-linejoin="round"/>
<path d="M265.1 5.42999V12.06" stroke="black" stroke-width="1.5" stroke-linecap="round" stroke-linejoin="round"/>
<path d="M270.06 5.42999V12.06" stroke="black" stroke-width="1.5" stroke-linecap="round" stroke-linejoin="round"/>
<path d="M275.03 5.42999V12.06" stroke="black" stroke-width="1.5" stroke-linecap="round" stroke-linejoin="round"/>
<path d="M279.99 5.42999V12.06" stroke="black" stroke-width="1.5" stroke-linecap="round" stroke-linejoin="round"/>
<path d="M284.96 5.42999V12.06" stroke="black" stroke-width="1.5" stroke-linecap="round" stroke-linejoin="round"/>
<path d="M289.92 5.42999V12.06" stroke="black" stroke-width="1.5" stroke-linecap="round" stroke-linejoin="round"/>
<path d="M42.99 101.7C42.99 101.7 17.7 143.87 16.13 181.49" stroke="black" stroke-width="1.5" stroke-linecap="round" stroke-linejoin="round"/>
<path d="M283.72 101.7C283.72 101.7 309.01 143.87 310.58 181.49" stroke="black" stroke-width="1.5" stroke-linecap="round" stroke-linejoin="round"/>
<path d="M48 28H279.5" stroke="black" stroke-width="1.5"/>
<path d="M48 51H279.5" stroke="black" stroke-width="1.5"/>
<path d="M30.8566 487.045C27.0449 481.205 25.4829 471.63 23.8515 461.43C22.5307 453.267 20.2129 443.993 23.2718 434.807C25.79 427.249 32.4058 420.936 39.551 413.658C47.3702 405.671 54.4219 397.926 63.0994 394.287C73.0511 390.117 83.6893 391.089 93.3936 391.59C104.001 392.153 114.732 392.752 123.218 397.547C129.084 400.861 132.306 406.787 136.231 410.887C140.949 415.808 146.501 419.554 148.998 424.469C152.599 431.559 151.774 438.795 152.369 442.757C152.815 445.774 155.602 449.571 155.509 453.76C155.437 457.468 152.557 461.152 152.068 464.711C151.456 469.149 152.97 473.859 151.716 476.279C150.394 478.825 146.758 480.464 145.397 483.261C144.037 486.057 144.945 490.026 143.426 492.518C141.724 495.313 137.909 496.107 135.805 497.891C133.7 499.675 126.671 507.228 115.425 511.458C108.384 514.12 99.6201 513.841 91.0654 514.536C83.1152 515.198 74.5002 517.01 66.5746 514.076C61.2846 512.12 57.8585 507.667 54.0169 505.56C48.7748 502.68 43.2649 501.883 40.2291 499.19C32.8242 492.644 34.1881 493.746 30.8566 487.045Z" fill="#FAF331"/>
<path d="M85.6489 452.863C85.6489 452.863 77.774 443.564 75.2021 455.663" stroke="black" stroke-width="1.4" stroke-miterlimit="10"/>
<path d="M101.113 449.761C101.113 449.761 93.2383 440.461 90.6664 452.56" stroke="black" stroke-width="1.4" stroke-miterlimit="10"/>
<path d="M82 461.202C82 461.202 88.4759 467.429 91.6529 466.619C94.83 465.809 98 458.202 98 458.202" stroke="black" stroke-width="1.4" stroke-miterlimit="10" stroke-linejoin="round"/>
<path d="M72.9537 460.16C75.4102 459.668 77.2421 458.473 77.0453 457.492C76.8486 456.512 74.6977 456.116 72.2412 456.609C69.7847 457.102 67.9528 458.297 68.1496 459.277C68.3463 460.258 70.4972 460.653 72.9537 460.16Z" fill="#FFA4BA"/>
<path d="M103.448 454.042C105.904 453.549 107.736 452.355 107.539 451.374C107.342 450.393 105.192 449.998 102.735 450.491C100.279 450.984 98.4467 452.178 98.6435 453.159C98.8402 454.14 100.991 454.535 103.448 454.042Z" fill="#FFA4BA"/>
<path d="M40.1637 426.94C40.8871 427.002 41.6115 426.832 42.2326 426.456C42.8537 426.08 43.3394 425.517 43.6198 424.847L42.9651 424.978C43.411 425.608 44.0379 426.087 44.7626 426.353C45.4872 426.618 46.2754 426.657 47.0226 426.464C47.7336 426.249 48.3673 425.833 48.847 425.265C49.3266 424.698 49.6318 424.004 49.7255 423.267C49.7925 422.788 49.0131 422.715 48.9488 423.209C48.8796 423.813 48.6251 424.381 48.2202 424.834C47.8154 425.288 47.28 425.605 46.6876 425.743C46.0952 425.88 45.4749 425.83 44.9117 425.601C44.3486 425.372 43.8702 424.973 43.5424 424.461C43.3647 424.203 42.9845 424.354 42.8878 424.593C42.6667 425.104 42.2896 425.532 41.8103 425.816C41.3311 426.1 40.7743 426.225 40.2197 426.173C40.1168 426.166 40.0153 426.2 39.9375 426.267C39.8596 426.335 39.8119 426.431 39.8047 426.534C39.7975 426.636 39.8315 426.738 39.8991 426.816C39.9668 426.894 40.0626 426.941 40.1655 426.949L40.1637 426.94Z" fill="black"/>
<path d="M108.258 416.462C108.333 416.94 108.561 417.38 108.909 417.715C109.257 418.05 109.704 418.263 110.184 418.32C111.367 418.427 112.454 417.454 113.129 416.586L112.418 416.342C112.43 416.888 112.648 417.41 113.029 417.802C113.41 418.195 113.924 418.429 114.47 418.458C115.033 418.463 115.576 418.254 115.99 417.873C116.174 417.693 116.328 417.484 116.444 417.255C116.642 416.893 116.703 416.984 117.068 417.036C118.134 417.191 119.115 416.336 119.418 415.361C119.834 414.019 119.065 412.671 118.213 411.681C117.89 411.302 117.308 411.82 117.631 412.198C118.25 412.956 118.955 413.985 118.698 415.026C118.59 415.463 118.319 415.843 117.941 416.087C117.526 416.347 117.214 416.233 116.768 416.173C115.889 416.065 115.831 417.126 115.209 417.489C115.008 417.597 114.784 417.654 114.556 417.654C114.328 417.654 114.104 417.597 113.904 417.489C113.703 417.38 113.533 417.224 113.408 417.033C113.284 416.842 113.208 416.624 113.189 416.397C113.192 416.312 113.167 416.229 113.119 416.159C113.071 416.09 113.001 416.037 112.921 416.011C112.84 415.984 112.754 415.984 112.673 416.01C112.593 416.037 112.523 416.088 112.474 416.158C112.012 416.759 111.207 417.536 110.393 417.55C110.053 417.545 109.725 417.417 109.472 417.189C109.219 416.961 109.057 416.649 109.016 416.31C108.996 416.209 108.936 416.12 108.85 416.063C108.765 416.006 108.66 415.986 108.558 416.006C108.457 416.026 108.369 416.086 108.311 416.171C108.254 416.257 108.234 416.362 108.254 416.463L108.258 416.462Z" fill="black"/>
<path d="M83.9078 402.104C83.7742 402.573 83.7872 403.072 83.9448 403.534C84.1025 403.996 84.3974 404.398 84.7901 404.688C85.1955 404.969 85.6824 405.108 86.1752 405.085C86.668 405.061 87.1392 404.875 87.5156 404.556C87.9552 404.205 88.25 403.704 88.3434 403.149C88.3466 403.05 88.3115 402.954 88.2454 402.881C88.1794 402.807 88.0875 402.762 87.9889 402.754C87.8909 402.754 87.7964 402.79 87.7235 402.856C87.6505 402.921 87.6043 403.011 87.5936 403.109C87.503 403.501 87.2641 403.843 86.9269 404.063C86.7568 404.183 86.5638 404.265 86.3601 404.306C86.1563 404.347 85.9462 404.345 85.7432 404.301C85.5467 404.244 85.3635 404.149 85.2041 404.021C85.0446 403.892 84.9123 403.734 84.8145 403.554C84.712 403.379 84.6461 403.184 84.6208 402.982C84.5956 402.781 84.6115 402.576 84.6676 402.38C84.8153 401.884 84.0824 401.649 83.9356 402.126L83.9078 402.104Z" fill="black"/>
<path d="M132.265 428.502C132.277 428.409 132.308 428.319 132.356 428.238C132.404 428.157 132.468 428.086 132.544 428.031C132.62 427.975 132.707 427.935 132.798 427.914C132.89 427.892 132.985 427.889 133.078 427.905C133.553 428.006 133.995 428.225 134.363 428.543C134.412 428.576 134.468 428.597 134.527 428.604C134.585 428.612 134.645 428.606 134.701 428.587C134.757 428.568 134.808 428.537 134.85 428.495C134.892 428.454 134.924 428.403 134.944 428.347C135.063 427.908 135.316 427.517 135.667 427.228C136.019 426.94 136.452 426.768 136.906 426.736C137.379 426.716 137.847 426.847 138.241 427.112C138.598 427.358 138.834 427.744 139.172 427.989C139.536 428.167 139.926 428.284 140.328 428.335C140.676 428.442 140.984 428.649 141.213 428.932C141.454 429.215 141.611 429.561 141.665 429.93C141.72 430.298 141.669 430.675 141.519 431.016C141.318 431.476 142.053 431.725 142.256 431.269C142.432 430.842 142.497 430.377 142.446 429.918C142.395 429.458 142.228 429.019 141.962 428.642C141.694 428.244 141.324 427.927 140.891 427.723C140.377 427.486 139.783 427.572 139.374 427.136C139.038 426.716 138.598 426.389 138.097 426.19C137.597 425.99 137.053 425.924 136.52 425.997C135.977 426.099 135.474 426.349 135.065 426.719C134.656 427.089 134.357 427.565 134.203 428.095L134.788 427.898C134.179 427.465 133.451 427 132.666 427.153C132.348 427.201 132.057 427.355 131.839 427.59C131.62 427.825 131.489 428.128 131.466 428.448C131.459 428.949 132.235 429.007 132.242 428.507L132.265 428.502Z" fill="black"/>
<path d="M103.086 491.499C103.099 491.405 103.13 491.315 103.178 491.234C103.226 491.153 103.29 491.083 103.366 491.027C103.442 490.971 103.528 490.931 103.62 490.91C103.711 490.888 103.806 490.885 103.899 490.902C104.374 491.002 104.816 491.222 105.184 491.539C105.233 491.572 105.289 491.593 105.348 491.6C105.407 491.608 105.466 491.602 105.522 491.583C105.578 491.564 105.629 491.533 105.671 491.491C105.713 491.45 105.745 491.399 105.765 491.343C105.884 490.904 106.137 490.513 106.489 490.225C106.841 489.936 107.273 489.764 107.727 489.732C108.201 489.712 108.669 489.844 109.062 490.108C109.419 490.354 109.655 490.74 109.993 490.985C110.357 491.163 110.748 491.281 111.15 491.331C111.497 491.438 111.805 491.646 112.034 491.928C112.276 492.212 112.433 492.557 112.487 492.926C112.541 493.295 112.49 493.671 112.341 494.012C112.139 494.472 112.875 494.721 113.077 494.265C113.253 493.838 113.319 493.373 113.267 492.914C113.216 492.454 113.049 492.016 112.783 491.638C112.516 491.241 112.146 490.923 111.713 490.719C111.199 490.482 110.605 490.568 110.196 490.133C109.859 489.712 109.419 489.386 108.919 489.186C108.418 488.986 107.875 488.92 107.341 488.994C106.799 489.095 106.295 489.345 105.886 489.715C105.477 490.085 105.179 490.562 105.024 491.091L105.61 490.894C105 490.461 104.273 489.996 103.487 490.149C103.17 490.197 102.878 490.351 102.66 490.586C102.442 490.822 102.31 491.124 102.287 491.444C102.28 491.945 103.057 492.003 103.064 491.503L103.086 491.499Z" fill="black"/>
<path d="M74.4653 423.201C75.1338 423.673 75.9473 423.869 76.5819 423.243C77.2165 422.616 77.3747 421.684 77.5545 420.883L76.8954 421.016C77.5812 421.993 78.34 423.566 79.6218 423.841C79.8418 423.897 80.0718 423.901 80.2936 423.852C80.5153 423.804 80.7228 423.704 80.8993 423.561C81.0758 423.419 81.2166 423.237 81.3104 423.03C81.4042 422.823 81.4485 422.597 81.4397 422.371L80.7107 422.619C81.3975 423.718 82.1217 424.445 83.4697 424.608C84.6079 424.748 85.792 423.676 86.0254 422.584C86.1238 422.098 85.4088 421.835 85.289 422.331C85.1694 422.745 84.9331 423.116 84.608 423.4C84.4602 423.579 84.2637 423.713 84.0422 423.784C83.8208 423.854 83.5835 423.86 83.3589 423.8C82.3938 423.639 81.9065 423.047 81.4038 422.261C81.3615 422.177 81.2899 422.111 81.2025 422.075C81.115 422.04 81.0176 422.037 80.9284 422.068C80.8393 422.099 80.7644 422.162 80.7179 422.244C80.6714 422.326 80.6564 422.422 80.6757 422.515C80.709 422.844 80.3172 423.053 80.0392 423.085C79.8394 423.084 79.6424 423.037 79.4631 422.949C79.2838 422.86 79.1269 422.732 79.004 422.575C78.4414 421.921 77.9317 421.223 77.4798 420.488C77.4347 420.437 77.377 420.399 77.3125 420.377C77.248 420.355 77.1789 420.351 77.1122 420.364C77.0454 420.378 76.9834 420.408 76.9322 420.453C76.8811 420.498 76.8426 420.556 76.8207 420.62C76.7202 421.206 76.5411 421.775 76.2881 422.313C75.954 422.972 75.4894 422.981 74.9008 422.558C74.4934 422.272 74.0409 422.922 74.4716 423.209L74.4653 423.201Z" fill="black"/>
<path d="M122.389 474.865C123.196 475.002 124.014 474.827 124.316 473.988C124.618 473.149 124.358 472.24 124.174 471.44L123.637 471.844C124.677 472.429 126.041 473.521 127.316 473.215C127.538 473.17 127.748 473.074 127.927 472.935C128.106 472.795 128.25 472.616 128.347 472.411C128.445 472.206 128.493 471.981 128.489 471.754C128.484 471.527 128.426 471.304 128.32 471.103L127.77 471.643C128.864 472.337 129.831 472.679 131.118 472.244C132.205 471.879 132.809 470.4 132.548 469.315C132.427 468.834 131.669 468.906 131.775 469.405C131.846 469.83 131.793 470.267 131.623 470.663C131.567 470.889 131.447 471.094 131.278 471.254C131.109 471.413 130.897 471.521 130.669 471.564C129.729 471.835 129.033 471.511 128.241 471.02C128.166 470.962 128.073 470.934 127.979 470.939C127.885 470.945 127.796 470.985 127.729 471.051C127.662 471.118 127.621 471.207 127.615 471.301C127.608 471.395 127.636 471.488 127.693 471.563C127.866 471.846 127.603 472.204 127.366 472.353C127.185 472.438 126.987 472.481 126.787 472.478C126.587 472.476 126.391 472.429 126.212 472.34C125.422 471.993 124.661 471.583 123.936 471.116C123.873 471.089 123.804 471.08 123.737 471.088C123.669 471.096 123.605 471.122 123.551 471.163C123.496 471.204 123.454 471.258 123.427 471.321C123.4 471.383 123.39 471.452 123.398 471.52C123.561 472.091 123.645 472.682 123.649 473.276C123.633 474.015 123.218 474.224 122.504 474.097C122.013 474.014 121.886 474.797 122.398 474.869L122.389 474.865Z" fill="black"/>
<path d="M35.8175 457.234C35.8122 457.47 35.8572 457.705 35.9496 457.922C36.042 458.14 36.1797 458.335 36.3534 458.495C36.5271 458.655 36.733 458.777 36.9572 458.851C37.1815 458.925 37.419 458.951 37.654 458.927C37.8891 458.902 38.1162 458.828 38.3203 458.709C38.5244 458.59 38.7008 458.429 38.8379 458.236C38.9749 458.044 39.0694 457.824 39.115 457.593C39.1606 457.361 39.1564 457.122 39.1025 456.892L38.5996 457.338C38.9717 457.56 39.3879 457.698 39.819 457.742C40.25 457.786 40.6855 457.735 41.0948 457.593C41.4278 457.452 41.7085 457.211 41.8976 456.903C42.0867 456.595 42.1747 456.235 42.1494 455.875L41.6412 456.317C42.2009 456.457 43.0145 456.676 43.5784 456.441C43.7961 456.353 43.977 456.193 44.091 455.988C44.2051 455.782 44.2455 455.544 44.2055 455.313C44.1075 454.824 43.3632 454.973 43.4433 455.466C43.5234 455.958 42.0793 455.642 41.89 455.582C41.8255 455.562 41.7569 455.559 41.6909 455.573C41.6249 455.587 41.5637 455.618 41.5131 455.663C41.4626 455.708 41.4245 455.765 41.4024 455.829C41.3803 455.893 41.3751 455.961 41.3871 456.028C41.373 456.254 41.283 456.469 41.1316 456.638C40.9802 456.808 40.7763 456.921 40.5527 456.96C39.9632 457.035 39.3656 456.909 38.8575 456.6C38.5829 456.464 38.3015 456.782 38.3492 457.043C38.3746 457.168 38.3741 457.298 38.3478 457.423C38.3215 457.548 38.2699 457.667 38.1962 457.772C38.1225 457.877 38.0281 457.965 37.919 458.032C37.8099 458.099 37.6883 458.143 37.5616 458.162C37.3205 458.165 37.0873 458.076 36.9092 457.913C36.7311 457.751 36.6214 457.527 36.6023 457.286C36.5823 456.791 35.8055 456.732 35.8265 457.232L35.8175 457.234Z" fill="black"/>
<path d="M75.159 492.287C75.1536 492.524 75.1987 492.758 75.2911 492.976C75.3835 493.193 75.5211 493.389 75.6948 493.549C75.8686 493.709 76.0744 493.83 76.2986 493.905C76.5229 493.979 76.7605 494.005 76.9955 493.981C77.2305 493.956 77.4576 493.882 77.6617 493.763C77.8658 493.644 78.0423 493.483 78.1793 493.29C78.3163 493.098 78.4108 492.878 78.4564 492.646C78.502 492.414 78.4978 492.176 78.4439 491.945L77.9411 492.392C78.3131 492.614 78.7293 492.752 79.1604 492.796C79.5915 492.84 80.027 492.789 80.4363 492.646C80.7693 492.506 81.0499 492.265 81.239 491.957C81.4281 491.648 81.5162 491.289 81.4908 490.928L80.9826 491.371C81.5423 491.51 82.3559 491.73 82.9199 491.495C83.1375 491.407 83.3184 491.247 83.4325 491.041C83.5465 490.836 83.587 490.598 83.547 490.367C83.4489 489.878 82.7046 490.027 82.7847 490.519C82.8649 491.012 81.4207 490.695 81.2314 490.635C81.1669 490.615 81.0983 490.612 81.0323 490.627C80.9663 490.641 80.9051 490.672 80.8546 490.717C80.804 490.762 80.7659 490.819 80.7438 490.883C80.7218 490.946 80.7165 491.015 80.7286 491.081C80.7144 491.308 80.6244 491.523 80.473 491.692C80.3217 491.861 80.1177 491.975 79.8942 492.014C79.3047 492.089 78.707 491.962 78.1989 491.654C77.9244 491.518 77.6429 491.836 77.6906 492.097C77.716 492.222 77.7155 492.352 77.6892 492.477C77.6629 492.602 77.6113 492.721 77.5376 492.826C77.4639 492.93 77.3696 493.019 77.2605 493.086C77.1514 493.153 77.0297 493.197 76.903 493.216C76.6619 493.218 76.4287 493.129 76.2507 492.967C76.0726 492.804 75.9629 492.58 75.9437 492.34C75.9237 491.845 75.147 491.786 75.1679 492.286L75.159 492.287Z" fill="black"/>
<path d="M146.244 446.173C146.247 445.939 146.2 445.706 146.106 445.491C146.013 445.276 145.874 445.083 145.701 444.925C145.528 444.767 145.323 444.647 145.1 444.574C144.877 444.5 144.641 444.475 144.407 444.499C144.174 444.524 143.948 444.597 143.745 444.715C143.542 444.833 143.366 444.992 143.229 445.182C143.092 445.373 142.997 445.59 142.949 445.82C142.902 446.05 142.904 446.287 142.955 446.516L143.463 446.074C142.697 445.696 141.785 445.45 140.968 445.819C140.634 445.958 140.353 446.199 140.163 446.508C139.974 446.816 139.887 447.176 139.913 447.537L140.422 447.094C139.861 446.95 139.043 446.732 138.479 446.967C138.262 447.056 138.081 447.216 137.967 447.421C137.853 447.626 137.813 447.864 137.852 448.095C137.872 448.196 137.932 448.285 138.018 448.342C138.103 448.399 138.208 448.42 138.309 448.4C138.41 448.38 138.499 448.32 138.557 448.234C138.614 448.148 138.634 448.043 138.614 447.942C138.507 447.409 139.979 447.771 140.167 447.826C140.232 447.847 140.301 447.851 140.367 447.838C140.434 447.824 140.495 447.793 140.546 447.749C140.598 447.704 140.636 447.647 140.659 447.583C140.682 447.519 140.687 447.451 140.676 447.384C140.69 447.158 140.779 446.943 140.929 446.773C141.079 446.604 141.282 446.489 141.505 446.448C142.095 446.371 142.694 446.5 143.201 446.812C143.48 446.947 143.76 446.625 143.708 446.365C143.674 446.243 143.667 446.115 143.687 445.989C143.707 445.864 143.753 445.744 143.823 445.638C143.892 445.532 143.984 445.442 144.091 445.374C144.199 445.307 144.319 445.262 144.445 445.245C144.57 445.227 144.698 445.237 144.82 445.273C144.942 445.309 145.054 445.37 145.151 445.453C145.247 445.536 145.324 445.638 145.377 445.754C145.43 445.869 145.459 445.994 145.46 446.121C145.475 446.617 146.252 446.676 146.235 446.175L146.244 446.173Z" fill="black"/>
<path d="M150.547 425.762C150.706 417.548 155.531 407.188 160.704 396.173C164.829 387.347 168.719 376.779 177.787 369.86C185.25 364.169 195.878 362.406 207.661 360.054C220.57 357.459 232.571 354.591 243.435 356.799C255.891 359.334 265.607 367.333 274.726 374.254C284.683 381.834 294.737 389.53 299.823 399.825C303.338 406.941 302.549 414.848 303.653 421.443C304.986 429.363 307.909 436.691 307.084 443.133C305.89 452.424 300.291 458.925 298.244 463.178C296.679 466.412 296.875 471.957 294.009 475.975C291.48 479.539 286.233 481.218 283.397 484.359C279.86 488.275 278.212 493.866 275.387 495.392C272.411 496.995 267.784 496.182 264.605 498.003C261.427 499.825 259.68 504.292 256.548 505.712C253.039 507.306 248.798 505.55 245.565 505.892C242.333 506.235 230.48 508.931 216.724 505.596C208.102 503.522 199.753 497.44 190.96 492.446C182.779 487.821 173.187 483.875 167.414 475.764C163.559 470.352 163.173 463.745 160.829 459.146C157.633 452.867 152.795 448.438 151.624 443.802C148.752 432.519 149.349 434.496 150.547 425.762Z" fill="#FAF331"/>
<path d="M199.453 373.395C200.117 373.935 200.935 374.251 201.789 374.296C202.643 374.341 203.489 374.115 204.206 373.648L203.482 373.342C203.499 374.251 203.791 375.134 204.321 375.872C204.851 376.611 205.593 377.171 206.449 377.478C207.284 377.741 208.177 377.755 209.02 377.521C209.863 377.286 210.62 376.813 211.2 376.157C211.583 375.734 210.872 375.147 210.482 375.585C210.014 376.128 209.39 376.512 208.695 376.686C208 376.859 207.268 376.813 206.6 376.554C205.933 376.295 205.361 375.836 204.965 375.239C204.568 374.642 204.366 373.938 204.387 373.222C204.385 372.852 203.914 372.747 203.662 372.916C203.108 373.267 202.457 373.434 201.802 373.393C201.147 373.351 200.522 373.104 200.016 372.686C199.921 372.611 199.799 372.576 199.679 372.591C199.558 372.605 199.448 372.667 199.373 372.762C199.298 372.857 199.264 372.979 199.278 373.1C199.292 373.22 199.354 373.33 199.449 373.405L199.453 373.395Z" fill="black"/>
<path d="M272.715 408.33C272.471 408.844 272.402 409.424 272.518 409.981C272.635 410.538 272.93 411.042 273.36 411.415C274.44 412.305 276.145 412.077 277.377 411.679L276.846 410.97C276.496 411.51 276.362 412.163 276.473 412.797C276.584 413.432 276.93 414.001 277.442 414.391C277.987 414.769 278.654 414.926 279.31 414.829C279.609 414.776 279.897 414.675 280.162 414.528C280.595 414.307 280.593 414.435 280.914 414.729C281.85 415.586 283.372 415.404 284.313 414.655C285.609 413.624 285.753 411.801 285.58 410.272C285.516 409.689 284.606 409.808 284.67 410.391C284.77 411.538 284.775 413.008 283.834 413.851C283.44 414.206 282.924 414.396 282.393 414.383C281.818 414.362 281.589 414.043 281.195 413.689C280.41 413.001 279.65 413.996 278.804 413.937C278.537 413.91 278.281 413.816 278.059 413.665C277.837 413.514 277.656 413.31 277.533 413.072C277.41 412.833 277.348 412.568 277.352 412.3C277.357 412.031 277.429 411.768 277.561 411.535C277.62 411.454 277.651 411.357 277.65 411.257C277.649 411.157 277.616 411.06 277.555 410.981C277.495 410.901 277.41 410.844 277.315 410.816C277.219 410.789 277.116 410.793 277.023 410.828C276.174 411.107 274.875 411.33 274.074 410.805C273.745 410.574 273.512 410.232 273.416 409.842C273.32 409.452 273.369 409.041 273.554 408.684C273.601 408.573 273.602 408.446 273.556 408.334C273.511 408.221 273.422 408.132 273.31 408.084C273.198 408.037 273.072 408.036 272.96 408.082C272.847 408.128 272.757 408.216 272.71 408.328L272.715 408.33Z" fill="black"/>
<path d="M258.518 378.205C258.077 378.573 257.759 379.068 257.607 379.622C257.454 380.176 257.474 380.764 257.665 381.306C257.873 381.849 258.255 382.308 258.751 382.611C259.246 382.915 259.828 383.046 260.406 382.985C261.067 382.934 261.686 382.642 262.145 382.164C262.214 382.069 262.243 381.952 262.228 381.837C262.212 381.721 262.153 381.616 262.062 381.544C261.966 381.479 261.85 381.451 261.736 381.467C261.622 381.482 261.517 381.539 261.442 381.627C261.094 381.949 260.634 382.124 260.16 382.115C259.915 382.118 259.672 382.071 259.447 381.976C259.221 381.88 259.018 381.739 258.85 381.561C258.696 381.376 258.581 381.161 258.51 380.931C258.44 380.701 258.416 380.458 258.44 380.219C258.457 379.98 258.521 379.746 258.63 379.533C258.74 379.32 258.891 379.131 259.075 378.978C259.548 378.593 258.99 377.878 258.531 378.245L258.518 378.205Z" fill="black"/>
<path d="M229.844 489.304C229.403 489.673 229.084 490.167 228.932 490.721C228.779 491.276 228.8 491.863 228.99 492.406C229.199 492.948 229.58 493.407 230.076 493.71C230.572 494.014 231.154 494.145 231.732 494.084C232.393 494.033 233.012 493.741 233.47 493.263C233.539 493.168 233.569 493.051 233.553 492.936C233.538 492.821 233.478 492.715 233.387 492.643C233.292 492.578 233.176 492.55 233.061 492.566C232.947 492.581 232.842 492.638 232.767 492.726C232.419 493.048 231.959 493.223 231.485 493.214C231.24 493.217 230.997 493.17 230.772 493.075C230.546 492.979 230.343 492.838 230.175 492.66C230.021 492.475 229.906 492.261 229.836 492.03C229.765 491.8 229.741 491.558 229.765 491.318C229.782 491.079 229.847 490.846 229.956 490.632C230.065 490.419 230.216 490.23 230.4 490.077C230.873 489.692 230.315 488.977 229.856 489.344L229.844 489.304Z" fill="black"/>
<path d="M288.114 435.969C288.188 435.886 288.278 435.819 288.378 435.772C288.479 435.725 288.588 435.699 288.698 435.695C288.809 435.691 288.92 435.71 289.023 435.749C289.127 435.789 289.222 435.849 289.301 435.927C289.697 436.34 289.982 436.846 290.13 437.399C290.156 437.464 290.197 437.521 290.249 437.568C290.301 437.614 290.363 437.648 290.43 437.666C290.497 437.685 290.568 437.688 290.636 437.676C290.705 437.663 290.769 437.635 290.825 437.594C291.233 437.245 291.738 437.032 292.272 436.984C292.806 436.936 293.341 437.055 293.804 437.325C294.279 437.619 294.647 438.058 294.855 438.576C295.04 439.052 295.014 439.585 295.181 440.047C295.417 440.462 295.72 440.835 296.078 441.151C296.346 441.485 296.508 441.892 296.544 442.319C296.591 442.755 296.514 443.196 296.323 443.591C296.131 443.986 295.832 444.318 295.46 444.551C294.959 444.866 295.51 445.596 296.01 445.286C296.465 444.987 296.837 444.578 297.091 444.096C297.345 443.615 297.474 443.077 297.465 442.533C297.468 441.968 297.318 441.414 297.031 440.928C296.688 440.356 296.053 440.047 295.943 439.352C295.894 438.719 295.682 438.109 295.327 437.583C294.972 437.057 294.487 436.632 293.918 436.35C293.323 436.089 292.667 435.999 292.023 436.088C291.379 436.178 290.773 436.444 290.271 436.857L290.972 437.053C290.665 436.228 290.265 435.293 289.398 434.921C289.058 434.757 288.672 434.714 288.303 434.798C287.935 434.883 287.606 435.09 287.371 435.386C287.033 435.869 287.75 436.441 288.089 435.959L288.114 435.969Z" fill="black"/>
<path d="M183.607 461.505C183.945 462.408 184.607 463.138 185.641 462.949C186.674 462.759 187.446 461.957 188.152 461.296L187.422 460.988C187.442 462.394 187.138 464.429 188.205 465.546C188.382 465.747 188.603 465.903 188.851 466.003C189.099 466.103 189.367 466.143 189.634 466.121C189.9 466.099 190.158 466.015 190.387 465.876C190.615 465.737 190.808 465.546 190.95 465.32L190.075 465.079C190.016 466.604 190.239 467.792 191.444 468.844C192.459 469.735 194.323 469.476 195.274 468.567C195.692 468.159 195.17 467.43 194.725 467.832C194.334 468.157 193.857 468.362 193.353 468.422C193.09 468.499 192.81 468.499 192.548 468.421C192.285 468.343 192.05 468.191 191.871 467.984C191.038 467.187 190.956 466.287 190.987 465.189C191.002 465.079 190.976 464.967 190.914 464.875C190.853 464.782 190.76 464.715 190.652 464.686C190.545 464.657 190.43 464.669 190.331 464.718C190.231 464.767 190.153 464.851 190.11 464.953C189.924 465.296 189.404 465.24 189.112 465.087C188.918 464.953 188.757 464.777 188.641 464.572C188.525 464.367 188.457 464.139 188.442 463.904C188.328 462.894 188.294 461.876 188.341 460.861C188.331 460.782 188.3 460.706 188.252 460.642C188.203 460.578 188.139 460.528 188.065 460.497C187.991 460.466 187.91 460.455 187.831 460.464C187.751 460.474 187.676 460.505 187.612 460.553C187.125 461.057 186.574 461.493 185.971 461.849C185.208 462.269 184.75 461.97 184.457 461.168C184.25 460.619 183.378 460.952 183.608 461.517L183.607 461.505Z" fill="black"/>
<path d="M175.139 400.018C174.978 400.244 174.866 400.502 174.812 400.776C174.758 401.049 174.762 401.33 174.825 401.601C174.888 401.872 175.008 402.127 175.177 402.348C175.346 402.569 175.561 402.752 175.806 402.884C176.051 403.016 176.321 403.094 176.599 403.113C176.877 403.133 177.155 403.093 177.416 402.996C177.677 402.9 177.915 402.748 178.113 402.553C178.311 402.357 178.465 402.122 178.565 401.862L177.78 401.963C177.995 402.426 178.309 402.836 178.7 403.165C179.09 403.494 179.548 403.733 180.041 403.865C180.458 403.949 180.892 403.9 181.28 403.726C181.668 403.551 181.992 403.259 182.207 402.891L181.419 402.985C181.871 403.492 182.518 404.245 183.223 404.391C183.493 404.449 183.776 404.413 184.023 404.288C184.27 404.164 184.467 403.959 184.582 403.707C184.81 403.166 183.986 402.818 183.738 403.351C183.49 403.883 182.293 402.618 182.149 402.434C182.099 402.372 182.034 402.323 181.96 402.294C181.887 402.264 181.806 402.253 181.727 402.263C181.648 402.274 181.574 402.304 181.51 402.351C181.446 402.399 181.395 402.462 181.363 402.535C181.199 402.746 180.969 402.896 180.709 402.96C180.45 403.025 180.176 403 179.932 402.89C179.308 402.573 178.81 402.053 178.52 401.416C178.343 401.101 177.858 401.224 177.731 401.51C177.673 401.649 177.587 401.775 177.478 401.879C177.369 401.984 177.24 402.065 177.099 402.118C176.958 402.172 176.807 402.195 176.657 402.188C176.506 402.181 176.358 402.144 176.223 402.078C175.986 401.92 175.818 401.679 175.752 401.403C175.687 401.127 175.728 400.836 175.869 400.589C176.178 400.093 175.46 399.521 175.149 400.022L175.139 400.018Z" fill="black"/>
<path d="M290.015 462.445C290.173 462.219 290.281 461.961 290.332 461.689C290.384 461.418 290.377 461.138 290.313 460.869C290.249 460.6 290.129 460.348 289.96 460.129C289.792 459.91 289.578 459.728 289.335 459.597C289.092 459.466 288.823 459.388 288.547 459.368C288.272 459.348 287.995 459.387 287.735 459.481C287.475 459.576 287.238 459.724 287.04 459.917C286.841 460.11 286.686 460.342 286.584 460.599L287.372 460.505C286.876 459.629 286.151 458.784 285.111 458.602C284.693 458.517 284.259 458.565 283.871 458.74C283.482 458.915 283.158 459.208 282.945 459.577L283.733 459.483C283.283 458.971 282.631 458.216 281.926 458.07C281.656 458.013 281.374 458.05 281.127 458.174C280.88 458.298 280.682 458.503 280.567 458.754C280.52 458.866 280.519 458.992 280.565 459.104C280.61 459.217 280.699 459.307 280.811 459.354C280.923 459.401 281.049 459.402 281.161 459.356C281.274 459.311 281.364 459.222 281.411 459.11C281.66 458.52 282.854 459.848 283 460.027C283.049 460.09 283.114 460.139 283.188 460.17C283.261 460.201 283.342 460.212 283.421 460.203C283.5 460.193 283.576 460.164 283.64 460.116C283.705 460.069 283.756 460.006 283.789 459.933C283.952 459.722 284.181 459.572 284.44 459.506C284.699 459.441 284.972 459.463 285.216 459.571C285.842 459.887 286.341 460.41 286.627 461.05C286.809 461.367 287.296 461.239 287.417 460.951C287.466 460.809 287.544 460.68 287.646 460.571C287.748 460.462 287.873 460.376 288.011 460.319C288.149 460.262 288.298 460.235 288.447 460.24C288.597 460.245 288.743 460.282 288.877 460.348C289.011 460.415 289.13 460.509 289.224 460.624C289.319 460.74 289.388 460.874 289.427 461.019C289.465 461.163 289.473 461.314 289.448 461.462C289.424 461.609 289.368 461.75 289.285 461.874C288.971 462.367 289.689 462.94 290.005 462.441L290.015 462.445Z" fill="black"/>
<path d="M69.9104 355.323C67.5701 348.847 67.8884 339.152 68.2564 328.831C68.5376 320.567 68.1324 311.018 72.4781 302.613C76.0547 295.699 83.0425 290.81 90.6712 285.08C99.0236 278.787 106.652 272.582 114.992 270.72C124.556 268.589 133.814 271.635 142.327 274.036C151.631 276.675 161.037 279.373 167.707 285.743C172.317 290.147 174.12 296.59 176.87 301.383C180.177 307.136 184.432 311.901 185.772 317.21C187.703 324.87 185.685 331.803 185.507 335.805C185.367 338.85 187.161 343.122 186.334 347.21C185.611 350.832 182.402 353.878 181.335 357.271C180.004 361.501 180.508 366.417 178.966 368.543C177.341 370.78 173.826 371.671 172.123 374.146C170.419 376.62 170.519 380.69 168.728 382.834C166.723 385.24 163.2 385.267 161.017 386.603C158.834 387.938 151.259 393.961 140.537 395.895C133.822 397.121 126.102 395.122 118.395 394.121C111.23 393.206 103.27 393.289 96.7659 388.853C92.4244 385.894 90.1792 380.854 87.1484 378.033C83.0136 374.178 78.2709 372.312 76.0588 369.074C70.6588 361.199 71.6718 362.548 69.9104 355.323Z" fill="#FAF331"/>
<path d="M114.653 328.04C114.653 328.04 119.354 339.061 124.432 328.04" stroke="black" stroke-width="1.51" stroke-miterlimit="10"/>
<path d="M128.914 328.04C128.914 328.04 133.615 339.061 138.693 328.04" stroke="black" stroke-width="1.51" stroke-miterlimit="10"/>
<path d="M124.432 338.832C124.432 338.832 123.539 347.521 126.499 347.352C129.46 347.183 128.897 338.832 128.897 338.832" stroke="black" stroke-width="1.51" stroke-miterlimit="10"/>
<path d="M112.011 337.245C114.276 337.245 116.113 336.434 116.113 335.434C116.113 334.434 114.276 333.623 112.011 333.623C109.746 333.623 107.909 334.434 107.909 335.434C107.909 336.434 109.746 337.245 112.011 337.245Z" fill="#FFA4BA"/>
<path d="M140.132 337.245C142.397 337.245 144.233 336.434 144.233 335.434C144.233 334.434 142.397 333.623 140.132 333.623C137.866 333.623 136.03 334.434 136.03 335.434C136.03 336.434 137.866 337.245 140.132 337.245Z" fill="#FFA4BA"/>
<path d="M88.8519 298.223C89.4822 298.426 90.1545 298.402 90.772 298.156C91.3894 297.909 91.9202 297.453 92.288 296.851H91.6843C91.9675 297.556 92.438 298.15 93.0332 298.552C93.6284 298.955 94.3202 299.148 95.0169 299.106C95.6855 299.035 96.3213 298.751 96.8474 298.29C97.3735 297.828 97.7674 297.208 97.9816 296.503C98.1263 296.046 97.4482 295.822 97.3035 296.293C97.1347 296.872 96.8081 297.379 96.3684 297.744C95.9288 298.109 95.3978 298.315 94.8482 298.333C94.2987 298.351 93.7575 298.18 93.2991 297.845C92.8407 297.509 92.4875 297.024 92.288 296.458C92.1763 296.17 91.8124 296.243 91.6843 296.458C91.3974 296.916 90.9869 297.261 90.5115 297.445C90.0362 297.629 89.5204 297.642 89.038 297.482C88.9481 297.455 88.852 297.468 88.771 297.519C88.69 297.57 88.6306 297.655 88.6059 297.754C88.5812 297.854 88.5933 297.96 88.6394 298.05C88.6856 298.139 88.762 298.205 88.8519 298.232V298.223Z" fill="black"/>
<path d="M151.081 301.346C151.062 301.829 151.186 302.305 151.435 302.702C151.683 303.099 152.042 303.396 152.458 303.546C153.487 303.884 154.624 303.144 155.377 302.426L154.79 302.046C154.703 302.584 154.804 303.139 155.071 303.598C155.339 304.058 155.754 304.389 156.233 304.525C156.73 304.641 157.249 304.542 157.684 304.25C157.879 304.11 158.053 303.936 158.197 303.734C158.436 303.418 158.474 303.519 158.788 303.642C159.706 304.003 160.727 303.359 161.17 302.462C161.777 301.227 161.335 299.755 160.756 298.616C160.537 298.182 159.929 298.575 160.148 299.01C160.562 299.874 161.004 301.022 160.591 301.991C160.417 302.399 160.11 302.718 159.731 302.883C159.317 303.057 159.061 302.883 158.676 302.737C157.916 302.458 157.676 303.487 157.06 303.72C156.863 303.787 156.654 303.798 156.452 303.753C156.25 303.708 156.061 303.609 155.903 303.463C155.744 303.317 155.621 303.13 155.545 302.919C155.468 302.707 155.44 302.478 155.464 302.252C155.481 302.169 155.474 302.083 155.444 302.005C155.413 301.927 155.361 301.863 155.294 301.821C155.228 301.778 155.151 301.761 155.075 301.771C154.999 301.781 154.928 301.818 154.872 301.877C154.355 302.375 153.504 302.979 152.78 302.833C152.479 302.761 152.212 302.57 152.028 302.297C151.844 302.024 151.755 301.686 151.779 301.346C151.779 301.243 151.742 301.144 151.677 301.072C151.611 300.999 151.521 300.958 151.428 300.958C151.335 300.958 151.245 300.999 151.18 301.072C151.114 301.144 151.077 301.243 151.077 301.346H151.081Z" fill="black"/>
<path d="M132.048 282.478C131.846 282.912 131.769 283.403 131.827 283.887C131.884 284.371 132.074 284.824 132.371 285.185C132.68 285.54 133.087 285.773 133.528 285.847C133.969 285.92 134.42 285.831 134.81 285.592C135.262 285.334 135.613 284.901 135.794 284.376C135.815 284.279 135.801 284.178 135.755 284.093C135.71 284.008 135.636 283.945 135.55 283.918C135.464 283.899 135.373 283.916 135.297 283.966C135.221 284.016 135.164 284.095 135.137 284.188C134.987 284.555 134.714 284.843 134.376 284.993C134.204 285.077 134.018 285.12 133.83 285.12C133.642 285.12 133.457 285.077 133.285 284.993C133.12 284.899 132.975 284.769 132.856 284.612C132.738 284.455 132.649 284.274 132.594 284.078C132.534 283.886 132.511 283.682 132.524 283.48C132.538 283.277 132.588 283.079 132.673 282.899C132.892 282.441 132.284 282.066 132.069 282.505L132.048 282.478Z" fill="black"/>
<path d="M170.221 317.874C170.248 317.784 170.292 317.702 170.349 317.632C170.406 317.562 170.475 317.506 170.552 317.466C170.63 317.427 170.713 317.404 170.798 317.401C170.883 317.398 170.968 317.414 171.048 317.448C171.451 317.64 171.804 317.943 172.073 318.326C172.111 318.368 172.157 318.399 172.208 318.418C172.258 318.437 172.312 318.443 172.365 318.436C172.418 318.428 172.469 318.408 172.514 318.375C172.558 318.343 172.596 318.299 172.623 318.249C172.807 317.842 173.101 317.508 173.464 317.294C173.827 317.08 174.241 316.997 174.649 317.055C175.073 317.128 175.464 317.349 175.765 317.686C176.038 317.997 176.179 318.422 176.435 318.729C176.726 318.975 177.051 319.167 177.399 319.296C177.688 319.469 177.924 319.733 178.077 320.055C178.24 320.381 178.318 320.75 178.3 321.123C178.283 321.495 178.171 321.854 177.978 322.159C177.717 322.57 178.325 322.959 178.585 322.552C178.818 322.168 178.958 321.725 178.995 321.264C179.031 320.804 178.961 320.341 178.792 319.918C178.626 319.476 178.354 319.092 178.007 318.806C177.593 318.473 177.051 318.441 176.766 317.933C176.543 317.454 176.211 317.048 175.803 316.754C175.395 316.459 174.924 316.287 174.438 316.255C173.939 316.247 173.449 316.393 173.02 316.676C172.592 316.958 172.243 317.367 172.011 317.855L172.565 317.778C172.102 317.233 171.54 316.634 170.816 316.63C170.526 316.614 170.24 316.708 170.005 316.895C169.77 317.083 169.6 317.354 169.522 317.663C169.427 318.153 170.105 318.363 170.2 317.874H170.221Z" fill="black"/>
<path d="M119.925 301.305C120.434 301.9 121.12 302.252 121.794 301.763C122.468 301.273 122.774 300.391 123.076 299.641H122.468C122.902 300.734 123.295 302.426 124.382 302.947C124.567 303.045 124.771 303.094 124.976 303.09C125.181 303.086 125.383 303.03 125.564 302.924C125.746 302.819 125.904 302.668 126.023 302.484C126.143 302.3 126.223 302.087 126.255 301.863L125.565 301.964C125.978 303.176 126.491 304.031 127.657 304.456C128.641 304.817 129.882 303.999 130.283 302.974C130.456 302.517 129.869 302.119 129.675 302.581C129.495 302.964 129.22 303.282 128.881 303.496C128.718 303.643 128.52 303.735 128.311 303.76C128.102 303.786 127.891 303.745 127.703 303.642C126.876 303.295 126.549 302.618 126.243 301.749C126.22 301.658 126.169 301.579 126.098 301.527C126.026 301.475 125.94 301.453 125.856 301.466C125.771 301.479 125.694 301.525 125.638 301.597C125.582 301.668 125.552 301.76 125.552 301.854C125.523 302.183 125.139 302.311 124.887 302.288C124.71 302.248 124.544 302.163 124.4 302.041C124.257 301.919 124.141 301.763 124.06 301.584C123.677 300.832 123.35 300.048 123.08 299.238C123.049 299.179 123.005 299.13 122.951 299.097C122.898 299.063 122.837 299.045 122.776 299.045C122.714 299.045 122.654 299.063 122.601 299.097C122.547 299.13 122.503 299.179 122.472 299.238C122.279 299.793 122.019 300.316 121.699 300.793C121.285 301.374 120.872 301.292 120.425 300.761C120.115 300.4 119.598 300.949 119.929 301.314L119.925 301.305Z" fill="black"/>
<path d="M79.6107 327.07C79.5639 327.301 79.5621 327.54 79.6053 327.771C79.6486 328.002 79.7359 328.221 79.8614 328.412C79.9869 328.603 80.1478 328.763 80.3333 328.88C80.5189 328.997 80.7249 329.069 80.9376 329.091C81.1503 329.114 81.3648 329.086 81.5669 329.009C81.7691 328.932 81.9541 328.809 82.1098 328.647C82.2655 328.486 82.3883 328.289 82.47 328.071C82.5517 327.852 82.5904 327.617 82.5836 327.381L82.0585 327.719C82.3488 328.01 82.6932 328.227 83.0675 328.355C83.4418 328.483 83.837 328.519 84.2251 328.46C84.5453 328.388 84.837 328.207 85.0595 327.942C85.2819 327.677 85.4239 327.342 85.4655 326.983L84.9363 327.317C85.4077 327.564 86.0899 327.939 86.6316 327.82C86.8402 327.776 87.029 327.655 87.1667 327.476C87.3043 327.297 87.3825 327.072 87.3882 326.837C87.3882 326.338 86.7019 326.338 86.6853 326.837C86.6688 327.335 85.4449 326.741 85.2878 326.645C85.2341 326.613 85.1738 326.596 85.1128 326.597C85.0517 326.598 84.9919 326.617 84.9391 326.651C84.8864 326.685 84.8424 326.733 84.8115 326.791C84.7806 326.85 84.7638 326.916 84.7626 326.983C84.7098 327.202 84.5917 327.396 84.4274 327.532C84.2632 327.668 84.0623 327.739 83.8571 327.733C83.3211 327.691 82.8138 327.449 82.4182 327.047C82.199 326.86 81.8931 327.116 81.8889 327.381C81.8891 327.509 81.8657 327.636 81.82 327.754C81.7744 327.871 81.7076 327.977 81.6236 328.066C81.5396 328.154 81.4403 328.222 81.3316 328.266C81.223 328.311 81.1073 328.33 80.9917 328.323C80.7774 328.278 80.5865 328.145 80.4576 327.951C80.3286 327.757 80.2713 327.515 80.297 327.276C80.3673 326.787 79.6892 326.576 79.6189 327.07H79.6107Z" fill="black"/>
<path d="M179.47 337.949C179.514 337.72 179.514 337.483 179.469 337.253C179.425 337.024 179.336 336.807 179.211 336.618C179.085 336.429 178.925 336.272 178.74 336.156C178.555 336.04 178.351 335.969 178.14 335.947C177.928 335.925 177.715 335.952 177.514 336.028C177.313 336.103 177.129 336.225 176.974 336.385C176.818 336.544 176.695 336.739 176.612 336.955C176.529 337.171 176.489 337.404 176.493 337.638L177.023 337.305C176.411 336.783 175.646 336.363 174.856 336.564C174.535 336.635 174.243 336.816 174.02 337.081C173.798 337.346 173.656 337.682 173.615 338.041L174.145 337.707C173.673 337.456 172.987 337.081 172.445 337.199C172.237 337.244 172.049 337.366 171.911 337.544C171.774 337.723 171.695 337.948 171.689 338.183C171.689 338.286 171.726 338.385 171.792 338.458C171.857 338.53 171.947 338.571 172.04 338.571C172.133 338.571 172.223 338.53 172.289 338.458C172.354 338.385 172.392 338.286 172.392 338.183C172.392 337.638 173.632 338.283 173.789 338.375C173.843 338.408 173.903 338.425 173.964 338.425C174.026 338.425 174.086 338.407 174.139 338.373C174.192 338.34 174.237 338.291 174.268 338.233C174.3 338.175 174.317 338.109 174.318 338.041C174.371 337.822 174.488 337.629 174.652 337.492C174.815 337.355 175.015 337.283 175.22 337.286C175.757 337.327 176.265 337.571 176.659 337.977C176.882 338.164 177.188 337.904 177.188 337.638C177.18 337.512 177.196 337.385 177.236 337.266C177.276 337.147 177.338 337.039 177.419 336.948C177.499 336.858 177.597 336.788 177.704 336.743C177.811 336.697 177.926 336.678 178.04 336.685C178.155 336.693 178.266 336.727 178.368 336.786C178.469 336.845 178.558 336.928 178.629 337.028C178.699 337.128 178.749 337.244 178.776 337.367C178.803 337.491 178.806 337.619 178.784 337.744C178.71 338.233 179.388 338.443 179.462 337.949H179.47Z" fill="black"/>
<path d="M212 337.397C226.358 324.67 250.915 291.173 234.275 259" stroke="black" stroke-width="1.5"/>
<path d="M212 337.397C226.358 324.67 250.915 291.173 234.275 259" stroke="black" stroke-opacity="0.2" stroke-width="1.5"/>
<path d="M211 338.5C227.5 331.833 260.5 314 260.5 296" stroke="black" stroke-width="1.5"/>
<path d="M211 338.5C227.5 331.833 260.5 314 260.5 296" stroke="black" stroke-opacity="0.2" stroke-width="1.5"/>
<path d="M188.14 421.17C186.265 427.724 189.84 444.678 219.137 460.066C248.434 475.453 260.315 469.203 262.593 464.155" stroke="black" stroke-width="1.4"/>
<path d="M186.894 422.218C189.792 423.891 192.682 424.309 193.35 423.152C194.018 421.996 192.21 419.702 189.313 418.029C186.415 416.356 183.525 415.938 182.857 417.094C182.189 418.251 183.997 420.545 186.894 422.218Z" fill="#FFA4BA"/>
<path d="M261.347 465.203C264.245 466.876 267.135 467.294 267.803 466.138C268.471 464.981 266.663 462.687 263.766 461.014C260.868 459.341 257.978 458.923 257.31 460.08C256.642 461.236 258.45 463.53 261.347 465.203Z" fill="#FFA4BA"/>
<ellipse cx="232.75" cy="420.5" rx="1.60048" ry="4.27211" transform="rotate(30 232.75 420.5)" fill="black"/>
<ellipse cx="244.522" cy="426.5" rx="1.60048" ry="4.27211" transform="rotate(30 244.522 426.5)" fill="black"/>
</g>
<defs>
<clipPath id="clip0_6_1418">
<rect width="326.88" height="574.85" fill="white"/>
</clipPath>
</defs>
</svg>
