<svg width="175" height="190" viewBox="0 0 175 190" fill="none" xmlns="http://www.w3.org/2000/svg">
<path d="M66 137V189H46" stroke="black" stroke-miterlimit="10"/>
<path d="M3.53365 95.2888C0.650894 88.1329 1.04307 77.4191 1.49637 66.013C1.8427 56.881 1.34358 46.3289 6.69654 37.0403C11.1022 29.3992 19.7097 23.9968 29.1066 17.6646C39.3949 10.7107 48.7918 3.85291 59.0648 1.79607C70.8454 -0.558938 82.2491 2.8068 92.736 5.45997C104.196 8.37594 115.783 11.3576 123.998 18.3973C129.677 23.264 131.898 30.3846 135.285 35.6809C139.359 42.0384 144.6 47.3043 146.25 53.1716C148.629 61.6365 146.143 69.2978 145.924 73.7198C145.751 77.0855 147.962 81.8057 146.943 86.3236C146.052 90.3261 142.099 93.6919 140.785 97.4417C139.145 102.116 139.767 107.549 137.867 109.899C135.865 112.37 131.536 113.356 129.438 116.09C127.339 118.824 127.462 123.322 125.256 125.692C122.786 128.35 118.447 128.38 115.757 129.856C113.068 131.332 103.737 137.987 90.5307 140.125C82.2593 141.479 72.7503 139.271 63.2566 138.164C54.43 137.153 44.6256 137.244 36.614 132.342C31.2662 129.073 28.5005 123.503 24.7672 120.385C19.674 116.125 13.8321 114.063 11.1072 110.485C4.45551 101.783 5.70335 103.274 3.53365 95.2888Z" fill="#FAF331" stroke="black" stroke-miterlimit="10"/>
<path d="M57 120L53 123L62 124.5L57 120Z" fill="black" stroke="black" stroke-linejoin="round"/>
<path d="M58.6 64.9609C58.6 64.9609 64.1909 78.0439 70.2293 64.9609" stroke="black" stroke-miterlimit="10"/>
<path d="M76.0439 64.9609C76.0439 64.9609 81.9842 78.0439 88.4 64.9609" stroke="black" stroke-miterlimit="10"/>
<path d="M70.3879 77.3171C70.3879 77.3171 69.2674 86.9508 72.9817 86.7632C76.696 86.5755 75.9904 77.3171 75.9904 77.3171" stroke="black" stroke-miterlimit="10"/>
<path d="M55.3293 75.1366C57.9385 75.1366 60.0537 74.323 60.0537 73.3195C60.0537 72.316 57.9385 71.5024 55.3293 71.5024C52.7201 71.5024 50.6049 72.316 50.6049 73.3195C50.6049 74.323 52.7201 75.1366 55.3293 75.1366Z" fill="#FFA4BA"/>
<path d="M89.8537 75.1366C92.6636 75.1366 94.9415 74.323 94.9415 73.3195C94.9415 72.316 92.6636 71.5024 89.8537 71.5024C87.0437 71.5024 84.7658 72.316 84.7658 73.3195C84.7658 74.323 87.0437 75.1366 89.8537 75.1366Z" fill="#FFA4BA"/>
<path d="M26.9391 31.9321C27.7182 32.1717 28.5491 32.144 29.3124 31.8531C30.0756 31.5621 30.7317 31.0229 31.1862 30.3131H30.44C30.7901 31.1454 31.3716 31.8456 32.1074 32.3207C32.8431 32.7959 33.6982 33.0237 34.5594 32.9737C35.3858 32.8902 36.1716 32.5558 36.8219 32.0109C37.4722 31.4659 37.9592 30.7338 38.2239 29.903C38.4028 29.3633 37.5646 29.0988 37.3857 29.6547C37.1771 30.3377 36.7733 30.9357 36.23 31.3666C35.6866 31.7976 35.0302 32.0404 34.3509 32.0617C33.6716 32.083 33.0027 31.8817 32.4361 31.4855C31.8694 31.0894 31.4328 30.5177 31.1862 29.849C31.0482 29.509 30.5985 29.5953 30.44 29.849C30.0854 30.3892 29.578 30.7972 28.9904 31.0143C28.4029 31.2315 27.7653 31.2467 27.1691 31.0579C27.0579 31.0257 26.9392 31.0414 26.839 31.1016C26.7389 31.1618 26.6655 31.2616 26.635 31.379C26.6045 31.4963 26.6194 31.6217 26.6764 31.7274C26.7335 31.8332 26.8279 31.9107 26.9391 31.9429V31.9321Z" fill="black"/>
<path d="M102.942 35.3611C102.918 35.8749 103.075 36.3818 103.388 36.8046C103.701 37.2274 104.153 37.5428 104.676 37.7028C105.973 38.0631 107.406 37.2744 108.354 36.51L107.614 36.106C107.506 36.679 107.632 37.2693 107.969 37.7586C108.307 38.2479 108.829 38.6001 109.432 38.7446C110.059 38.8679 110.713 38.7635 111.261 38.4525C111.507 38.3036 111.725 38.1177 111.907 37.9024C112.209 37.5665 112.256 37.6736 112.652 37.805C113.808 38.1896 115.095 37.5032 115.652 36.549C116.418 35.2345 115.86 33.6669 115.131 32.4547C114.855 31.9922 114.089 32.4109 114.365 32.8734C114.886 33.7935 115.444 35.0155 114.923 36.0476C114.704 36.4816 114.317 36.8213 113.839 36.9969C113.318 37.1819 112.995 36.9969 112.511 36.8411C111.552 36.5441 111.25 37.6395 110.474 37.8878C110.226 37.9589 109.963 37.9711 109.708 37.9234C109.454 37.8757 109.216 37.7695 109.017 37.6144C108.817 37.4593 108.662 37.2603 108.566 37.0352C108.469 36.81 108.434 36.566 108.463 36.325C108.486 36.2373 108.477 36.1452 108.438 36.0624C108.4 35.9797 108.334 35.9108 108.25 35.8659C108.167 35.8211 108.07 35.8027 107.974 35.8135C107.878 35.8242 107.788 35.8637 107.719 35.9258C107.067 36.4565 105.994 37.0991 105.083 36.9433C104.703 36.8667 104.367 36.6642 104.135 36.3732C103.903 36.0823 103.792 35.7227 103.822 35.3611C103.822 35.2514 103.775 35.1461 103.692 35.0685C103.609 34.9909 103.497 34.9473 103.379 34.9473C103.262 34.9473 103.149 34.9909 103.066 35.0685C102.983 35.1461 102.937 35.2514 102.937 35.3611H102.942Z" fill="black"/>
<path d="M79.9838 14.2886C79.7267 14.8199 79.6283 15.4219 79.7017 16.0142C79.7751 16.6066 80.0168 17.161 80.3945 17.6033C80.7885 18.0384 81.3065 18.3231 81.8682 18.4132C82.4299 18.5033 83.0039 18.3938 83.5011 18.1016C84.0769 17.786 84.523 17.2557 84.7542 16.6122C84.7802 16.4943 84.7623 16.3703 84.7045 16.266C84.6466 16.1617 84.5531 16.0852 84.4435 16.0523C84.3329 16.0288 84.218 16.0495 84.1208 16.1104C84.0237 16.1714 83.9511 16.2683 83.917 16.3827C83.7258 16.8319 83.3786 17.185 82.9482 17.3681C82.7291 17.4705 82.4925 17.5234 82.2532 17.5234C82.0139 17.5234 81.7772 17.4705 81.5581 17.3681C81.3492 17.2526 81.1639 17.0942 81.0129 16.9019C80.862 16.7097 80.7484 16.4875 80.6788 16.2483C80.6029 16.0128 80.5725 15.7634 80.5897 15.5151C80.6069 15.2669 80.6712 15.0249 80.7789 14.8038C81.0579 14.2438 80.2839 13.7847 80.0101 14.3222L79.9838 14.2886Z" fill="black"/>
<path d="M127.063 53.697C127.096 53.5969 127.15 53.5048 127.22 53.4262C127.289 53.3476 127.374 53.284 127.469 53.2394C127.563 53.1948 127.666 53.17 127.77 53.1666C127.875 53.1631 127.978 53.181 128.076 53.2192C128.57 53.4352 129.002 53.7745 129.332 54.2056C129.379 54.2524 129.435 54.2879 129.497 54.3092C129.559 54.3306 129.625 54.3373 129.69 54.3289C129.755 54.3204 129.817 54.2971 129.872 54.2606C129.927 54.2241 129.973 54.1755 130.006 54.1183C130.231 53.6611 130.591 53.2863 131.036 53.046C131.481 52.8057 131.989 52.7118 132.489 52.7774C133.008 52.8594 133.487 53.1079 133.856 53.4864C134.191 53.8357 134.363 54.3135 134.677 54.6578C135.033 54.9349 135.432 55.1502 135.858 55.2948C136.212 55.489 136.501 55.786 136.689 56.1477C136.889 56.5134 136.984 56.9291 136.962 57.347C136.941 57.7649 136.804 58.1683 136.567 58.5109C136.248 58.9733 136.993 59.41 137.312 58.9527C137.596 58.5211 137.769 58.0235 137.813 57.5061C137.857 56.9888 137.772 56.4685 137.565 55.9935C137.361 55.497 137.028 55.0657 136.602 54.7451C136.096 54.3701 135.432 54.3341 135.082 53.7638C134.809 53.2259 134.402 52.7693 133.902 52.4388C133.402 52.1083 132.826 51.9151 132.23 51.8783C131.619 51.8702 131.018 52.034 130.493 52.3514C129.968 52.6688 129.54 53.1274 129.256 53.6765L129.935 53.5891C129.368 52.9778 128.679 52.3048 127.792 52.2996C127.437 52.2818 127.087 52.3871 126.798 52.5981C126.51 52.8091 126.301 53.1134 126.206 53.4607C126.09 54.0104 126.921 54.2468 127.037 53.697H127.063Z" fill="black"/>
<path d="M65.2621 35.3711C65.8611 35.9998 66.6694 36.3722 67.4631 35.8547C68.2568 35.3372 68.6172 34.4038 68.9727 33.6107H68.2568C68.7681 34.7665 69.2308 36.556 70.5115 37.1073C70.7294 37.2112 70.9687 37.2631 71.2104 37.259C71.4521 37.2548 71.6895 37.1947 71.9037 37.0834C72.1179 36.9721 72.303 36.8127 72.4442 36.6179C72.5855 36.423 72.679 36.1981 72.7173 35.9611L71.9041 36.0675C72.3911 37.3491 72.9949 38.2535 74.3681 38.7033C75.527 39.0853 76.9879 38.2196 77.4602 37.1363C77.6647 36.6527 76.9733 36.2319 76.7444 36.7204C76.5328 37.1253 76.2082 37.4611 75.8095 37.6876C75.6175 37.843 75.3845 37.9402 75.1384 37.9676C74.8924 37.995 74.6435 37.9516 74.4216 37.8424C73.4477 37.4748 73.0631 36.7591 72.7027 35.8402C72.6763 35.7439 72.6154 35.6604 72.5315 35.6054C72.4477 35.5504 72.3465 35.5275 72.2469 35.5412C72.1474 35.5548 72.0562 35.6039 71.9904 35.6794C71.9246 35.7549 71.8888 35.8516 71.8895 35.9514C71.8554 36.2996 71.4026 36.4351 71.1055 36.4109C70.8972 36.3677 70.7013 36.2782 70.5327 36.1492C70.364 36.0203 70.2269 35.8551 70.1316 35.6661C69.6813 34.8708 69.2954 34.0412 68.9776 33.1851C68.9411 33.1228 68.8889 33.0712 68.8261 33.0353C68.7633 32.9994 68.6921 32.9805 68.6196 32.9805C68.5471 32.9805 68.476 32.9994 68.4131 33.0353C68.3503 33.0712 68.2981 33.1228 68.2617 33.1851C68.0342 33.7714 67.7279 34.3245 67.3511 34.8294C66.8642 35.4436 66.3772 35.3566 65.8513 34.7956C65.4861 34.4135 64.8774 34.9938 65.267 35.3807L65.2621 35.3711Z" fill="black"/>
<path d="M15.7611 64.1769C15.7046 64.4313 15.7024 64.6948 15.7547 64.95C15.807 65.2053 15.9125 65.4464 16.0643 65.6573C16.2161 65.8682 16.4106 66.0441 16.635 66.1733C16.8594 66.3024 17.1085 66.3819 17.3657 66.4065C17.6228 66.431 17.8823 66.4 18.1267 66.3156C18.3711 66.2312 18.5949 66.0952 18.7831 65.9167C18.9714 65.7383 19.1199 65.5214 19.2187 65.2806C19.3175 65.0397 19.3643 64.7804 19.356 64.5199L18.721 64.8932C19.0721 65.2141 19.4886 65.4536 19.9412 65.5947C20.3938 65.7359 20.8716 65.7754 21.341 65.7104C21.7282 65.6305 22.0809 65.4305 22.3499 65.1384C22.6188 64.8462 22.7905 64.4766 22.8409 64.0811L22.2009 64.4493C22.7709 64.7217 23.5959 65.1353 24.2509 65.0042C24.5032 64.9559 24.7315 64.822 24.8979 64.6247C25.0644 64.4275 25.1589 64.1787 25.1659 63.9197C25.1659 63.3699 24.3359 63.3699 24.3159 63.9197C24.2959 64.4695 22.8159 63.8138 22.6259 63.7078C22.561 63.6723 22.4882 63.6542 22.4143 63.6554C22.3405 63.6565 22.2682 63.6768 22.2044 63.7143C22.1406 63.7518 22.0874 63.8053 22.05 63.8695C22.0127 63.9337 21.9923 64.0066 21.9909 64.0811C21.927 64.323 21.7842 64.5362 21.5856 64.6862C21.387 64.8363 21.144 64.9145 20.896 64.9083C20.2478 64.8621 19.6344 64.5954 19.156 64.1517C18.891 63.9449 18.521 64.2274 18.516 64.5199C18.5162 64.6612 18.4879 64.801 18.4327 64.9308C18.3776 65.0607 18.2968 65.1778 18.1952 65.275C18.0937 65.3723 17.9735 65.4476 17.8421 65.4965C17.7108 65.5453 17.5709 65.5666 17.4311 65.559C17.172 65.5098 16.9412 65.3631 16.7853 65.1486C16.6293 64.9342 16.5599 64.668 16.5911 64.4039C16.6761 63.8642 15.8561 63.6322 15.7711 64.1769H15.7611Z" fill="black"/>
<path d="M138.509 75.9032C138.566 75.6496 138.565 75.3875 138.507 75.1341C138.449 74.8806 138.334 74.6416 138.171 74.4327C138.007 74.2238 137.798 74.0498 137.558 73.9219C137.317 73.7941 137.051 73.7154 136.776 73.6911C136.501 73.6667 136.223 73.6972 135.961 73.7805C135.7 73.8638 135.46 73.9981 135.257 74.1746C135.055 74.3511 134.895 74.5657 134.787 74.8044C134.679 75.0431 134.626 75.3005 134.632 75.5597L135.321 75.1909C134.524 74.6151 133.528 74.1503 132.5 74.3726C132.082 74.4512 131.701 74.651 131.412 74.9438C131.122 75.2367 130.937 75.6077 130.885 76.0043L131.574 75.6355C130.96 75.3577 130.066 74.9434 129.361 75.0748C129.09 75.124 128.844 75.2583 128.665 75.4557C128.486 75.6531 128.384 75.9018 128.376 76.1609C128.376 76.2747 128.424 76.384 128.51 76.4645C128.596 76.545 128.712 76.5902 128.833 76.5902C128.955 76.5902 129.071 76.545 129.157 76.4645C129.243 76.384 129.291 76.2747 129.291 76.1609C129.291 75.5597 130.906 76.272 131.111 76.373C131.18 76.4096 131.259 76.4287 131.339 76.4284C131.419 76.4281 131.497 76.4085 131.566 76.3714C131.636 76.3343 131.694 76.281 131.735 76.2166C131.776 76.1523 131.798 76.0791 131.8 76.0043C131.868 75.7624 132.021 75.5489 132.234 75.3979C132.447 75.2468 132.707 75.1669 132.974 75.1708C133.673 75.2156 134.335 75.485 134.847 75.9335C135.138 76.1406 135.537 75.8527 135.537 75.5597C135.526 75.4199 135.547 75.2796 135.599 75.1481C135.651 75.0166 135.732 74.897 135.837 74.7973C135.942 74.6976 136.069 74.6201 136.208 74.57C136.348 74.5198 136.497 74.4982 136.646 74.5066C136.795 74.5149 136.941 74.553 137.073 74.6183C137.205 74.6837 137.321 74.7747 137.413 74.8854C137.504 74.9961 137.57 75.1239 137.605 75.2602C137.64 75.3965 137.643 75.5382 137.615 75.6759C137.518 76.2164 138.401 76.4488 138.498 75.9032H138.509Z" fill="black"/>
<path d="M138 109.5C147 110.833 166.9 106.5 174.5 78.5" stroke="black"/>
<path d="M9 108C3.16667 114.333 3.8 126.2 53 123" stroke="black"/>
<path d="M65.2819 130V116H85.2819V130C77.2819 134.8 68.6152 132 65.2819 130Z" fill="black" stroke="black"/>
<path d="M65 117.5C62 115.167 55.4 113.2 57 118C58.6 122.8 64.3333 125.5 66 126" stroke="black"/>
<path d="M96 139.5V165.5L119 153V165.5" stroke="black" stroke-linejoin="round"/>
<path d="M115 172L119 165.5V172H115Z" fill="black" stroke="black" stroke-linejoin="round"/>
<path d="M46 185L54 189.5H46V185Z" fill="black" stroke="black" stroke-linejoin="round"/>
</svg>
