<svg width="54" height="53" viewBox="0 0 54 53" fill="none" xmlns="http://www.w3.org/2000/svg">
<path d="M0.853305 34.4585C-0.192039 31.8433 -0.0498279 27.9279 0.114546 23.7595C0.240135 20.4221 0.0591431 16.5658 2.00023 13.1712C3.5978 10.3787 6.71906 8.40435 10.1266 6.09019C13.8573 3.54886 17.2648 1.04262 20.99 0.290929C25.2619 -0.569725 29.3971 0.660309 33.1999 1.62993C37.3554 2.69559 41.5571 3.78526 44.5361 6.35798C46.5954 8.13655 47.4007 10.7388 48.6289 12.6744C50.1064 14.9978 52.0068 16.9222 52.6052 19.0665C53.4677 22.16 52.5665 24.9599 52.487 26.576C52.4242 27.806 53.2258 29.531 52.8564 31.1821C52.5332 32.6449 51.1 33.8749 50.6235 35.2453C50.0288 36.9537 50.2541 38.9391 49.5652 39.7979C48.8394 40.7011 47.2696 41.0612 46.5086 42.0604C45.7477 43.0595 45.792 44.7033 44.9923 45.5695C44.0966 46.5409 42.523 46.552 41.5479 47.0913C40.5727 47.6306 37.1892 50.063 32.4002 50.8442C29.4008 51.3392 25.9527 50.5321 22.51 50.1276C19.3094 49.7582 15.7541 49.7915 12.8489 48C10.9097 46.8051 9.9068 44.7698 8.55302 43.6302C6.70613 42.0733 4.58773 41.3198 3.59964 40.0122C1.18759 36.8318 1.64008 37.3766 0.853305 34.4585Z" fill="#FAF331"/>
<path d="M31.5765 25.4182C31.5765 25.4182 29.4765 20.9672 27.2086 25.4182" stroke="black" stroke-width="0.5" stroke-miterlimit="10"/>
<path d="M25.2065 25.4182C25.2065 25.4182 23.1066 20.9672 20.8386 25.4182" stroke="black" stroke-width="0.5" stroke-miterlimit="10"/>
<path d="M37.1098 12.6596C37.1013 12.8545 37.1568 13.0468 37.2679 13.2072C37.3789 13.3676 37.5394 13.4873 37.7248 13.548C38.1846 13.6846 38.6926 13.3854 39.0287 13.0955L38.7664 12.9422C38.7278 13.1596 38.7728 13.3835 38.8923 13.5691C39.0119 13.7548 39.1971 13.8884 39.411 13.9432C39.6333 13.99 39.8651 13.9504 40.0592 13.8324C40.1465 13.7759 40.2239 13.7054 40.2883 13.6237C40.3954 13.4963 40.412 13.5369 40.5524 13.5867C40.9624 13.7327 41.4186 13.4722 41.6162 13.1103C41.8877 12.6116 41.6901 12.0169 41.4315 11.557C41.3336 11.3816 41.0621 11.5404 41.16 11.7158C41.3447 12.0649 41.5423 12.5285 41.3576 12.92C41.2802 13.0847 41.1428 13.2135 40.9735 13.2802C40.7888 13.3503 40.6743 13.2802 40.5025 13.2211C40.1627 13.1084 40.0556 13.524 39.7804 13.6181C39.6924 13.6451 39.5991 13.6498 39.5089 13.6317C39.4187 13.6136 39.3344 13.5733 39.2637 13.5144C39.1929 13.4556 39.1379 13.3801 39.1037 13.2947C39.0694 13.2093 39.057 13.1167 39.0675 13.0253C39.0753 12.992 39.0722 12.957 39.0586 12.9257C39.0449 12.8943 39.0216 12.8681 38.9919 12.8511C38.9622 12.8341 38.9278 12.8271 38.8938 12.8312C38.8599 12.8353 38.8282 12.8503 38.8034 12.8739C38.5725 13.0752 38.192 13.319 37.8688 13.2599C37.7343 13.2308 37.6149 13.1539 37.5328 13.0436C37.4506 12.9332 37.4112 12.7968 37.4219 12.6596C37.4219 12.618 37.4053 12.578 37.3759 12.5486C37.3465 12.5192 37.3065 12.5026 37.2649 12.5026C37.2233 12.5026 37.1833 12.5192 37.1539 12.5486C37.1245 12.578 37.1079 12.618 37.1079 12.6596H37.1098Z" fill="black"/>
<path d="M28.6085 5.03931C28.5183 5.21455 28.4838 5.41314 28.5095 5.60852C28.5353 5.80391 28.62 5.98678 28.7525 6.13268C28.8907 6.27621 29.0724 6.37012 29.2695 6.39984C29.4665 6.42956 29.6678 6.39343 29.8422 6.29705C30.0442 6.19295 30.2007 6.01803 30.2818 5.80577C30.2909 5.76688 30.2846 5.72597 30.2643 5.69157C30.244 5.65717 30.2112 5.63192 30.1728 5.62108C30.134 5.61332 30.0937 5.62015 30.0596 5.64025C30.0255 5.66036 30.0001 5.69233 29.9881 5.73005C29.921 5.87821 29.7993 5.9947 29.6483 6.05511C29.5714 6.08888 29.4884 6.10633 29.4045 6.10633C29.3206 6.10633 29.2375 6.08888 29.1607 6.05511C29.0874 6.01701 29.0224 5.96474 28.9695 5.90133C28.9165 5.83792 28.8767 5.76464 28.8523 5.68573C28.8256 5.60805 28.815 5.52578 28.821 5.44388C28.827 5.36199 28.8496 5.28216 28.8873 5.20923C28.9852 5.02454 28.7137 4.87309 28.6177 5.05039L28.6085 5.03931Z" fill="black"/>
<path d="M45.659 19.3343C45.6714 19.2983 45.6909 19.2652 45.7163 19.2369C45.7418 19.2087 45.7727 19.1858 45.8072 19.1698C45.8417 19.1538 45.879 19.1448 45.9171 19.1436C45.9551 19.1424 45.993 19.1488 46.0284 19.1625C46.2086 19.2402 46.3662 19.3622 46.4865 19.5171C46.5034 19.534 46.524 19.5467 46.5466 19.5544C46.5692 19.562 46.5933 19.5645 46.6169 19.5614C46.6406 19.5584 46.6633 19.55 46.6832 19.5369C46.7032 19.5238 46.7199 19.5063 46.7321 19.4857C46.8142 19.3214 46.9454 19.1866 47.1076 19.1002C47.2698 19.0139 47.4548 18.9801 47.6371 19.0037C47.8263 19.0332 48.001 19.1225 48.1357 19.2586C48.2576 19.3842 48.3204 19.5559 48.4349 19.6797C48.5647 19.7793 48.7101 19.8567 48.8653 19.9087C48.9944 19.9785 49.0999 20.0852 49.1682 20.2153C49.2412 20.3468 49.2758 20.4962 49.268 20.6464C49.2601 20.7967 49.2102 20.9417 49.1238 21.0648C49.0075 21.2311 49.279 21.388 49.3953 21.2237C49.4991 21.0685 49.5619 20.8896 49.5781 20.7036C49.5942 20.5176 49.5631 20.3306 49.4877 20.1599C49.4133 19.9814 49.292 19.8263 49.1367 19.7111C48.9521 19.5762 48.7101 19.5633 48.5827 19.3583C48.4829 19.1649 48.3346 19.0008 48.1524 18.882C47.9701 18.7631 47.7601 18.6937 47.5429 18.6805C47.3201 18.6776 47.1009 18.7364 46.9095 18.8506C46.7181 18.9647 46.5621 19.1295 46.4587 19.3269L46.7062 19.2955C46.4994 19.0757 46.2482 18.8338 45.925 18.8319C45.7956 18.8255 45.6678 18.8634 45.5627 18.9392C45.4577 19.0151 45.3816 19.1245 45.3469 19.2493C45.3044 19.447 45.6073 19.5319 45.6498 19.3343H45.659Z" fill="black"/>
<path d="M23.1933 12.643C23.4205 12.8831 23.7271 13.0253 24.0281 12.8277C24.3292 12.6301 24.4659 12.2736 24.6007 11.9707H24.3292C24.5231 12.4121 24.6986 13.0955 25.1843 13.306C25.267 13.3457 25.3577 13.3655 25.4494 13.3639C25.5411 13.3624 25.6311 13.3394 25.7124 13.2969C25.7936 13.2544 25.8638 13.1935 25.9174 13.1191C25.9709 13.0447 26.0064 12.9588 26.0209 12.8683L25.7125 12.9089C25.8972 13.3984 26.1262 13.7437 26.647 13.9155C27.0866 14.0614 27.6407 13.7308 27.8198 13.3171C27.8974 13.1324 27.6351 12.9717 27.5483 13.1583C27.4681 13.3129 27.345 13.4411 27.1937 13.5276C27.1209 13.587 27.0326 13.6241 26.9392 13.6345C26.8459 13.645 26.7515 13.6284 26.6673 13.5867C26.298 13.4464 26.1521 13.173 26.0154 12.8221C26.0054 12.7853 25.9823 12.7535 25.9505 12.7325C25.9187 12.7114 25.8803 12.7027 25.8425 12.7079C25.8048 12.7131 25.7702 12.7319 25.7452 12.7607C25.7203 12.7896 25.7067 12.8265 25.707 12.8646C25.694 12.9976 25.5223 13.0493 25.4096 13.0401C25.3306 13.0236 25.2563 12.9894 25.1924 12.9401C25.1284 12.8909 25.0764 12.8278 25.0402 12.7556C24.8694 12.4519 24.7231 12.1351 24.6025 11.8082C24.5887 11.7844 24.5689 11.7647 24.5451 11.751C24.5213 11.7373 24.4943 11.73 24.4668 11.73C24.4393 11.73 24.4123 11.7373 24.3885 11.751C24.3646 11.7647 24.3448 11.7844 24.331 11.8082C24.2447 12.0321 24.1285 12.2433 23.9857 12.4361C23.801 12.6707 23.6163 12.6374 23.4168 12.4232C23.2783 12.2773 23.0474 12.4989 23.1952 12.6467L23.1933 12.643Z" fill="black"/>
<path d="M5.18614 23.0484C5.16527 23.1415 5.16446 23.238 5.18376 23.3315C5.20307 23.4249 5.24206 23.5132 5.29812 23.5904C5.35419 23.6676 5.42605 23.732 5.50893 23.7793C5.59182 23.8266 5.68383 23.8557 5.77883 23.8647C5.87384 23.8737 5.96967 23.8624 6.05995 23.8315C6.15023 23.8005 6.23289 23.7507 6.30244 23.6854C6.37199 23.6201 6.42684 23.5407 6.46332 23.4525C6.49981 23.3643 6.51711 23.2694 6.51406 23.174L6.2795 23.3107C6.40919 23.4282 6.56303 23.5158 6.73022 23.5675C6.89742 23.6192 7.0739 23.6337 7.24728 23.6099C7.3903 23.5806 7.52061 23.5074 7.61996 23.4004C7.71931 23.2935 7.78273 23.1581 7.80134 23.0133L7.56495 23.1481C7.77549 23.2479 8.08023 23.3993 8.32217 23.3513C8.41537 23.3336 8.49971 23.2846 8.56119 23.2124C8.62268 23.1401 8.6576 23.049 8.66016 22.9542C8.66016 22.7529 8.35357 22.7529 8.34618 22.9542C8.33879 23.1555 7.79211 22.9154 7.72193 22.8766C7.69796 22.8636 7.67104 22.857 7.64377 22.8574C7.61649 22.8578 7.58978 22.8653 7.56621 22.879C7.54264 22.8927 7.52301 22.9123 7.5092 22.9358C7.4954 22.9594 7.48787 22.986 7.48737 23.0133C7.46376 23.1019 7.41102 23.1799 7.33765 23.2349C7.26427 23.2898 7.17454 23.3185 7.0829 23.3162C6.84347 23.2993 6.61688 23.2016 6.44018 23.0392C6.3423 22.9634 6.20562 23.0669 6.20377 23.174C6.20385 23.2257 6.19338 23.2769 6.173 23.3244C6.15262 23.372 6.12277 23.4149 6.08526 23.4505C6.04776 23.4861 6.00337 23.5137 5.95484 23.5315C5.90631 23.5494 5.85465 23.5572 5.803 23.5544C5.70731 23.5364 5.62204 23.4827 5.56444 23.4042C5.50684 23.3257 5.4812 23.2282 5.49272 23.1315C5.52412 22.9339 5.22123 22.8489 5.18983 23.0484H5.18614Z" fill="black"/>
<path d="M49.7906 27.4422C49.8102 27.3495 49.8101 27.2536 49.7901 27.161C49.7701 27.0683 49.7308 26.9809 49.6746 26.9046C49.6185 26.8282 49.5469 26.7646 49.4644 26.7178C49.3819 26.6711 49.2905 26.6423 49.1961 26.6334C49.1018 26.6245 49.0066 26.6356 48.9168 26.6661C48.8271 26.6966 48.7448 26.7457 48.6753 26.8102C48.6059 26.8747 48.5509 26.9532 48.5139 27.0405C48.4769 27.1277 48.4588 27.2218 48.4608 27.3166L48.6972 27.1818C48.4239 26.9712 48.0822 26.8013 47.7294 26.8826C47.5862 26.9113 47.4556 26.9844 47.3561 27.0914C47.2567 27.1985 47.1934 27.3341 47.1754 27.4791L47.4118 27.3443C47.2012 27.2427 46.8946 27.0913 46.6527 27.1393C46.5596 27.1573 46.4755 27.2064 46.4141 27.2786C46.3526 27.3507 46.3176 27.4417 46.3147 27.5364C46.3147 27.578 46.3312 27.618 46.3607 27.6474C46.3901 27.6768 46.43 27.6934 46.4717 27.6934C46.5133 27.6934 46.5533 27.6768 46.5827 27.6474C46.6121 27.618 46.6287 27.578 46.6287 27.5364C46.6287 27.3166 47.1828 27.577 47.2529 27.614C47.2768 27.6273 47.3038 27.6343 47.3312 27.6342C47.3586 27.6341 47.3854 27.6269 47.4092 27.6134C47.433 27.5998 47.4529 27.5803 47.4669 27.5568C47.481 27.5333 47.4887 27.5065 47.4893 27.4791C47.5128 27.3907 47.5652 27.3127 47.6382 27.2574C47.7111 27.2022 47.8005 27.173 47.892 27.1744C48.1319 27.1908 48.3588 27.2893 48.5347 27.4533C48.6344 27.529 48.7711 27.4237 48.7711 27.3166C48.7674 27.2655 48.7748 27.2142 48.7925 27.1661C48.8103 27.118 48.8382 27.0743 48.8742 27.0379C48.9102 27.0014 48.9536 26.9731 49.0015 26.9548C49.0494 26.9364 49.1006 26.9285 49.1517 26.9316C49.2029 26.9346 49.2528 26.9485 49.2982 26.9724C49.3435 26.9963 49.3832 27.0296 49.4147 27.0701C49.4461 27.1105 49.4686 27.1573 49.4805 27.2071C49.4925 27.2569 49.4937 27.3088 49.484 27.3591C49.4507 27.5567 49.7536 27.6417 49.7869 27.4422H49.7906Z" fill="black"/>
<path d="M13 28C13.5 30 17 33.9 27 33.5C37 33.1 39.1667 29.6667 39 28" stroke="black" stroke-width="0.5"/>
<path d="M12.8321 28.4627C13.844 28.4627 14.6642 28.1353 14.6642 27.7314C14.6642 27.3274 13.844 27 12.8321 27C11.8203 27 11 27.3274 11 27.7314C11 28.1353 11.8203 28.4627 12.8321 28.4627Z" fill="#FFA4BA"/>
<path d="M38.8321 28.4627C39.844 28.4627 40.6642 28.1353 40.6642 27.7314C40.6642 27.3274 39.844 27 38.8321 27C37.8203 27 37 27.3274 37 27.7314C37 28.1353 37.8203 28.4627 38.8321 28.4627Z" fill="#FFA4BA"/>
<path d="M53 30C55.3333 35.8333 52.1 47.2 24.5 50" stroke="black" stroke-width="0.5"/>
<path d="M3 36.5C-1 38.8333 4 53 39 42" stroke="black" stroke-width="0.5"/>
<path d="M40.4741 39.2824L38 42.4649L42.2423 41.0497L40.4741 39.2824Z" fill="black"/>
<path d="M38 42.4649L37.8026 42.3115C37.735 42.3985 37.7323 42.5195 37.7959 42.6094C37.8596 42.6993 37.9746 42.737 38.0791 42.7021L38 42.4649ZM40.4741 39.2824L40.6508 39.1055L40.4505 38.9053L40.2767 39.1289L40.4741 39.2824ZM42.2423 41.0497L42.3214 41.2869L42.7051 41.1589L42.419 40.8729L42.2423 41.0497ZM38.1974 42.6184L40.6715 39.4358L40.2767 39.1289L37.8026 42.3115L38.1974 42.6184ZM40.2974 39.4592L42.0656 41.2265L42.419 40.8729L40.6508 39.1055L40.2974 39.4592ZM42.1632 40.8126L37.9209 42.2278L38.0791 42.7021L42.3214 41.2869L42.1632 40.8126Z" fill="black"/>
<path d="M21.7392 47.9875L25.2066 50.0436L20.7407 50.2794L21.7392 47.9875Z" fill="black"/>
<path d="M25.2066 50.0436L25.3341 49.8286C25.4288 49.8847 25.4756 49.9963 25.4493 50.1033C25.423 50.2103 25.3298 50.2874 25.2197 50.2932L25.2066 50.0436ZM21.7392 47.9875L21.51 47.8877L21.6231 47.628L21.8667 47.7725L21.7392 47.9875ZM20.7407 50.2794L20.7538 50.5291L20.3499 50.5504L20.5115 50.1796L20.7407 50.2794ZM25.0791 50.2586L21.6117 48.2026L21.8667 47.7725L25.3341 49.8286L25.0791 50.2586ZM21.9684 48.0874L20.9698 50.3793L20.5115 50.1796L21.51 47.8877L21.9684 48.0874ZM20.7275 50.0298L25.1934 49.7939L25.2197 50.2932L20.7538 50.5291L20.7275 50.0298Z" fill="black"/>
</svg>
