<svg width="78" height="76" viewBox="0 0 78 76" fill="none" xmlns="http://www.w3.org/2000/svg">
<g clip-path="url(#clip0_69_4015)">
<path d="M74.32 38C74.32 38.7396 73.9952 39.5857 73.305 40.9046C73.2214 41.0644 73.1293 41.2358 73.0318 41.4175C72.4479 42.5052 71.6677 43.9583 71.3313 45.4499C70.996 46.9362 71.0666 48.59 71.1197 49.8338C71.1284 50.0389 71.1367 50.2328 71.1426 50.4131C71.1921 51.9256 71.1166 52.8146 70.8178 53.4349C70.5205 54.052 69.8786 54.6569 68.6649 55.5567C68.5232 55.6617 68.3699 55.7731 68.2079 55.8909C67.1988 56.624 65.8528 57.6021 64.8879 58.8083C63.9187 60.0197 63.2652 61.5504 62.7765 62.6951C62.6988 62.8771 62.6253 63.0493 62.5553 63.2089C61.9521 64.585 61.505 65.35 60.9572 65.7887C60.412 66.2254 59.5754 66.4916 58.1063 66.7736C57.9329 66.8068 57.7461 66.8408 57.5485 66.8767C56.3275 67.0986 54.6967 67.3949 53.2982 68.0662C51.8941 68.7402 50.6456 69.8337 49.7133 70.6503C49.5631 70.7819 49.421 70.9063 49.2879 71.0206C48.1578 71.9907 47.4248 72.4834 46.7264 72.6421C46.0309 72.8 45.1734 72.6728 43.7417 72.2846C43.5776 72.2401 43.4021 72.1908 43.2167 72.1386C42.0199 71.802 40.4129 71.35 38.82 71.35C37.2276 71.35 35.6083 71.7954 34.3966 72.1287C34.2152 72.1786 34.0429 72.226 33.8812 72.269C32.4206 72.6575 31.5727 72.7796 30.9241 72.6322C30.2713 72.4838 29.533 71.9929 28.371 71.0059C28.2348 70.8902 28.0896 70.7644 27.9362 70.6316C26.9904 69.8126 25.7341 68.7249 24.3587 68.0595C22.9744 67.3899 21.3376 67.0894 20.1113 66.8644C19.9143 66.8282 19.728 66.794 19.5549 66.7605C18.0692 66.4731 17.2253 66.2042 16.6906 65.7769C16.1545 65.3486 15.7086 64.5891 15.099 63.2056C15.0293 63.0474 14.956 62.877 14.8788 62.6972C14.3849 61.5479 13.7255 60.0135 12.7513 58.7972C11.7831 57.5884 10.4464 56.6167 9.44374 55.8879C9.28227 55.7705 9.12946 55.6594 8.98825 55.5547C7.79077 54.6663 7.14128 54.0581 6.82677 53.4136C6.52003 52.785 6.44778 51.9194 6.50212 50.4272C6.50841 50.2542 6.51698 50.0684 6.52604 49.872C6.58333 48.6295 6.66019 46.9627 6.306 45.4278C5.95599 43.9111 5.17716 42.4646 4.59385 41.3813C4.49699 41.2014 4.40552 41.0315 4.3223 40.873C3.64002 39.5733 3.32001 38.7416 3.32001 37.99C3.32001 37.2403 3.64547 36.3956 4.33368 35.0843C4.41703 34.9254 4.50883 34.755 4.60613 34.5743C5.19029 33.4895 5.97231 32.0373 6.3092 30.5381C6.64325 29.0516 6.57558 27.3997 6.52461 26.1554C6.51617 25.9495 6.50819 25.7547 6.50257 25.5736C6.45555 24.0603 6.53273 23.1743 6.83053 22.5587C7.1287 21.9423 7.77138 21.3363 8.98351 20.4345C9.12466 20.3295 9.27727 20.2182 9.43843 20.1007C10.4462 19.3656 11.7883 18.3866 12.7522 17.1817C13.7195 15.9726 14.3746 14.4447 14.8652 13.3005C14.9435 13.1178 15.0176 12.9449 15.0882 12.7846C15.6938 11.4087 16.1433 10.6415 16.6928 10.2013C17.2381 9.76461 18.0746 9.49837 19.5437 9.21645C19.7171 9.18317 19.9039 9.14922 20.1015 9.11331C21.3225 8.89144 22.9533 8.59509 24.3518 7.92381C25.756 7.24982 27.0045 6.15628 27.9368 5.3397C28.087 5.20812 28.229 5.08373 28.3621 4.96945C29.4923 3.99933 30.2252 3.50655 30.9237 3.34792C31.6217 3.18939 32.4815 3.31604 33.9105 3.70131C34.0755 3.7458 34.2521 3.79523 34.4387 3.84745C35.6328 4.18163 37.235 4.63 38.82 4.63C40.4059 4.63 42.0256 4.1855 43.2388 3.85256C43.4218 3.80234 43.5955 3.75466 43.7585 3.71142C45.2236 3.32278 46.0767 3.20027 46.726 3.34783C47.3776 3.49593 48.1127 3.98552 49.2742 4.97323C49.4088 5.08765 49.5521 5.21182 49.7033 5.34291C50.6502 6.16343 51.9098 7.25494 53.2949 7.92224C54.6808 8.58993 56.3148 8.89005 57.5402 9.11512C57.7378 9.15143 57.9248 9.18578 58.0984 9.2194C59.5817 9.50665 60.4241 9.77534 60.9594 10.2031C61.4952 10.6312 61.9413 11.3906 62.549 12.7726C62.6195 12.9328 62.6935 13.1055 62.7717 13.2879C63.2632 14.435 63.9189 15.9649 64.8843 17.1773C65.8531 18.3939 67.1967 19.3691 68.203 20.0995C68.3618 20.2147 68.5121 20.3238 68.6513 20.4268C69.8531 21.3165 70.5083 21.9262 70.8268 22.5737C71.134 23.198 71.2073 24.0594 71.1506 25.5486C71.1439 25.7247 71.1347 25.9143 71.125 26.115C71.0652 27.3536 70.985 29.0155 71.3321 30.5437C71.6785 32.0689 72.4608 33.5281 73.0467 34.6209C73.1413 34.7975 73.2308 34.9644 73.3126 35.1205C74.0008 36.4354 74.32 37.266 74.32 38Z" fill="#FAF331" stroke="black" stroke-width="5"/>
<path d="M76.82 38C76.82 40.83 74.37 43.34 73.77 46C73.17 48.66 74.26 52.05 73.07 54.52C71.88 56.99 68.56 58.22 66.84 60.37C65.12 62.52 64.68 66.01 62.52 67.74C60.36 69.47 56.88 69.12 54.38 70.32C51.88 71.52 50.01 74.46 47.28 75.08C44.55 75.7 41.65 73.85 38.82 73.85C35.99 73.85 33.01 75.67 30.37 75.07C27.73 74.47 25.73 71.5 23.27 70.31C20.81 69.12 17.27 69.44 15.13 67.73C12.99 66.02 12.53 62.52 10.8 60.36C9.07002 58.2 5.80002 57.01 4.58002 54.51C3.36002 52.01 4.50003 48.72 3.87003 45.99C3.24003 43.26 0.820007 40.84 0.820007 37.99C0.820007 35.14 3.27003 32.66 3.87003 29.99C4.47003 27.32 3.39002 23.93 4.58002 21.47C5.77002 19.01 9.08002 17.77 10.8 15.62C12.52 13.47 12.97 9.98 15.13 8.25C17.29 6.52 20.77 6.87 23.27 5.67C25.77 4.47 27.64 1.53 30.37 0.909997C33.1 0.289997 36 2.13 38.82 2.13C41.64 2.13 44.64 0.309997 47.28 0.909997C49.92 1.51 51.91 4.48 54.38 5.67C56.85 6.86 60.38 6.54 62.52 8.25C64.66 9.96 65.12 13.46 66.84 15.62C68.56 17.78 71.84 18.97 73.07 21.47C74.3 23.97 73.15 27.26 73.77 29.99C74.39 32.72 76.82 35.18 76.82 38Z" stroke="black" stroke-width="1.64" stroke-miterlimit="10"/>
<path d="M34 30C34 32.7628 32.4221 35 30.5 35C28.5778 35 27 32.7628 27 30" stroke="black" stroke-width="3" stroke-miterlimit="10"/>
<path d="M52 30C52 32.7628 50.4365 35 48.5 35C46.5635 35 45 32.7628 45 30" stroke="black" stroke-width="3" stroke-miterlimit="10"/>
<path d="M34 42C34 42 39.3762 71.25 45 42" stroke="black" stroke-width="3" stroke-miterlimit="10"/>
</g>
<defs>
<clipPath id="clip0_69_4015">
<rect width="77.65" height="76" fill="white"/>
</clipPath>
</defs>
</svg>
