<svg width="87" height="82" viewBox="0 0 87 82" fill="none" xmlns="http://www.w3.org/2000/svg">
<path d="M62.4555 29.6739C62.9081 32.4987 61.8914 36.3494 60.7776 40.4526C59.9054 43.7377 59.2319 47.5985 56.5618 50.5504C54.3413 52.9737 50.8552 54.2553 46.9959 55.807C42.7342 57.4982 38.8537 59.2489 35.021 59.1814C30.6279 59.1006 26.8308 56.9759 23.3088 55.1681C19.4663 53.1972 15.5726 51.1959 13.2176 47.9842C11.6121 45.7768 11.3761 43.0082 10.6028 40.8109C9.6718 38.1793 8.22725 35.8597 8.12143 33.5934C7.96359 30.331 9.47058 27.7503 9.90954 26.1618C10.2647 24.9591 9.84604 23.0641 10.5763 21.5084C11.2183 20.1243 12.9015 19.2149 13.6778 17.9617C14.6433 16.3994 14.863 14.3813 15.7343 13.6731C16.6056 12.9648 18.279 12.904 19.2131 12.0851C20.1471 11.2662 20.5065 9.61615 21.4774 8.95258C22.4484 8.28901 24.1264 8.5184 25.2065 8.19875C28.3362 6.9718 31.6737 6.38589 35.0234 6.47535C38.0883 6.62015 41.2875 8.19582 44.5927 9.36184C47.6549 10.4333 51.1614 11.1723 53.6216 13.5941C55.2609 15.2032 55.7935 17.4511 56.8694 18.8788C58.339 20.8332 60.2537 22.0448 60.9346 23.561C62.6552 27.2393 62.3401 26.5989 62.4555 29.6739Z" fill="white"/>
<path d="M62.4555 29.6739C62.9081 32.4987 61.8914 36.3494 60.7776 40.4526C59.9054 43.7377 59.2319 47.5985 56.5618 50.5504C54.3413 52.9737 50.8552 54.2553 46.9959 55.807C42.7342 57.4982 38.8537 59.2489 35.021 59.1814C30.6279 59.1006 26.8308 56.9759 23.3088 55.1681C19.4663 53.1972 15.5726 51.1959 13.2176 47.9842C11.6121 45.7768 11.3761 43.0082 10.6028 40.8109C9.6718 38.1793 8.22725 35.8597 8.12143 33.5934C7.96359 30.331 9.47058 27.7503 9.90954 26.1618C10.2647 24.9591 9.84604 23.0641 10.5763 21.5084C11.2183 20.1243 12.9015 19.2149 13.6778 17.9617C14.6433 16.3994 14.863 14.3813 15.7343 13.6731C16.6056 12.9648 18.279 12.904 19.2131 12.0851C20.1471 11.2662 20.5065 9.61615 21.4774 8.95258C22.4484 8.28901 24.1264 8.5184 25.2065 8.19875C28.3362 6.9718 31.6737 6.38589 35.0234 6.47535C38.0883 6.62015 41.2875 8.19582 44.5927 9.36184C47.6549 10.4333 51.1614 11.1723 53.6216 13.5941C55.2609 15.2032 55.7935 17.4511 56.8694 18.8788C58.339 20.8332 60.2537 22.0448 60.9346 23.561C62.6552 27.2393 62.3401 26.5989 62.4555 29.6739Z" stroke="black" stroke-miterlimit="10"/>
<path d="M21.2024 50.6329L35 30L64.4945 51.7296L21.2024 50.6329Z" fill="black"/>
<path d="M21.2024 50.6329L20.8907 50.4244L20.5122 50.9905L21.1929 51.0078L21.2024 50.6329ZM35 30L35.2224 29.6981L34.9064 29.4653L34.6883 29.7915L35 30ZM64.4945 51.7296L64.485 52.1045C64.6487 52.1086 64.7962 52.0061 64.8492 51.8512C64.9023 51.6963 64.8488 51.5248 64.7169 51.4277L64.4945 51.7296ZM21.5142 50.8414L35.3117 30.2085L34.6883 29.7915L20.8907 50.4244L21.5142 50.8414ZM34.7776 30.3019L64.2721 52.0315L64.7169 51.4277L35.2224 29.6981L34.7776 30.3019ZM64.504 51.3547L21.2119 50.258L21.1929 51.0078L64.485 52.1045L64.504 51.3547Z" fill="black"/>
<path d="M21 50.9624L21 30L29.7292 40.6443" stroke="black" stroke-miterlimit="10" stroke-linejoin="round"/>
<path d="M8.75146 29.8034C8.75146 29.8034 -16.356 63.3052 31.1584 47.5953" stroke="black" stroke-miterlimit="10"/>
<path d="M66.0231 46.5252L70.6622 35" stroke="black" stroke-miterlimit="10" stroke-linecap="round" stroke-linejoin="round"/>
<path d="M66.6805 49.6201L78.2421 48.5446" stroke="black" stroke-miterlimit="10" stroke-linecap="round" stroke-linejoin="round"/>
<path d="M20.8521 19.4796C20.8521 19.4796 22.5127 25.0938 27.8494 21.5458C27.8494 21.5458 31.1952 28.053 35.3866 23.7714" stroke="black" stroke-miterlimit="10"/>
<path d="M48.5208 36.7801C48.5208 36.7801 53.4968 32.5173 56.4179 39.112" stroke="black" stroke-miterlimit="10"/>
<path d="M43.5894 15.155C43.5894 15.155 45.1392 22.1126 51.168 17.3929" stroke="black" stroke-miterlimit="10"/>
<path d="M9.969 71.9129L10.2953 71.0271L12.142 71.7074L14.9351 64.1255L13.1935 63.4839L13.5198 62.5981L18.159 64.3071L17.8327 65.1929L15.986 64.5126L13.1874 72.1095L15.1242 72.823L14.8034 73.6938L9.969 71.9129Z" fill="black"/>
<path d="M18.0963 74.7156L19.8086 67.607L20.8975 67.8693L20.594 69.1292C20.8506 68.8838 21.1283 68.6874 21.4271 68.54C21.7285 68.3821 22.0433 68.2824 22.3715 68.2408C22.7022 68.1888 23.0283 68.2015 23.3497 68.2789C23.7438 68.3739 24.0726 68.5573 24.3363 68.8293C24.5999 69.1012 24.7726 69.4775 24.8544 69.958C24.9361 70.4385 24.8908 71.0365 24.7184 71.752L23.6805 76.0608L22.5917 75.7985L23.6221 71.5209C23.742 71.0231 23.7799 70.6153 23.7358 70.2975C23.6941 69.9693 23.5898 69.7192 23.4227 69.5473C23.2582 69.365 23.0515 69.2439 22.8026 69.184C22.5641 69.1265 22.3079 69.1197 22.034 69.1634C21.7705 69.2097 21.5113 69.3063 21.2565 69.4534C21.0041 69.5901 20.7781 69.777 20.5783 70.0142C20.3889 70.2538 20.253 70.5447 20.1706 70.8869L19.1851 74.9779L18.0963 74.7156Z" fill="black"/>
<path d="M28.9508 76.8923L26.99 69.2761L28.133 69.4198L29.7337 75.6685L29.5114 75.6405L31.1687 72.8495C31.4959 72.2994 31.7649 71.7849 31.9757 71.3062C32.197 70.8287 32.3713 70.383 32.4986 69.969L33.5781 70.1048C33.4375 70.5386 33.244 71.0088 32.9975 71.5153C32.7511 72.0219 32.4569 72.5654 32.1151 73.146L29.8398 77.0042L28.9508 76.8923Z" fill="black"/>
<path d="M35.5534 77.5111L35.5603 76.5831L37.4322 76.597L37.4727 71.1411L35.6967 71.128L35.7036 70.2L38.6315 70.2217L38.5842 76.6055L40.2962 76.6182L40.2893 77.5462L35.5534 77.5111ZM38.0029 68.681C37.7789 68.6793 37.5875 68.5979 37.4287 68.4367C37.2699 68.2756 37.1914 68.083 37.193 67.859C37.1948 67.6243 37.2709 67.4275 37.4214 67.2687C37.5826 67.1098 37.7805 67.0313 38.0152 67.033C38.2392 67.0347 38.4305 67.1215 38.5892 67.2933C38.7587 67.4546 38.8426 67.6472 38.841 67.8712C38.8393 68.0952 38.7526 68.2865 38.5807 68.4453C38.4195 68.6041 38.2269 68.6827 38.0029 68.681Z" fill="black"/>
<path d="M47.149 77.087C46.6832 77.1444 46.2923 77.112 45.9763 76.9897C45.6603 76.8674 45.4027 76.6519 45.2035 76.3433C45.003 76.0241 44.845 75.6137 44.7294 75.112C44.6245 74.6091 44.5396 74.0069 44.4747 73.3056L44.0276 68.1053L45.201 67.8157L45.3578 67.7802L45.3874 67.8894C45.3436 67.97 45.3051 68.05 45.2719 68.1293C45.2492 68.2074 45.2384 68.3377 45.2394 68.5202L45.3175 70.3323L45.4004 70.6123L45.6119 73.2461C45.6793 74.0546 45.7774 74.6766 45.9063 75.1122C46.0338 75.5371 46.2033 75.8225 46.4148 75.9684C46.6249 76.1037 46.8887 76.1519 47.2063 76.1127C47.5557 76.0697 47.8542 75.9631 48.102 75.7928C48.3603 75.6213 48.6246 75.4114 48.8949 75.1632L49.3558 76.0253C49.0284 76.3343 48.682 76.5758 48.3166 76.7498C47.9511 76.9238 47.5619 77.0362 47.149 77.087ZM42.6049 70.1667L47.8294 69.5231L47.9448 70.4601L42.7203 71.1036L42.6049 70.1667Z" fill="black"/>
<path d="M55.5276 75.4048C55.0141 75.5489 54.5252 75.603 54.0609 75.5671C53.5938 75.5209 53.1629 75.387 52.7683 75.1653C52.3841 74.9408 52.0464 74.6257 51.7552 74.2199C51.4613 73.8038 51.2321 73.3031 51.0679 72.7177C50.9007 72.1221 50.8345 71.5701 50.8691 71.0618C50.914 70.5507 51.0371 70.1007 51.2382 69.7119C51.4467 69.31 51.723 68.9721 52.0671 68.6983C52.4216 68.4216 52.8196 68.2213 53.2612 68.0974C53.6617 67.985 54.0553 67.9466 54.442 67.9821C54.8286 68.0176 55.1892 68.138 55.5238 68.3433C55.8554 68.5382 56.1522 68.8261 56.4142 69.2068C56.6864 69.5847 56.9032 70.0612 57.0645 70.6363C57.0876 70.7184 57.1069 70.8072 57.1226 70.9025C57.1457 70.9847 57.1636 71.0683 57.1764 71.1533L52.1697 72.5581C52.3171 73.0042 52.505 73.378 52.7336 73.6795C52.9594 73.9706 53.2103 74.1938 53.4865 74.349C53.7598 74.4939 54.0495 74.5787 54.3556 74.6036C54.672 74.6257 54.9894 74.592 55.3077 74.5027C55.5542 74.4335 55.7781 74.343 55.9794 74.2311C56.1777 74.109 56.3535 73.9655 56.5067 73.8007C56.6672 73.6227 56.8 73.4248 56.9051 73.2069L57.6899 73.6348C57.561 73.9258 57.3913 74.1895 57.1806 74.4258C56.9802 74.6593 56.7412 74.8538 56.4636 75.0092C56.1888 75.175 55.8768 75.3068 55.5276 75.4048ZM51.9739 71.6825L55.8405 70.5975C55.7483 70.2689 55.62 69.9891 55.4555 69.7583C55.2984 69.5144 55.1118 69.323 54.8956 69.1842C54.6868 69.0323 54.4565 68.9419 54.2046 68.9128C53.9601 68.8707 53.6992 68.8885 53.4219 68.9663C53.1754 69.0354 52.9508 69.1428 52.7479 69.2883C52.5552 69.431 52.3924 69.6207 52.2595 69.8575C52.1236 70.0839 52.0263 70.3494 51.9678 70.6539C51.9194 70.9555 51.9215 71.2983 51.9739 71.6825Z" fill="black"/>
</svg>
