<svg width="327" height="575" viewBox="0 0 327 575" fill="none" xmlns="http://www.w3.org/2000/svg">
<g clip-path="url(#clip0_4_382)">
<path d="M165.36 574.14C146.44 574.14 62.68 568.39 32.51 553.81C2.34 539.23 4.50999 506.81 1.86999 494.09C-0.770011 481.37 1.86999 218.26 1.86999 183.78C1.86999 149.3 22.7 100.78 36.72 86.73C50.74 72.68 47.42 50.98 47.42 50.98H279.42C279.42 50.98 276.1 72.69 290.12 86.73C304.14 100.77 324.97 149.3 324.97 183.78C324.97 218.26 327.57 481.32 324.97 494.09C322.37 506.86 324.5 539.23 294.33 553.81C264.16 568.39 180.4 574.14 161.48 574.14" fill="white"/>
<path d="M123.87 409.5V509.91H96.67" stroke="black" stroke-width="1.51" stroke-miterlimit="10"/>
<path d="M204.86 413.5L204.86 509.91H232.78" stroke="black" stroke-width="1.51" stroke-miterlimit="10"/>
<path d="M32.4033 347C32.4033 347 -5.51671 394 33.9533 420.7" stroke="black" stroke-width="1.51" stroke-miterlimit="10"/>
<path d="M290.829 347.275C290.829 347.275 326.736 402.329 284.862 425.063" stroke="black" stroke-width="1.51" stroke-miterlimit="10"/>
<path d="M103.15 510.69L88.57 502.86V510.69H103.15Z" fill="black"/>
<path d="M224.47 510.69L239.06 502.86V510.69H224.47Z" fill="black"/>
<path d="M25.13 327.1C19.47 312.94 20.24 291.74 21.13 269.17C21.81 251.1 20.8301 230.22 31.3401 211.84C39.9901 196.72 56.8901 186.03 75.3401 173.5C95.5401 159.74 113.99 146.17 134.16 142.1C157.29 137.44 179.68 144.1 200.27 149.35C222.77 155.12 245.52 161.02 261.65 174.95C272.8 184.58 277.16 198.67 283.81 209.15C291.81 221.73 302.1 232.15 305.34 243.76C310.01 260.51 305.13 275.67 304.7 284.42C304.36 291.08 308.7 300.42 306.7 309.36C304.95 317.28 297.19 323.94 294.61 331.36C291.39 340.61 292.61 351.36 288.88 356.01C284.95 360.9 276.45 362.85 272.33 368.26C268.21 373.67 268.45 382.57 264.12 387.26C259.27 392.52 250.75 392.58 245.47 395.5C240.19 398.42 221.87 411.59 195.94 415.82C179.7 418.5 161.03 414.13 142.39 411.94C125.06 409.94 105.81 410.12 90.08 400.42C79.58 393.95 74.15 382.93 66.82 376.76C56.82 368.33 45.35 364.25 40 357.17C26.94 339.95 29.39 342.9 25.13 327.1Z" fill="#FAF331"/>
<path d="M133.34 267.44C133.34 267.44 144.71 291.54 156.99 267.44" stroke="black" stroke-width="1.51" stroke-miterlimit="10"/>
<path d="M167.83 267.44C167.83 267.44 179.2 291.54 191.48 267.44" stroke="black" stroke-width="1.51" stroke-miterlimit="10"/>
<path d="M156.99 291.04C156.99 291.04 154.83 310.04 161.99 309.67C169.15 309.3 167.79 291.04 167.79 291.04" stroke="black" stroke-width="1.51" stroke-miterlimit="10"/>
<path d="M126.95 287.57C132.429 287.57 136.87 285.797 136.87 283.61C136.87 281.423 132.429 279.65 126.95 279.65C121.471 279.65 117.03 281.423 117.03 283.61C117.03 285.797 121.471 287.57 126.95 287.57Z" fill="#FFA4BA"/>
<path d="M194.96 287.57C200.439 287.57 204.88 285.797 204.88 283.61C204.88 281.423 200.439 279.65 194.96 279.65C189.481 279.65 185.04 281.423 185.04 283.61C185.04 285.797 189.481 287.57 194.96 287.57Z" fill="#FFA4BA"/>
<path d="M70.94 202.24C72.4643 202.684 74.0903 202.633 75.5836 202.093C77.0769 201.554 78.3607 200.555 79.25 199.24H77.79C78.475 200.782 79.6128 202.08 81.0523 202.96C82.4918 203.841 84.165 204.263 85.85 204.17C87.4669 204.015 89.0045 203.396 90.2769 202.386C91.5493 201.376 92.502 200.02 93.02 198.48C93.37 197.48 91.73 196.99 91.38 198.02C90.9718 199.285 90.1818 200.394 89.1186 201.192C88.0554 201.991 86.7711 202.441 85.442 202.48C84.1129 202.52 82.8042 202.147 81.6955 201.412C80.5868 200.678 79.7325 199.619 79.25 198.38C78.98 197.75 78.1 197.91 77.79 198.38C77.0961 199.381 76.1033 200.137 74.9537 200.539C73.8041 200.942 72.5567 200.97 71.39 200.62C71.1725 200.56 70.9402 200.589 70.7442 200.701C70.5483 200.813 70.4047 200.998 70.345 201.215C70.2853 201.432 70.3145 201.665 70.4261 201.861C70.5377 202.057 70.7225 202.2 70.94 202.26V202.24Z" fill="black"/>
<path d="M221.44 209.07C221.394 210.125 221.695 211.167 222.296 212.035C222.897 212.904 223.766 213.551 224.77 213.88C227.26 214.62 230.01 213 231.83 211.43L230.41 210.6C230.201 211.777 230.445 212.99 231.092 213.995C231.739 215 232.742 215.723 233.9 216.02C235.104 216.273 236.359 216.059 237.41 215.42C237.883 215.114 238.302 214.732 238.65 214.29C239.23 213.6 239.32 213.82 240.08 214.09C242.3 214.88 244.77 213.47 245.84 211.51C247.31 208.81 246.24 205.59 244.84 203.1C244.31 202.15 242.84 203.01 243.37 203.96C244.37 205.85 245.44 208.36 244.44 210.48C244.021 211.372 243.277 212.069 242.36 212.43C241.36 212.81 240.74 212.43 239.81 212.11C237.97 211.5 237.39 213.75 235.9 214.26C235.424 214.406 234.919 214.431 234.43 214.333C233.942 214.235 233.485 214.017 233.102 213.698C232.719 213.38 232.421 212.971 232.236 212.509C232.051 212.046 231.983 211.545 232.04 211.05C232.082 210.87 232.066 210.68 231.992 210.511C231.918 210.341 231.791 210.199 231.631 210.107C231.47 210.015 231.284 209.977 231.1 209.999C230.916 210.021 230.744 210.102 230.61 210.23C229.36 211.32 227.3 212.64 225.55 212.32C224.822 212.163 224.175 211.747 223.73 211.149C223.285 210.551 223.072 209.813 223.13 209.07C223.13 208.845 223.04 208.628 222.881 208.469C222.722 208.31 222.505 208.22 222.28 208.22C222.055 208.22 221.838 208.31 221.679 208.469C221.52 208.628 221.43 208.845 221.43 209.07H221.44Z" fill="black"/>
<path d="M175.41 167.81C174.922 168.759 174.735 169.834 174.874 170.892C175.014 171.95 175.473 172.94 176.19 173.73C176.938 174.507 177.922 175.016 178.989 175.177C180.056 175.338 181.146 175.142 182.09 174.62C183.184 174.056 184.031 173.109 184.47 171.96C184.519 171.749 184.485 171.528 184.376 171.342C184.266 171.155 184.088 171.019 183.88 170.96C183.67 170.918 183.452 170.955 183.267 171.064C183.083 171.173 182.945 171.346 182.88 171.55C182.517 172.352 181.858 172.983 181.04 173.31C180.624 173.493 180.174 173.587 179.72 173.587C179.266 173.587 178.816 173.493 178.4 173.31C178.003 173.104 177.651 172.821 177.365 172.477C177.078 172.134 176.862 171.737 176.73 171.31C176.586 170.889 176.528 170.444 176.561 170.001C176.593 169.557 176.716 169.125 176.92 168.73C177.45 167.73 175.98 166.91 175.46 167.87L175.41 167.81Z" fill="black"/>
<path d="M267.73 245.21C267.797 245.015 267.902 244.836 268.04 244.683C268.178 244.53 268.345 244.406 268.532 244.319C268.719 244.232 268.921 244.184 269.127 244.177C269.333 244.171 269.538 244.206 269.73 244.28C270.706 244.7 271.559 245.361 272.21 246.2C272.302 246.291 272.413 246.36 272.536 246.402C272.658 246.443 272.788 246.456 272.917 246.44C273.045 246.423 273.167 246.378 273.276 246.307C273.384 246.236 273.474 246.141 273.54 246.03C273.984 245.14 274.695 244.41 275.573 243.943C276.451 243.475 277.453 243.292 278.44 243.42C279.464 243.58 280.411 244.063 281.14 244.8C281.8 245.48 282.14 246.41 282.76 247.08C283.463 247.619 284.25 248.039 285.09 248.32C285.789 248.698 286.36 249.276 286.73 249.98C287.126 250.692 287.313 251.501 287.271 252.314C287.228 253.128 286.958 253.913 286.49 254.58C285.86 255.48 287.33 256.33 287.96 255.44C288.522 254.6 288.862 253.631 288.949 252.624C289.037 251.617 288.869 250.604 288.46 249.68C288.057 248.714 287.401 247.874 286.56 247.25C285.56 246.52 284.25 246.45 283.56 245.34C283.02 244.293 282.217 243.404 281.23 242.761C280.243 242.118 279.106 241.742 277.93 241.67C276.724 241.654 275.537 241.973 274.501 242.591C273.464 243.209 272.62 244.101 272.06 245.17L273.4 245C272.28 243.81 270.92 242.5 269.17 242.49C268.469 242.455 267.777 242.66 267.209 243.071C266.64 243.482 266.228 244.074 266.04 244.75C265.81 245.82 267.45 246.28 267.68 245.21H267.73Z" fill="black"/>
<path d="M146.09 208.98C147.32 210.28 148.98 211.05 150.61 209.98C152.24 208.91 152.98 206.98 153.71 205.34H152.24C153.29 207.73 154.24 211.43 156.87 212.57C157.318 212.785 157.809 212.892 158.305 212.884C158.802 212.875 159.289 212.751 159.729 212.521C160.169 212.291 160.549 211.961 160.839 211.558C161.129 211.155 161.321 210.69 161.4 210.2L159.73 210.42C160.73 213.07 161.97 214.94 164.79 215.87C167.17 216.66 170.17 214.87 171.14 212.63C171.56 211.63 170.14 210.76 169.67 211.77C169.235 212.607 168.569 213.302 167.75 213.77C167.356 214.091 166.877 214.292 166.372 214.349C165.867 214.406 165.356 214.316 164.9 214.09C162.9 213.33 162.11 211.85 161.37 209.95C161.316 209.751 161.191 209.578 161.018 209.465C160.846 209.351 160.638 209.304 160.434 209.332C160.23 209.36 160.042 209.461 159.907 209.618C159.772 209.774 159.698 209.974 159.7 210.18C159.63 210.9 158.7 211.18 158.09 211.13C157.662 211.041 157.26 210.856 156.914 210.589C156.567 210.322 156.286 209.981 156.09 209.59C155.165 207.946 154.373 206.23 153.72 204.46C153.645 204.331 153.538 204.224 153.409 204.15C153.28 204.076 153.134 204.037 152.985 204.037C152.836 204.037 152.69 204.076 152.561 204.15C152.432 204.224 152.325 204.331 152.25 204.46C151.783 205.672 151.154 206.816 150.38 207.86C149.38 209.13 148.38 208.95 147.3 207.79C146.55 207 145.3 208.2 146.1 209L146.09 208.98Z" fill="black"/>
<path d="M48.59 265.32C48.477 265.824 48.4726 266.347 48.5772 266.853C48.6817 267.359 48.8928 267.837 49.1964 268.255C49.4999 268.673 49.889 269.022 50.3378 269.278C50.7866 269.534 51.2847 269.691 51.7992 269.74C52.3136 269.789 52.8324 269.727 53.3212 269.56C53.8101 269.392 54.2577 269.123 54.6342 268.769C55.0108 268.415 55.3078 267.985 55.5053 267.508C55.7029 267.03 55.7965 266.516 55.78 266L54.51 266.74C55.2122 267.376 56.0452 267.851 56.9505 268.131C57.8557 268.411 58.8113 268.489 59.75 268.36C60.5245 268.202 61.23 267.805 61.7679 267.226C62.3058 266.647 62.6492 265.914 62.75 265.13L61.4701 265.86C62.6101 266.4 64.26 267.22 65.57 266.96C66.0746 266.864 66.5313 266.599 66.8642 266.208C67.1971 265.817 67.3862 265.323 67.4 264.81C67.4 263.72 65.74 263.72 65.7 264.81C65.66 265.9 62.7 264.6 62.32 264.39C62.1902 264.32 62.0445 264.284 61.8968 264.286C61.7491 264.288 61.6045 264.328 61.4769 264.403C61.3493 264.477 61.243 264.583 61.1682 264.711C61.0935 264.838 61.0527 264.982 61.05 265.13C60.9221 265.61 60.6366 266.032 60.2393 266.33C59.8421 266.627 59.3562 266.782 58.86 266.77C57.5636 266.678 56.3368 266.15 55.38 265.27C54.85 264.86 54.11 265.42 54.1 266C54.1004 266.28 54.0437 266.557 53.9334 266.815C53.823 267.072 53.6614 267.304 53.4583 267.497C53.2552 267.69 53.0149 267.839 52.7522 267.936C52.4894 268.033 52.2096 268.075 51.93 268.06C51.4119 267.962 50.9502 267.671 50.6383 267.246C50.3264 266.821 50.1877 266.294 50.25 265.77C50.42 264.7 48.78 264.24 48.61 265.32H48.59Z" fill="black"/>
<path d="M290.1 289.11C290.207 288.608 290.206 288.089 290.097 287.587C289.989 287.086 289.776 286.613 289.472 286.199C289.168 285.786 288.78 285.441 288.334 285.188C287.887 284.935 287.392 284.779 286.882 284.731C286.371 284.683 285.855 284.743 285.369 284.908C284.883 285.073 284.438 285.339 284.062 285.688C283.686 286.037 283.388 286.462 283.188 286.935C282.987 287.407 282.889 287.917 282.9 288.43L284.18 287.7C282.7 286.56 280.85 285.64 278.94 286.08C278.164 286.236 277.457 286.631 276.919 287.211C276.38 287.791 276.038 288.525 275.94 289.31L277.22 288.58C276.08 288.03 274.42 287.21 273.11 287.47C272.606 287.567 272.151 287.833 271.818 288.224C271.485 288.615 271.296 289.107 271.28 289.62C271.28 289.845 271.37 290.062 271.529 290.221C271.688 290.38 271.905 290.47 272.13 290.47C272.355 290.47 272.572 290.38 272.731 290.221C272.89 290.062 272.98 289.845 272.98 289.62C272.98 288.43 275.98 289.84 276.36 290.04C276.489 290.112 276.635 290.15 276.784 290.15C276.932 290.149 277.077 290.11 277.206 290.037C277.335 289.963 277.443 289.858 277.519 289.73C277.595 289.603 277.636 289.458 277.64 289.31C277.767 288.831 278.051 288.409 278.446 288.11C278.841 287.811 279.325 287.652 279.82 287.66C281.119 287.749 282.348 288.282 283.3 289.17C283.84 289.58 284.58 289.01 284.58 288.43C284.56 288.153 284.6 287.875 284.696 287.615C284.793 287.355 284.943 287.118 285.138 286.921C285.333 286.723 285.568 286.57 285.828 286.471C286.087 286.371 286.364 286.329 286.641 286.345C286.918 286.362 287.188 286.437 287.434 286.566C287.679 286.696 287.894 286.876 288.065 287.095C288.235 287.314 288.357 287.567 288.421 287.837C288.486 288.107 288.492 288.388 288.44 288.66C288.26 289.73 289.9 290.19 290.08 289.11H290.1Z" fill="black"/>
<path d="M48.88 50.98H32.09C32.09 50.98 30.69 42.52 40.49 43.66C50.29 44.8 48.88 28.27 48.88 28.27H278.75C278.75 28.27 277.34 44.8 287.14 43.66C296.94 42.52 295.54 50.98 295.54 50.98H278.75" fill="white"/>
<path d="M15.76 506.78C15.76 506.78 15.76 543.46 64.9 548.52" stroke="black" stroke-width="1.48" stroke-miterlimit="10"/>
<path d="M311.87 506.78C311.87 506.78 311.87 543.46 262.73 548.52" stroke="black" stroke-width="1.48" stroke-miterlimit="10"/>
<path d="M295.61 0.75H32.02V28.27H295.61V0.75Z" fill="white"/>
<path d="M36.74 5.42999V12.06" stroke="black" stroke-width="1.5" stroke-linecap="round" stroke-linejoin="round"/>
<path d="M41.7 5.42999V12.06" stroke="black" stroke-width="1.5" stroke-linecap="round" stroke-linejoin="round"/>
<path d="M46.66 5.42999V12.06" stroke="black" stroke-width="1.5" stroke-linecap="round" stroke-linejoin="round"/>
<path d="M51.63 5.42999V12.06" stroke="black" stroke-width="1.5" stroke-linecap="round" stroke-linejoin="round"/>
<path d="M56.59 5.42999V12.06" stroke="black" stroke-width="1.5" stroke-linecap="round" stroke-linejoin="round"/>
<path d="M61.56 5.42999V12.06" stroke="black" stroke-width="1.5" stroke-linecap="round" stroke-linejoin="round"/>
<path d="M66.52 5.42999V12.06" stroke="black" stroke-width="1.5" stroke-linecap="round" stroke-linejoin="round"/>
<path d="M71.49 5.42999V12.06" stroke="black" stroke-width="1.5" stroke-linecap="round" stroke-linejoin="round"/>
<path d="M76.45 5.42999V12.06" stroke="black" stroke-width="1.5" stroke-linecap="round" stroke-linejoin="round"/>
<path d="M81.42 5.42999V12.06" stroke="black" stroke-width="1.5" stroke-linecap="round" stroke-linejoin="round"/>
<path d="M86.38 5.42999V12.06" stroke="black" stroke-width="1.5" stroke-linecap="round" stroke-linejoin="round"/>
<path d="M91.34 5.42999V12.06" stroke="black" stroke-width="1.5" stroke-linecap="round" stroke-linejoin="round"/>
<path d="M96.31 5.42999V12.06" stroke="black" stroke-width="1.5" stroke-linecap="round" stroke-linejoin="round"/>
<path d="M101.27 5.42999V12.06" stroke="black" stroke-width="1.5" stroke-linecap="round" stroke-linejoin="round"/>
<path d="M106.24 5.42999V12.06" stroke="black" stroke-width="1.5" stroke-linecap="round" stroke-linejoin="round"/>
<path d="M111.2 5.42999V12.06" stroke="black" stroke-width="1.5" stroke-linecap="round" stroke-linejoin="round"/>
<path d="M116.17 5.42999V12.06" stroke="black" stroke-width="1.5" stroke-linecap="round" stroke-linejoin="round"/>
<path d="M121.13 5.42999V12.06" stroke="black" stroke-width="1.5" stroke-linecap="round" stroke-linejoin="round"/>
<path d="M126.09 5.42999V12.06" stroke="black" stroke-width="1.5" stroke-linecap="round" stroke-linejoin="round"/>
<path d="M131.06 5.42999V12.06" stroke="black" stroke-width="1.5" stroke-linecap="round" stroke-linejoin="round"/>
<path d="M136.02 5.42999V12.06" stroke="black" stroke-width="1.5" stroke-linecap="round" stroke-linejoin="round"/>
<path d="M140.99 5.42999V12.06" stroke="black" stroke-width="1.5" stroke-linecap="round" stroke-linejoin="round"/>
<path d="M145.95 5.42999V12.06" stroke="black" stroke-width="1.5" stroke-linecap="round" stroke-linejoin="round"/>
<path d="M150.92 5.42999V12.06" stroke="black" stroke-width="1.5" stroke-linecap="round" stroke-linejoin="round"/>
<path d="M155.88 5.42999V12.06" stroke="black" stroke-width="1.5" stroke-linecap="round" stroke-linejoin="round"/>
<path d="M160.85 5.42999V12.06" stroke="black" stroke-width="1.5" stroke-linecap="round" stroke-linejoin="round"/>
<path d="M165.81 5.42999V12.06" stroke="black" stroke-width="1.5" stroke-linecap="round" stroke-linejoin="round"/>
<path d="M170.77 5.42999V12.06" stroke="black" stroke-width="1.5" stroke-linecap="round" stroke-linejoin="round"/>
<path d="M175.74 5.42999V12.06" stroke="black" stroke-width="1.5" stroke-linecap="round" stroke-linejoin="round"/>
<path d="M180.7 5.42999V12.06" stroke="black" stroke-width="1.5" stroke-linecap="round" stroke-linejoin="round"/>
<path d="M185.67 5.42999V12.06" stroke="black" stroke-width="1.5" stroke-linecap="round" stroke-linejoin="round"/>
<path d="M190.63 5.42999V12.06" stroke="black" stroke-width="1.5" stroke-linecap="round" stroke-linejoin="round"/>
<path d="M195.6 5.42999V12.06" stroke="black" stroke-width="1.5" stroke-linecap="round" stroke-linejoin="round"/>
<path d="M200.56 5.42999V12.06" stroke="black" stroke-width="1.5" stroke-linecap="round" stroke-linejoin="round"/>
<path d="M205.53 5.42999V12.06" stroke="black" stroke-width="1.5" stroke-linecap="round" stroke-linejoin="round"/>
<path d="M210.49 5.42999V12.06" stroke="black" stroke-width="1.5" stroke-linecap="round" stroke-linejoin="round"/>
<path d="M215.45 5.42999V12.06" stroke="black" stroke-width="1.5" stroke-linecap="round" stroke-linejoin="round"/>
<path d="M220.42 5.42999V12.06" stroke="black" stroke-width="1.5" stroke-linecap="round" stroke-linejoin="round"/>
<path d="M225.38 5.42999V12.06" stroke="black" stroke-width="1.5" stroke-linecap="round" stroke-linejoin="round"/>
<path d="M230.35 5.42999V12.06" stroke="black" stroke-width="1.5" stroke-linecap="round" stroke-linejoin="round"/>
<path d="M235.31 5.42999V12.06" stroke="black" stroke-width="1.5" stroke-linecap="round" stroke-linejoin="round"/>
<path d="M240.28 5.42999V12.06" stroke="black" stroke-width="1.5" stroke-linecap="round" stroke-linejoin="round"/>
<path d="M245.24 5.42999V12.06" stroke="black" stroke-width="1.5" stroke-linecap="round" stroke-linejoin="round"/>
<path d="M250.2 5.42999V12.06" stroke="black" stroke-width="1.5" stroke-linecap="round" stroke-linejoin="round"/>
<path d="M255.17 5.42999V12.06" stroke="black" stroke-width="1.5" stroke-linecap="round" stroke-linejoin="round"/>
<path d="M260.13 5.42999V12.06" stroke="black" stroke-width="1.5" stroke-linecap="round" stroke-linejoin="round"/>
<path d="M265.1 5.42999V12.06" stroke="black" stroke-width="1.5" stroke-linecap="round" stroke-linejoin="round"/>
<path d="M270.06 5.42999V12.06" stroke="black" stroke-width="1.5" stroke-linecap="round" stroke-linejoin="round"/>
<path d="M275.03 5.42999V12.06" stroke="black" stroke-width="1.5" stroke-linecap="round" stroke-linejoin="round"/>
<path d="M279.99 5.42999V12.06" stroke="black" stroke-width="1.5" stroke-linecap="round" stroke-linejoin="round"/>
<path d="M284.96 5.42999V12.06" stroke="black" stroke-width="1.5" stroke-linecap="round" stroke-linejoin="round"/>
<path d="M289.92 5.42999V12.06" stroke="black" stroke-width="1.5" stroke-linecap="round" stroke-linejoin="round"/>
<path d="M42.99 101.7C42.99 101.7 17.7 143.87 16.13 181.49" stroke="black" stroke-width="1.5" stroke-linecap="round" stroke-linejoin="round"/>
<path d="M283.72 101.7C283.72 101.7 309.01 143.87 310.58 181.49" stroke="black" stroke-width="1.5" stroke-linecap="round" stroke-linejoin="round"/>
<path d="M48 28H279.5" stroke="black" stroke-width="1.5"/>
<path d="M48 51H279.5" stroke="black" stroke-width="1.5"/>
</g>
<defs>
<clipPath id="clip0_4_382">
<rect width="326.88" height="574.85" fill="white"/>
</clipPath>
</defs>
</svg>
