<svg width="53" height="51" viewBox="0 0 53 51" fill="none" xmlns="http://www.w3.org/2000/svg">
<path d="M0.853305 34.4585C-0.192039 31.8433 -0.0498279 27.9279 0.114546 23.7595C0.240135 20.4221 0.0591431 16.5658 2.00023 13.1712C3.5978 10.3787 6.71906 8.40435 10.1266 6.09019C13.8573 3.54886 17.2648 1.04262 20.99 0.290929C25.2619 -0.569725 29.3971 0.660309 33.1999 1.62993C37.3554 2.69559 41.5571 3.78526 44.5361 6.35798C46.5954 8.13655 47.4007 10.7388 48.6289 12.6744C50.1064 14.9978 52.0068 16.9222 52.6052 19.0665C53.4677 22.16 52.5665 24.9599 52.487 26.576C52.4242 27.806 53.2258 29.531 52.8564 31.1821C52.5332 32.6449 51.1 33.8749 50.6235 35.2453C50.0288 36.9537 50.2541 38.9391 49.5652 39.7979C48.8394 40.7011 47.2696 41.0612 46.5086 42.0604C45.7477 43.0595 45.792 44.7033 44.9923 45.5695C44.0966 46.5409 42.523 46.552 41.5479 47.0913C40.5727 47.6306 37.1892 50.063 32.4002 50.8442C29.4008 51.3392 25.9527 50.5321 22.51 50.1276C19.3094 49.7582 15.7541 49.7915 12.8489 48C10.9097 46.8051 9.9068 44.7698 8.55302 43.6302C6.70613 42.0733 4.58773 41.3198 3.59964 40.0122C1.18759 36.8318 1.64008 37.3766 0.853305 34.4585Z" fill="#FFC42E"/>
<path d="M37.1098 12.6596C37.1013 12.8545 37.1568 13.0468 37.2679 13.2072C37.3789 13.3676 37.5394 13.4873 37.7248 13.5479C38.1846 13.6846 38.6926 13.3854 39.0287 13.0954L38.7664 12.9422C38.7278 13.1595 38.7728 13.3835 38.8923 13.5691C39.0119 13.7547 39.1971 13.8883 39.411 13.9432C39.6333 13.99 39.8651 13.9503 40.0592 13.8324C40.1465 13.7759 40.2239 13.7053 40.2883 13.6237C40.3954 13.4962 40.412 13.5369 40.5524 13.5867C40.9624 13.7326 41.4186 13.4722 41.6162 13.1102C41.8877 12.6116 41.6901 12.0169 41.4315 11.557C41.3336 11.3815 41.0621 11.5404 41.16 11.7158C41.3447 12.0649 41.5423 12.5284 41.3576 12.92C41.2802 13.0847 41.1428 13.2135 40.9735 13.2801C40.7888 13.3503 40.6743 13.2801 40.5025 13.221C40.1627 13.1084 40.0556 13.5239 39.7804 13.6181C39.6924 13.6451 39.5991 13.6497 39.5089 13.6316C39.4187 13.6135 39.3344 13.5732 39.2637 13.5144C39.1929 13.4556 39.1379 13.38 39.1037 13.2947C39.0694 13.2093 39.057 13.1167 39.0675 13.0253C39.0753 12.992 39.0722 12.957 39.0586 12.9256C39.0449 12.8943 39.0216 12.8681 38.9919 12.8511C38.9622 12.8341 38.9278 12.8271 38.8938 12.8312C38.8599 12.8353 38.8282 12.8502 38.8034 12.8738C38.5725 13.0751 38.192 13.3189 37.8688 13.2598C37.7343 13.2308 37.6149 13.1539 37.5328 13.0435C37.4506 12.9332 37.4112 12.7968 37.4219 12.6596C37.4219 12.6179 37.4053 12.578 37.3759 12.5486C37.3465 12.5191 37.3065 12.5026 37.2649 12.5026C37.2233 12.5026 37.1833 12.5191 37.1539 12.5486C37.1245 12.578 37.1079 12.6179 37.1079 12.6596H37.1098Z" fill="black"/>
<path d="M10.0018 40.1789C9.99338 40.3738 10.0489 40.5661 10.16 40.7265C10.271 40.8869 10.4315 41.0065 10.6169 41.0672C11.0767 41.2039 11.5846 40.9047 11.9208 40.6147L11.6585 40.4614C11.6199 40.6788 11.6649 40.9028 11.7844 41.0884C11.904 41.274 12.0892 41.4076 12.3031 41.4625C12.5254 41.5092 12.7572 41.4696 12.9513 41.3516C13.0386 41.2951 13.116 41.2246 13.1804 41.1429C13.2875 41.0155 13.3041 41.0561 13.4445 41.106C13.8545 41.2519 14.3107 40.9915 14.5083 40.6295C14.7798 40.1308 14.5822 39.5361 14.3236 39.0763C14.2257 38.9008 13.9542 39.0596 14.0521 39.2351C14.2368 39.5842 14.4344 40.0477 14.2497 40.4393C14.1723 40.604 14.0349 40.7328 13.8656 40.7994C13.6809 40.8696 13.5664 40.7994 13.3946 40.7403C13.0548 40.6277 12.9476 41.0432 12.6725 41.1374C12.5845 41.1644 12.4912 41.169 12.401 41.1509C12.3108 41.1328 12.2265 41.0925 12.1557 41.0337C12.085 40.9749 12.03 40.8993 11.9958 40.8139C11.9615 40.7285 11.9491 40.636 11.9596 40.5445C11.9674 40.5112 11.9643 40.4763 11.9507 40.4449C11.937 40.4135 11.9136 40.3874 11.884 40.3704C11.8543 40.3534 11.8199 40.3464 11.7859 40.3505C11.752 40.3546 11.7202 40.3695 11.6955 40.3931C11.4646 40.5944 11.0841 40.8382 10.7609 40.7791C10.6264 40.75 10.507 40.6732 10.4248 40.5628C10.3427 40.4525 10.3033 40.3161 10.314 40.1789C10.314 40.1372 10.2974 40.0973 10.268 40.0679C10.2386 40.0384 10.1986 40.0219 10.157 40.0219C10.1153 40.0219 10.0754 40.0384 10.046 40.0679C10.0166 40.0973 10 40.1372 10 40.1789H10.0018Z" fill="black"/>
<path d="M28.6085 5.03928C28.5183 5.21452 28.4838 5.41311 28.5095 5.60849C28.5353 5.80387 28.62 5.98675 28.7525 6.13265C28.8907 6.27618 29.0724 6.37009 29.2695 6.39981C29.4665 6.42953 29.6678 6.3934 29.8422 6.29702C30.0442 6.19292 30.2007 6.018 30.2818 5.80574C30.2909 5.76685 30.2846 5.72594 30.2643 5.69154C30.244 5.65714 30.2112 5.63189 30.1728 5.62105C30.134 5.61329 30.0937 5.62011 30.0596 5.64022C30.0255 5.66033 30.0001 5.6923 29.9881 5.73002C29.921 5.87818 29.7993 5.99467 29.6483 6.05508C29.5714 6.08885 29.4884 6.1063 29.4045 6.1063C29.3206 6.1063 29.2375 6.08885 29.1607 6.05508C29.0874 6.01697 29.0224 5.96471 28.9695 5.9013C28.9165 5.83789 28.8767 5.76461 28.8523 5.6857C28.8256 5.60802 28.815 5.52575 28.821 5.44385C28.827 5.36196 28.8496 5.28213 28.8873 5.2092C28.9852 5.02451 28.7137 4.87306 28.6177 5.05036L28.6085 5.03928Z" fill="black"/>
<path d="M45.659 19.3343C45.6714 19.2983 45.6909 19.2652 45.7163 19.2369C45.7418 19.2086 45.7727 19.1858 45.8072 19.1698C45.8417 19.1537 45.879 19.1448 45.9171 19.1436C45.9551 19.1423 45.993 19.1488 46.0284 19.1625C46.2086 19.2401 46.3662 19.3621 46.4865 19.5171C46.5034 19.5339 46.524 19.5467 46.5466 19.5543C46.5692 19.562 46.5933 19.5644 46.6169 19.5614C46.6406 19.5584 46.6633 19.55 46.6832 19.5369C46.7032 19.5238 46.7199 19.5063 46.7321 19.4857C46.8142 19.3213 46.9454 19.1866 47.1076 19.1002C47.2698 19.0138 47.4548 18.9801 47.6371 19.0037C47.8263 19.0331 48.001 19.1225 48.1357 19.2585C48.2576 19.3841 48.3204 19.5559 48.4349 19.6796C48.5647 19.7793 48.7101 19.8567 48.8653 19.9087C48.9944 19.9785 49.0999 20.0852 49.1682 20.2152C49.2412 20.3467 49.2758 20.4961 49.268 20.6464C49.2601 20.7966 49.2102 20.9416 49.1238 21.0648C49.0075 21.231 49.279 21.388 49.3953 21.2236C49.4991 21.0685 49.5619 20.8896 49.5781 20.7036C49.5942 20.5176 49.5631 20.3306 49.4877 20.1598C49.4133 19.9813 49.292 19.8263 49.1367 19.711C48.9521 19.5762 48.7101 19.5633 48.5827 19.3583C48.4829 19.1649 48.3346 19.0008 48.1524 18.8819C47.9701 18.7631 47.7601 18.6937 47.5429 18.6805C47.3201 18.6776 47.1009 18.7364 46.9095 18.8505C46.7181 18.9646 46.5621 19.1295 46.4587 19.3269L46.7062 19.2955C46.4994 19.0757 46.2482 18.8338 45.925 18.8319C45.7956 18.8255 45.6678 18.8634 45.5627 18.9392C45.4577 19.0151 45.3816 19.1244 45.3469 19.2493C45.3044 19.4469 45.6073 19.5319 45.6498 19.3343H45.659Z" fill="black"/>
<path d="M9.31621 10.6539C9.32856 10.6179 9.34804 10.5848 9.3735 10.5565C9.39895 10.5283 9.42984 10.5054 9.46433 10.4894C9.49882 10.4734 9.5362 10.4645 9.57422 10.4632C9.61223 10.462 9.65012 10.4684 9.68559 10.4821C9.86576 10.5598 10.0233 10.6818 10.1436 10.8367C10.1606 10.8536 10.1811 10.8663 10.2037 10.874C10.2264 10.8817 10.2504 10.8841 10.2741 10.881C10.2978 10.878 10.3205 10.8696 10.3404 10.8565C10.3604 10.8434 10.3771 10.8259 10.3892 10.8054C10.4714 10.641 10.6026 10.5062 10.7648 10.4199C10.927 10.3335 11.112 10.2997 11.2942 10.3233C11.4834 10.3528 11.6582 10.4421 11.7929 10.5782C11.9148 10.7038 11.9776 10.8755 12.0921 10.9993C12.2219 11.0989 12.3673 11.1763 12.5224 11.2283C12.6516 11.2981 12.7571 11.4049 12.8253 11.5349C12.8984 11.6664 12.933 11.8158 12.9251 11.966C12.9173 12.1163 12.8674 12.2613 12.781 12.3844C12.6646 12.5507 12.9361 12.7077 13.0525 12.5433C13.1562 12.3881 13.2191 12.2092 13.2352 12.0232C13.2514 11.8373 13.2203 11.6502 13.1448 11.4795C13.0704 11.301 12.9492 11.1459 12.7939 11.0307C12.6092 10.8959 12.3673 10.8829 12.2398 10.6779C12.1401 10.4845 11.9918 10.3204 11.8095 10.2016C11.6272 10.0828 11.4172 10.0133 11.2 10.0001C10.9773 9.99719 10.758 10.0561 10.5667 10.1702C10.3753 10.2843 10.2193 10.4491 10.1159 10.6465L10.3634 10.6151C10.1565 10.3953 9.90536 10.1534 9.58215 10.1515C9.45272 10.1452 9.32496 10.183 9.2199 10.2589C9.11483 10.3347 9.03872 10.4441 9.00407 10.569C8.96159 10.7666 9.26449 10.8515 9.30697 10.6539H9.31621Z" fill="black"/>
<path d="M23.1933 12.643C23.4205 12.8831 23.7271 13.0253 24.0281 12.8277C24.3292 12.6301 24.4659 12.2736 24.6007 11.9707H24.3292C24.5231 12.4121 24.6986 13.0955 25.1843 13.306C25.267 13.3457 25.3577 13.3655 25.4494 13.3639C25.5411 13.3624 25.6311 13.3394 25.7124 13.2969C25.7936 13.2544 25.8638 13.1935 25.9174 13.1191C25.9709 13.0447 26.0064 12.9588 26.0209 12.8683L25.7125 12.9089C25.8972 13.3984 26.1262 13.7437 26.647 13.9155C27.0866 14.0614 27.6407 13.7308 27.8198 13.3171C27.8974 13.1324 27.6351 12.9717 27.5483 13.1583C27.4681 13.3129 27.345 13.4411 27.1937 13.5276C27.1209 13.587 27.0326 13.6241 26.9392 13.6345C26.8459 13.645 26.7515 13.6284 26.6673 13.5867C26.298 13.4464 26.1521 13.173 26.0154 12.8221C26.0054 12.7853 25.9823 12.7535 25.9505 12.7325C25.9187 12.7114 25.8803 12.7027 25.8425 12.7079C25.8048 12.7131 25.7702 12.7319 25.7452 12.7607C25.7203 12.7896 25.7067 12.8265 25.707 12.8646C25.694 12.9976 25.5223 13.0493 25.4096 13.0401C25.3306 13.0236 25.2563 12.9894 25.1924 12.9401C25.1284 12.8909 25.0764 12.8278 25.0402 12.7556C24.8694 12.4519 24.7231 12.1351 24.6025 11.8082C24.5887 11.7844 24.5689 11.7647 24.5451 11.751C24.5213 11.7373 24.4943 11.73 24.4668 11.73C24.4393 11.73 24.4123 11.7373 24.3885 11.751C24.3646 11.7647 24.3448 11.7844 24.331 11.8082C24.2447 12.0321 24.1285 12.2433 23.9857 12.4361C23.801 12.6707 23.6163 12.6374 23.4168 12.4232C23.2783 12.2773 23.0474 12.4989 23.1952 12.6467L23.1933 12.643Z" fill="black"/>
<path d="M34.0691 44.4921C34.349 44.6679 34.6814 44.7292 34.9236 44.4628C35.1659 44.1963 35.2093 43.8171 35.2644 43.4901L35.0015 43.5578C35.2993 43.9369 35.6397 44.5549 36.1625 44.6377C36.2525 44.6555 36.3453 44.6521 36.4337 44.6277C36.5221 44.6033 36.6036 44.5586 36.6716 44.4972C36.7397 44.4358 36.7925 44.3593 36.8258 44.2739C36.8592 44.1885 36.8721 44.0965 36.8636 44.0052L36.5751 44.1215C36.8759 44.5494 37.1838 44.8267 37.731 44.8632C38.1931 44.8949 38.6472 44.4366 38.7176 43.9913C38.7466 43.7931 38.4526 43.7029 38.415 43.9051C38.3759 44.0749 38.2886 44.2298 38.1638 44.3513C38.108 44.4269 38.0317 44.4848 37.9439 44.5183C37.8562 44.5517 37.7606 44.5592 37.6687 44.5398C37.276 44.4959 37.0666 44.2676 36.8467 43.9619C36.8278 43.9287 36.7975 43.9036 36.7615 43.8912C36.7255 43.8788 36.6861 43.8799 36.6508 43.8944C36.6156 43.9088 36.5867 43.9356 36.5698 43.9698C36.5528 44.0039 36.5489 44.0431 36.5586 44.0799C36.5793 44.2119 36.4258 44.3048 36.3144 44.324C36.2338 44.3277 36.1533 44.3131 36.0791 44.2814C36.0049 44.2496 35.9388 44.2015 35.8858 44.1406C35.6447 43.8891 35.4239 43.6188 35.2257 43.3323C35.2064 43.3127 35.1823 43.2985 35.1558 43.2912C35.1293 43.2838 35.1013 43.2836 35.0747 43.2904C35.0481 43.2973 35.0237 43.311 35.0041 43.3302C34.9844 43.3495 34.9702 43.3735 34.9627 43.4C34.935 43.6383 34.8751 43.8718 34.7848 44.0942C34.6645 44.3674 34.4773 44.3812 34.2307 44.2235C34.0602 44.1168 33.8919 44.3889 34.0718 44.4952L34.0691 44.4921Z" fill="black"/>
<path d="M5.18614 23.0484C5.16527 23.1415 5.16446 23.238 5.18376 23.3315C5.20307 23.4249 5.24206 23.5132 5.29812 23.5904C5.35419 23.6676 5.42605 23.732 5.50893 23.7793C5.59182 23.8266 5.68383 23.8557 5.77883 23.8647C5.87384 23.8737 5.96967 23.8624 6.05995 23.8315C6.15023 23.8005 6.23289 23.7507 6.30244 23.6854C6.37199 23.6201 6.42684 23.5407 6.46332 23.4525C6.49981 23.3643 6.51711 23.2694 6.51406 23.174L6.2795 23.3107C6.40919 23.4282 6.56303 23.5158 6.73022 23.5675C6.89742 23.6192 7.0739 23.6337 7.24728 23.6099C7.3903 23.5806 7.52061 23.5074 7.61996 23.4004C7.71931 23.2935 7.78273 23.1581 7.80134 23.0133L7.56495 23.1481C7.77549 23.2479 8.08023 23.3993 8.32217 23.3513C8.41537 23.3336 8.49971 23.2846 8.56119 23.2124C8.62268 23.1401 8.6576 23.049 8.66016 22.9542C8.66016 22.7529 8.35357 22.7529 8.34618 22.9542C8.33879 23.1555 7.79211 22.9154 7.72193 22.8766C7.69796 22.8636 7.67104 22.857 7.64377 22.8574C7.61649 22.8578 7.58978 22.8653 7.56621 22.879C7.54264 22.8927 7.52301 22.9123 7.5092 22.9358C7.4954 22.9594 7.48787 22.986 7.48737 23.0133C7.46376 23.1019 7.41102 23.1799 7.33765 23.2349C7.26427 23.2898 7.17454 23.3185 7.0829 23.3162C6.84347 23.2993 6.61688 23.2016 6.44018 23.0392C6.3423 22.9634 6.20562 23.0669 6.20377 23.174C6.20385 23.2257 6.19338 23.2769 6.173 23.3244C6.15262 23.372 6.12277 23.4149 6.08526 23.4505C6.04776 23.4861 6.00337 23.5137 5.95484 23.5315C5.90631 23.5494 5.85465 23.5572 5.803 23.5544C5.70731 23.5364 5.62204 23.4827 5.56444 23.4042C5.50684 23.3257 5.4812 23.2282 5.49272 23.1315C5.52412 22.9339 5.22123 22.8489 5.18983 23.0484H5.18614Z" fill="black"/>
<path d="M49.7906 27.4422C49.8102 27.3495 49.8101 27.2536 49.7901 27.161C49.7701 27.0683 49.7308 26.9809 49.6746 26.9046C49.6185 26.8282 49.5469 26.7646 49.4644 26.7178C49.3819 26.6711 49.2905 26.6423 49.1961 26.6334C49.1018 26.6245 49.0066 26.6356 48.9168 26.6661C48.8271 26.6966 48.7448 26.7457 48.6753 26.8102C48.6059 26.8747 48.5509 26.9532 48.5139 27.0405C48.4769 27.1277 48.4588 27.2218 48.4608 27.3166L48.6972 27.1818C48.4239 26.9712 48.0822 26.8013 47.7294 26.8826C47.5862 26.9113 47.4556 26.9844 47.3561 27.0914C47.2567 27.1985 47.1934 27.3341 47.1754 27.4791L47.4118 27.3443C47.2012 27.2427 46.8946 27.0913 46.6527 27.1393C46.5596 27.1573 46.4755 27.2064 46.4141 27.2786C46.3526 27.3507 46.3176 27.4417 46.3147 27.5364C46.3147 27.578 46.3312 27.618 46.3607 27.6474C46.3901 27.6768 46.43 27.6934 46.4717 27.6934C46.5133 27.6934 46.5533 27.6768 46.5827 27.6474C46.6121 27.618 46.6287 27.578 46.6287 27.5364C46.6287 27.3166 47.1828 27.577 47.2529 27.614C47.2768 27.6273 47.3038 27.6343 47.3312 27.6342C47.3586 27.6341 47.3854 27.6269 47.4092 27.6134C47.433 27.5998 47.4529 27.5803 47.4669 27.5568C47.481 27.5333 47.4887 27.5065 47.4893 27.4791C47.5128 27.3907 47.5652 27.3127 47.6382 27.2574C47.7111 27.2022 47.8005 27.173 47.892 27.1744C48.1319 27.1908 48.3588 27.2893 48.5347 27.4533C48.6344 27.529 48.7711 27.4237 48.7711 27.3166C48.7674 27.2655 48.7748 27.2142 48.7925 27.1661C48.8103 27.118 48.8382 27.0743 48.8742 27.0379C48.9102 27.0014 48.9536 26.9731 49.0015 26.9548C49.0494 26.9364 49.1006 26.9285 49.1517 26.9316C49.2029 26.9346 49.2528 26.9485 49.2982 26.9724C49.3435 26.9963 49.3832 27.0296 49.4147 27.0701C49.4461 27.1105 49.4686 27.1573 49.4805 27.2071C49.4925 27.2569 49.4937 27.3088 49.484 27.3591C49.4507 27.5567 49.7536 27.6417 49.7869 27.4422H49.7906Z" fill="black"/>
<path d="M45.4759 35.8118C45.4955 35.719 45.4954 35.6232 45.4754 35.5306C45.4554 35.4379 45.4161 35.3505 45.3599 35.2741C45.3038 35.1978 45.2322 35.1341 45.1497 35.0874C45.0672 35.0407 44.9758 35.0119 44.8814 35.003C44.7871 34.9941 44.6919 35.0052 44.6021 35.0357C44.5124 35.0661 44.4301 35.1153 44.3606 35.1798C44.2912 35.2443 44.2362 35.3227 44.1992 35.41C44.1622 35.4973 44.1441 35.5914 44.1461 35.6862L44.3825 35.5513C44.1092 35.3408 43.7675 35.1709 43.4147 35.2522C43.2715 35.2809 43.1409 35.3539 43.0414 35.461C42.942 35.5681 42.8787 35.7037 42.8607 35.8487L43.0971 35.7139C42.8865 35.6123 42.5799 35.4609 42.338 35.5089C42.245 35.5269 42.1608 35.576 42.0994 35.6481C42.0379 35.7203 42.0029 35.8112 42 35.906C42 35.9476 42.0166 35.9875 42.046 36.017C42.0754 36.0464 42.1153 36.0629 42.157 36.0629C42.1986 36.0629 42.2386 36.0464 42.268 36.017C42.2974 35.9875 42.314 35.9476 42.314 35.906C42.314 35.6862 42.8681 35.9466 42.9382 35.9835C42.9621 35.9969 42.9891 36.0039 43.0165 36.0038C43.0439 36.0037 43.0707 35.9965 43.0945 35.9829C43.1183 35.9694 43.1382 35.9499 43.1522 35.9263C43.1663 35.9028 43.174 35.8761 43.1746 35.8487C43.1981 35.7603 43.2505 35.6822 43.3235 35.627C43.3964 35.5718 43.4858 35.5426 43.5773 35.544C43.8172 35.5604 44.0441 35.6588 44.22 35.8228C44.3197 35.8986 44.4564 35.7933 44.4564 35.6862C44.4527 35.6351 44.4601 35.5837 44.4778 35.5357C44.4956 35.4876 44.5235 35.4439 44.5595 35.4074C44.5955 35.371 44.6389 35.3427 44.6868 35.3243C44.7347 35.306 44.7859 35.2981 44.837 35.3011C44.8882 35.3042 44.9381 35.3181 44.9835 35.342C45.0288 35.3659 45.0685 35.3992 45.1 35.4396C45.1314 35.4801 45.1539 35.5268 45.1658 35.5767C45.1778 35.6265 45.179 35.6783 45.1693 35.7287C45.136 35.9263 45.4389 36.0112 45.4722 35.8118H45.4759Z" fill="black"/>
<path d="M14 29C15.6569 29 17 28.5523 17 28C17 27.4477 15.6569 27 14 27C12.3431 27 11 27.4477 11 28C11 28.5523 12.3431 29 14 29Z" fill="#FFA4BA"/>
<path d="M38 29C39.6569 29 41 28.5523 41 28C41 27.4477 39.6569 27 38 27C36.3431 27 35 27.4477 35 28C35 28.5523 36.3431 29 38 29Z" fill="#FFA4BA"/>
<ellipse cx="22" cy="23.5" rx="1" ry="2.5" fill="black"/>
<ellipse cx="30" cy="23.5" rx="1" ry="2.5" fill="black"/>
<ellipse cx="26" cy="32" rx="3" ry="4" fill="black"/>
</svg>
