<svg width="53" height="51" viewBox="0 0 53 51" fill="none" xmlns="http://www.w3.org/2000/svg">
<path d="M0.853305 34.4585C-0.192039 31.8433 -0.0498279 27.9279 0.114546 23.7595C0.240135 20.4221 0.0591431 16.5658 2.00023 13.1712C3.5978 10.3787 6.71906 8.40435 10.1266 6.09019C13.8573 3.54886 17.2648 1.04262 20.99 0.290929C25.2619 -0.569725 29.3971 0.660309 33.1999 1.62993C37.3554 2.69559 41.5571 3.78526 44.5361 6.35798C46.5954 8.13655 47.4007 10.7388 48.6289 12.6744C50.1064 14.9978 52.0068 16.9222 52.6052 19.0665C53.4677 22.16 52.5665 24.9599 52.487 26.576C52.4242 27.806 53.2258 29.531 52.8564 31.1821C52.5332 32.6449 51.1 33.8749 50.6235 35.2453C50.0288 36.9537 50.2541 38.9391 49.5652 39.7979C48.8394 40.7011 47.2696 41.0612 46.5086 42.0604C45.7477 43.0595 45.792 44.7033 44.9923 45.5695C44.0966 46.5409 42.523 46.552 41.5479 47.0913C40.5727 47.6306 37.1892 50.063 32.4002 50.8442C29.4008 51.3392 25.9527 50.5321 22.51 50.1276C19.3094 49.7582 15.7541 49.7915 12.8489 48C10.9097 46.8051 9.9068 44.7698 8.55302 43.6302C6.70613 42.0733 4.58773 41.3198 3.59964 40.0122C1.18759 36.8318 1.64008 37.3766 0.853305 34.4585Z" fill="#91EBFF"/>
<path d="M37.1098 12.6596C37.1013 12.8545 37.1568 13.0468 37.2679 13.2072C37.3789 13.3676 37.5394 13.4873 37.7248 13.5479C38.1846 13.6846 38.6926 13.3854 39.0287 13.0954L38.7664 12.9422C38.7278 13.1595 38.7728 13.3835 38.8923 13.5691C39.0119 13.7547 39.1971 13.8883 39.411 13.9432C39.6333 13.99 39.8651 13.9503 40.0592 13.8324C40.1465 13.7759 40.2239 13.7053 40.2883 13.6237C40.3954 13.4962 40.412 13.5369 40.5524 13.5867C40.9624 13.7326 41.4186 13.4722 41.6162 13.1102C41.8877 12.6116 41.6901 12.0169 41.4315 11.557C41.3336 11.3815 41.0621 11.5404 41.16 11.7158C41.3447 12.0649 41.5423 12.5284 41.3576 12.92C41.2802 13.0847 41.1428 13.2135 40.9735 13.2801C40.7888 13.3503 40.6743 13.2801 40.5025 13.221C40.1627 13.1084 40.0556 13.5239 39.7804 13.6181C39.6924 13.6451 39.5991 13.6497 39.5089 13.6316C39.4187 13.6135 39.3344 13.5732 39.2637 13.5144C39.1929 13.4556 39.1379 13.38 39.1037 13.2947C39.0694 13.2093 39.057 13.1167 39.0675 13.0253C39.0753 12.992 39.0722 12.957 39.0586 12.9256C39.0449 12.8943 39.0216 12.8681 38.9919 12.8511C38.9622 12.8341 38.9278 12.8271 38.8938 12.8312C38.8599 12.8353 38.8282 12.8502 38.8034 12.8738C38.5725 13.0751 38.192 13.3189 37.8688 13.2598C37.7343 13.2308 37.6149 13.1539 37.5328 13.0435C37.4506 12.9332 37.4112 12.7968 37.4219 12.6596C37.4219 12.6179 37.4053 12.578 37.3759 12.5486C37.3465 12.5191 37.3065 12.5026 37.2649 12.5026C37.2233 12.5026 37.1833 12.5191 37.1539 12.5486C37.1245 12.578 37.1079 12.6179 37.1079 12.6596H37.1098Z" fill="black"/>
<path d="M28.6085 5.03928C28.5183 5.21452 28.4838 5.41311 28.5095 5.60849C28.5353 5.80387 28.62 5.98675 28.7525 6.13265C28.8907 6.27618 29.0724 6.37009 29.2695 6.39981C29.4665 6.42953 29.6678 6.3934 29.8422 6.29702C30.0442 6.19292 30.2007 6.018 30.2818 5.80574C30.2909 5.76685 30.2846 5.72594 30.2643 5.69154C30.244 5.65714 30.2112 5.63189 30.1728 5.62105C30.134 5.61329 30.0937 5.62011 30.0596 5.64022C30.0255 5.66033 30.0001 5.6923 29.9881 5.73002C29.921 5.87818 29.7993 5.99467 29.6483 6.05508C29.5714 6.08885 29.4884 6.1063 29.4045 6.1063C29.3206 6.1063 29.2375 6.08885 29.1607 6.05508C29.0874 6.01697 29.0224 5.96471 28.9695 5.9013C28.9165 5.83789 28.8767 5.76461 28.8523 5.6857C28.8256 5.60802 28.815 5.52575 28.821 5.44385C28.827 5.36196 28.8496 5.28213 28.8873 5.2092C28.9852 5.02451 28.7137 4.87306 28.6177 5.05036L28.6085 5.03928Z" fill="black"/>
<path d="M45.659 19.3343C45.6714 19.2983 45.6909 19.2652 45.7163 19.2369C45.7418 19.2086 45.7727 19.1858 45.8072 19.1698C45.8417 19.1537 45.879 19.1448 45.9171 19.1436C45.9551 19.1423 45.993 19.1488 46.0284 19.1625C46.2086 19.2401 46.3662 19.3621 46.4865 19.5171C46.5034 19.5339 46.524 19.5467 46.5466 19.5543C46.5692 19.562 46.5933 19.5644 46.6169 19.5614C46.6406 19.5584 46.6633 19.55 46.6832 19.5369C46.7032 19.5238 46.7199 19.5063 46.7321 19.4857C46.8142 19.3213 46.9454 19.1866 47.1076 19.1002C47.2698 19.0138 47.4548 18.9801 47.6371 19.0037C47.8263 19.0331 48.001 19.1225 48.1357 19.2585C48.2576 19.3841 48.3204 19.5559 48.4349 19.6796C48.5647 19.7793 48.7101 19.8567 48.8653 19.9087C48.9944 19.9785 49.0999 20.0852 49.1682 20.2152C49.2412 20.3467 49.2758 20.4961 49.268 20.6464C49.2601 20.7966 49.2102 20.9416 49.1238 21.0648C49.0075 21.231 49.279 21.388 49.3953 21.2236C49.4991 21.0685 49.5619 20.8896 49.5781 20.7036C49.5942 20.5176 49.5631 20.3306 49.4877 20.1598C49.4133 19.9813 49.292 19.8263 49.1367 19.711C48.9521 19.5762 48.7101 19.5633 48.5827 19.3583C48.4829 19.1649 48.3346 19.0008 48.1524 18.8819C47.9701 18.7631 47.7601 18.6937 47.5429 18.6805C47.3201 18.6776 47.1009 18.7364 46.9095 18.8505C46.7181 18.9646 46.5621 19.1295 46.4587 19.3269L46.7062 19.2955C46.4994 19.0757 46.2482 18.8338 45.925 18.8319C45.7956 18.8255 45.6678 18.8634 45.5627 18.9392C45.4577 19.0151 45.3816 19.1244 45.3469 19.2493C45.3044 19.4469 45.6073 19.5319 45.6498 19.3343H45.659Z" fill="black"/>
<path d="M32.0458 44.9129C32.2729 45.153 32.5795 45.2952 32.8806 45.0976C33.1816 44.9 33.3183 44.5436 33.4531 44.2407H33.1816C33.3755 44.6821 33.551 45.3654 34.0367 45.576C34.1194 45.6156 34.2101 45.6355 34.3018 45.6339C34.3935 45.6323 34.4835 45.6094 34.5648 45.5669C34.646 45.5244 34.7162 45.4635 34.7698 45.3891C34.8233 45.3147 34.8588 45.2288 34.8734 45.1383L34.5649 45.1789C34.7496 45.6683 34.9786 46.0137 35.4995 46.1854C35.939 46.3314 36.4931 46.0008 36.6722 45.5871C36.7498 45.4024 36.4875 45.2417 36.4007 45.4282C36.3205 45.5829 36.1974 45.7111 36.0461 45.7976C35.9733 45.8569 35.885 45.894 35.7916 45.9045C35.6983 45.915 35.6039 45.8984 35.5198 45.8567C35.1504 45.7163 35.0045 45.443 34.8678 45.0921C34.8578 45.0553 34.8347 45.0234 34.8029 45.0024C34.7711 44.9814 34.7327 44.9727 34.695 44.9779C34.6572 44.9831 34.6226 45.0019 34.5976 45.0307C34.5727 45.0595 34.5591 45.0964 34.5594 45.1346C34.5465 45.2675 34.3747 45.3193 34.262 45.31C34.183 45.2935 34.1087 45.2594 34.0448 45.2101C33.9808 45.1609 33.9288 45.0978 33.8927 45.0256C33.7219 44.7219 33.5755 44.4051 33.4549 44.0781C33.4411 44.0544 33.4213 44.0346 33.3975 44.0209C33.3737 44.0072 33.3467 44 33.3192 44C33.2917 44 33.2647 44.0072 33.2409 44.0209C33.2171 44.0346 33.1973 44.0544 33.1834 44.0781C33.0971 44.3021 32.981 44.5133 32.8381 44.7061C32.6534 44.9406 32.4687 44.9074 32.2692 44.6932C32.1307 44.5473 31.8998 44.7689 32.0476 44.9166L32.0458 44.9129Z" fill="black"/>
<path d="M11.0458 12.9129C11.2729 13.153 11.5795 13.2952 11.8806 13.0976C12.1816 12.9 12.3183 12.5436 12.4531 12.2407H12.1816C12.3755 12.6821 12.551 13.3654 13.0367 13.576C13.1194 13.6156 13.2101 13.6355 13.3018 13.6339C13.3935 13.6323 13.4835 13.6094 13.5648 13.5669C13.646 13.5244 13.7162 13.4635 13.7698 13.3891C13.8233 13.3147 13.8588 13.2288 13.8734 13.1383L13.5649 13.1789C13.7496 13.6683 13.9786 14.0137 14.4995 14.1854C14.939 14.3314 15.4931 14.0008 15.6722 13.5871C15.7498 13.4024 15.4875 13.2417 15.4007 13.4282C15.3205 13.5829 15.1974 13.7111 15.0461 13.7976C14.9733 13.8569 14.885 13.894 14.7916 13.9045C14.6983 13.915 14.6039 13.8984 14.5198 13.8567C14.1504 13.7163 14.0045 13.443 13.8678 13.0921C13.8578 13.0553 13.8347 13.0234 13.8029 13.0024C13.7711 12.9814 13.7327 12.9727 13.695 12.9779C13.6572 12.9831 13.6226 13.0019 13.5976 13.0307C13.5727 13.0595 13.5591 13.0964 13.5594 13.1346C13.5465 13.2675 13.3747 13.3193 13.262 13.31C13.183 13.2935 13.1087 13.2594 13.0448 13.2101C12.9808 13.1609 12.9288 13.0978 12.8927 13.0256C12.7219 12.7219 12.5755 12.4051 12.4549 12.0781C12.4411 12.0544 12.4213 12.0346 12.3975 12.0209C12.3737 12.0072 12.3467 12 12.3192 12C12.2917 12 12.2647 12.0072 12.2409 12.0209C12.2171 12.0346 12.1973 12.0544 12.1834 12.0781C12.0971 12.3021 11.981 12.5133 11.8381 12.7061C11.6534 12.9406 11.4687 12.9074 11.2692 12.6932C11.1307 12.5473 10.8998 12.7689 11.0476 12.9166L11.0458 12.9129Z" fill="black"/>
<path d="M19.0458 45.9129C19.2729 46.153 19.5795 46.2952 19.8806 46.0976C20.1816 45.9 20.3183 45.5436 20.4531 45.2407H20.1816C20.3755 45.6821 20.551 46.3654 21.0367 46.576C21.1194 46.6156 21.2101 46.6355 21.3018 46.6339C21.3935 46.6323 21.4835 46.6094 21.5648 46.5669C21.646 46.5244 21.7162 46.4635 21.7698 46.3891C21.8233 46.3147 21.8588 46.2288 21.8734 46.1383L21.5649 46.1789C21.7496 46.6683 21.9786 47.0137 22.4995 47.1854C22.939 47.3314 23.4931 47.0008 23.6722 46.5871C23.7498 46.4024 23.4875 46.2417 23.4007 46.4282C23.3205 46.5829 23.1974 46.7111 23.0461 46.7976C22.9733 46.8569 22.885 46.894 22.7916 46.9045C22.6983 46.915 22.6039 46.8984 22.5198 46.8567C22.1504 46.7163 22.0045 46.443 21.8678 46.0921C21.8578 46.0553 21.8347 46.0234 21.8029 46.0024C21.7711 45.9814 21.7327 45.9727 21.695 45.9779C21.6572 45.9831 21.6226 46.0019 21.5976 46.0307C21.5727 46.0595 21.5591 46.0964 21.5594 46.1346C21.5465 46.2675 21.3747 46.3193 21.262 46.31C21.183 46.2935 21.1087 46.2594 21.0448 46.2101C20.9808 46.1609 20.9288 46.0978 20.8927 46.0256C20.7219 45.7219 20.5755 45.4051 20.4549 45.0781C20.4411 45.0544 20.4213 45.0346 20.3975 45.0209C20.3737 45.0072 20.3467 45 20.3192 45C20.2917 45 20.2647 45.0072 20.2409 45.0209C20.2171 45.0346 20.1973 45.0544 20.1834 45.0781C20.0971 45.3021 19.981 45.5133 19.8381 45.7061C19.6534 45.9406 19.4687 45.9074 19.2692 45.6932C19.1307 45.5473 18.8998 45.7689 19.0476 45.9166L19.0458 45.9129Z" fill="black"/>
<path d="M5.18614 23.0484C5.16527 23.1415 5.16446 23.238 5.18376 23.3315C5.20307 23.4249 5.24206 23.5132 5.29812 23.5904C5.35419 23.6676 5.42605 23.732 5.50893 23.7793C5.59182 23.8266 5.68383 23.8557 5.77883 23.8647C5.87384 23.8737 5.96967 23.8624 6.05995 23.8315C6.15023 23.8005 6.23289 23.7507 6.30244 23.6854C6.37199 23.6201 6.42684 23.5407 6.46332 23.4525C6.49981 23.3643 6.51711 23.2694 6.51406 23.174L6.2795 23.3107C6.40919 23.4282 6.56303 23.5158 6.73022 23.5675C6.89742 23.6192 7.0739 23.6337 7.24728 23.6099C7.3903 23.5806 7.52061 23.5074 7.61996 23.4004C7.71931 23.2935 7.78273 23.1581 7.80134 23.0133L7.56495 23.1481C7.77549 23.2479 8.08023 23.3993 8.32217 23.3513C8.41537 23.3336 8.49971 23.2846 8.56119 23.2124C8.62268 23.1401 8.6576 23.049 8.66016 22.9542C8.66016 22.7529 8.35357 22.7529 8.34618 22.9542C8.33879 23.1555 7.79211 22.9154 7.72193 22.8766C7.69796 22.8636 7.67104 22.857 7.64377 22.8574C7.61649 22.8578 7.58978 22.8653 7.56621 22.879C7.54264 22.8927 7.52301 22.9123 7.5092 22.9358C7.4954 22.9594 7.48787 22.986 7.48737 23.0133C7.46376 23.1019 7.41102 23.1799 7.33765 23.2349C7.26427 23.2898 7.17454 23.3185 7.0829 23.3162C6.84347 23.2993 6.61688 23.2016 6.44018 23.0392C6.3423 22.9634 6.20562 23.0669 6.20377 23.174C6.20385 23.2257 6.19338 23.2769 6.173 23.3244C6.15262 23.372 6.12277 23.4149 6.08526 23.4505C6.04776 23.4861 6.00337 23.5137 5.95484 23.5315C5.90631 23.5494 5.85465 23.5572 5.803 23.5544C5.70731 23.5364 5.62204 23.4827 5.56444 23.4042C5.50684 23.3257 5.4812 23.2282 5.49272 23.1315C5.52412 22.9339 5.22123 22.8489 5.18983 23.0484H5.18614Z" fill="black"/>
<path d="M49.7906 27.4422C49.8102 27.3495 49.8101 27.2536 49.7901 27.161C49.7701 27.0683 49.7308 26.9809 49.6746 26.9046C49.6185 26.8282 49.5469 26.7646 49.4644 26.7178C49.3819 26.6711 49.2905 26.6423 49.1961 26.6334C49.1018 26.6245 49.0066 26.6356 48.9168 26.6661C48.8271 26.6966 48.7448 26.7457 48.6753 26.8102C48.6059 26.8747 48.5509 26.9532 48.5139 27.0405C48.4769 27.1277 48.4588 27.2218 48.4608 27.3166L48.6972 27.1818C48.4239 26.9712 48.0822 26.8013 47.7294 26.8826C47.5862 26.9113 47.4556 26.9844 47.3561 27.0914C47.2567 27.1985 47.1934 27.3341 47.1754 27.4791L47.4118 27.3443C47.2012 27.2427 46.8946 27.0913 46.6527 27.1393C46.5596 27.1573 46.4755 27.2064 46.4141 27.2786C46.3526 27.3507 46.3176 27.4417 46.3147 27.5364C46.3147 27.578 46.3312 27.618 46.3607 27.6474C46.3901 27.6768 46.43 27.6934 46.4717 27.6934C46.5133 27.6934 46.5533 27.6768 46.5827 27.6474C46.6121 27.618 46.6287 27.578 46.6287 27.5364C46.6287 27.3166 47.1828 27.577 47.2529 27.614C47.2768 27.6273 47.3038 27.6343 47.3312 27.6342C47.3586 27.6341 47.3854 27.6269 47.4092 27.6134C47.433 27.5998 47.4529 27.5803 47.4669 27.5568C47.481 27.5333 47.4887 27.5065 47.4893 27.4791C47.5128 27.3907 47.5652 27.3127 47.6382 27.2574C47.7111 27.2022 47.8005 27.173 47.892 27.1744C48.1319 27.1908 48.3588 27.2893 48.5347 27.4533C48.6344 27.529 48.7711 27.4237 48.7711 27.3166C48.7674 27.2655 48.7748 27.2142 48.7925 27.1661C48.8103 27.118 48.8382 27.0743 48.8742 27.0379C48.9102 27.0014 48.9536 26.9731 49.0015 26.9548C49.0494 26.9364 49.1006 26.9285 49.1517 26.9316C49.2029 26.9346 49.2528 26.9485 49.2982 26.9724C49.3435 26.9963 49.3832 27.0296 49.4147 27.0701C49.4461 27.1105 49.4686 27.1573 49.4805 27.2071C49.4925 27.2569 49.4937 27.3088 49.484 27.3591C49.4507 27.5567 49.7536 27.6417 49.7869 27.4422H49.7906Z" fill="black"/>
<path d="M16 22C16 22 20.3269 31 25 22" stroke="black" stroke-width="0.5" stroke-miterlimit="10"/>
<path d="M28 22C28 22 31.8461 31 36 22" stroke="black" stroke-width="0.5" stroke-miterlimit="10"/>
<path d="M25.0819 30C25.0819 30 24.5038 37.137 26.4201 36.998C28.3364 36.859 27.9724 30 27.9724 30" stroke="black" stroke-width="0.5" stroke-miterlimit="10"/>
<path d="M14 29C15.6569 29 17 28.5523 17 28C17 27.4477 15.6569 27 14 27C12.3431 27 11 27.4477 11 28C11 28.5523 12.3431 29 14 29Z" fill="#FFA4BA"/>
<path d="M38 29C39.6569 29 41 28.5523 41 28C41 27.4477 39.6569 27 38 27C36.3431 27 35 27.4477 35 28C35 28.5523 36.3431 29 38 29Z" fill="#FFA4BA"/>
</svg>
