<svg width="59" height="51" viewBox="0 0 59 51" fill="none" xmlns="http://www.w3.org/2000/svg">
<path d="M6.35331 34.4585C5.30796 31.8433 5.45017 27.9279 5.61455 23.7595C5.74014 20.4221 5.55914 16.5658 7.50023 13.1712C9.0978 10.3787 12.2191 8.40435 15.6266 6.09019C19.3573 3.54886 22.7648 1.04262 26.49 0.290929C30.7619 -0.569725 34.8971 0.660309 38.6999 1.62993C42.8554 2.69559 47.0571 3.78526 50.0361 6.35798C52.0954 8.13655 52.9007 10.7388 54.1289 12.6744C55.6064 14.9978 57.5068 16.9222 58.1052 19.0665C58.9677 22.16 58.0665 24.9599 57.987 26.576C57.9242 27.806 58.7258 29.531 58.3564 31.1821C58.0332 32.6449 56.6 33.8749 56.1235 35.2453C55.5288 36.9537 55.7541 38.9391 55.0652 39.7979C54.3394 40.7011 52.7696 41.0612 52.0086 42.0604C51.2477 43.0595 51.292 44.7033 50.4923 45.5695C49.5966 46.5409 48.023 46.552 47.0479 47.0913C46.0727 47.6306 42.6892 50.063 37.9002 50.8442C34.9008 51.3392 31.4527 50.5321 28.01 50.1276C24.8094 49.7582 21.2541 49.7915 18.3489 48C16.4097 46.8051 15.4068 44.7698 14.053 43.6302C12.2061 42.0733 10.0877 41.3198 9.09964 40.0122C6.68759 36.8318 7.14008 37.3766 6.35331 34.4585Z" fill="#FAF331"/>
<path d="M42.6098 12.6596C42.6013 12.8545 42.6568 13.0468 42.7679 13.2072C42.8789 13.3676 43.0394 13.4873 43.2248 13.5479C43.6846 13.6846 44.1926 13.3854 44.5287 13.0954L44.2664 12.9422C44.2278 13.1595 44.2728 13.3835 44.3923 13.5691C44.5119 13.7547 44.6971 13.8883 44.911 13.9432C45.1333 13.99 45.3651 13.9503 45.5592 13.8324C45.6465 13.7759 45.7239 13.7053 45.7883 13.6237C45.8954 13.4962 45.912 13.5369 46.0524 13.5867C46.4624 13.7326 46.9186 13.4722 47.1162 13.1102C47.3877 12.6116 47.1901 12.0169 46.9315 11.557C46.8336 11.3815 46.5621 11.5404 46.66 11.7158C46.8447 12.0649 47.0423 12.5284 46.8576 12.92C46.7802 13.0847 46.6428 13.2135 46.4735 13.2801C46.2888 13.3503 46.1743 13.2801 46.0025 13.221C45.6627 13.1084 45.5556 13.5239 45.2804 13.6181C45.1924 13.6451 45.0991 13.6497 45.0089 13.6316C44.9187 13.6135 44.8344 13.5732 44.7637 13.5144C44.6929 13.4556 44.6379 13.38 44.6037 13.2947C44.5694 13.2093 44.557 13.1167 44.5675 13.0253C44.5753 12.992 44.5722 12.957 44.5586 12.9256C44.5449 12.8943 44.5216 12.8681 44.4919 12.8511C44.4622 12.8341 44.4278 12.8271 44.3938 12.8312C44.3599 12.8353 44.3282 12.8502 44.3034 12.8738C44.0725 13.0751 43.692 13.3189 43.3688 13.2598C43.2343 13.2308 43.1149 13.1539 43.0328 13.0435C42.9506 12.9332 42.9112 12.7968 42.9219 12.6596C42.9219 12.6179 42.9053 12.578 42.8759 12.5486C42.8465 12.5191 42.8065 12.5026 42.7649 12.5026C42.7233 12.5026 42.6833 12.5191 42.6539 12.5486C42.6245 12.578 42.6079 12.6179 42.6079 12.6596H42.6098Z" fill="black"/>
<path d="M34.1085 5.03928C34.0183 5.21452 33.9838 5.41311 34.0095 5.60849C34.0353 5.80387 34.12 5.98675 34.2525 6.13265C34.3907 6.27618 34.5724 6.37009 34.7695 6.39981C34.9665 6.42953 35.1678 6.3934 35.3422 6.29702C35.5442 6.19292 35.7007 6.018 35.7818 5.80574C35.7909 5.76685 35.7846 5.72594 35.7643 5.69154C35.744 5.65714 35.7112 5.63189 35.6728 5.62105C35.634 5.61329 35.5937 5.62011 35.5596 5.64022C35.5255 5.66033 35.5001 5.6923 35.4881 5.73002C35.421 5.87818 35.2993 5.99467 35.1483 6.05508C35.0714 6.08885 34.9884 6.1063 34.9045 6.1063C34.8206 6.1063 34.7375 6.08885 34.6607 6.05508C34.5874 6.01697 34.5224 5.96471 34.4695 5.9013C34.4165 5.83789 34.3767 5.76461 34.3523 5.6857C34.3256 5.60802 34.315 5.52575 34.321 5.44385C34.327 5.36196 34.3496 5.28213 34.3873 5.2092C34.4852 5.02451 34.2137 4.87306 34.1177 5.05036L34.1085 5.03928Z" fill="black"/>
<path d="M51.159 19.3343C51.1714 19.2983 51.1909 19.2652 51.2163 19.2369C51.2418 19.2086 51.2727 19.1858 51.3072 19.1698C51.3417 19.1537 51.379 19.1448 51.4171 19.1436C51.4551 19.1423 51.493 19.1488 51.5284 19.1625C51.7086 19.2401 51.8662 19.3621 51.9865 19.5171C52.0034 19.5339 52.024 19.5467 52.0466 19.5543C52.0692 19.562 52.0933 19.5644 52.1169 19.5614C52.1406 19.5584 52.1633 19.55 52.1832 19.5369C52.2032 19.5238 52.2199 19.5063 52.2321 19.4857C52.3142 19.3213 52.4454 19.1866 52.6076 19.1002C52.7698 19.0138 52.9548 18.9801 53.1371 19.0037C53.3263 19.0331 53.501 19.1225 53.6357 19.2585C53.7576 19.3841 53.8204 19.5559 53.9349 19.6796C54.0647 19.7793 54.2101 19.8567 54.3653 19.9087C54.4944 19.9785 54.5999 20.0852 54.6682 20.2152C54.7412 20.3467 54.7758 20.4961 54.768 20.6464C54.7601 20.7966 54.7102 20.9416 54.6238 21.0648C54.5075 21.231 54.779 21.388 54.8953 21.2236C54.9991 21.0685 55.0619 20.8896 55.0781 20.7036C55.0942 20.5176 55.0631 20.3306 54.9877 20.1598C54.9133 19.9813 54.792 19.8263 54.6367 19.711C54.4521 19.5762 54.2101 19.5633 54.0827 19.3583C53.9829 19.1649 53.8346 19.0008 53.6524 18.8819C53.4701 18.7631 53.2601 18.6937 53.0429 18.6805C52.8201 18.6776 52.6009 18.7364 52.4095 18.8505C52.2181 18.9646 52.0621 19.1295 51.9587 19.3269L52.2062 19.2955C51.9994 19.0757 51.7482 18.8338 51.425 18.8319C51.2956 18.8255 51.1678 18.8634 51.0627 18.9392C50.9577 19.0151 50.8816 19.1244 50.8469 19.2493C50.8044 19.4469 51.1073 19.5319 51.1498 19.3343H51.159Z" fill="black"/>
<path d="M28.6933 12.643C28.9205 12.8831 29.2271 13.0253 29.5281 12.8277C29.8292 12.6301 29.9659 12.2736 30.1007 11.9707H29.8292C30.0231 12.4121 30.1986 13.0955 30.6843 13.306C30.767 13.3457 30.8577 13.3655 30.9494 13.3639C31.0411 13.3624 31.1311 13.3394 31.2124 13.2969C31.2936 13.2544 31.3638 13.1935 31.4174 13.1191C31.4709 13.0447 31.5064 12.9588 31.5209 12.8683L31.2125 12.9089C31.3972 13.3984 31.6262 13.7437 32.147 13.9155C32.5866 14.0614 33.1407 13.7308 33.3198 13.3171C33.3974 13.1324 33.1351 12.9717 33.0483 13.1583C32.9681 13.3129 32.845 13.4411 32.6937 13.5276C32.6209 13.587 32.5326 13.6241 32.4392 13.6345C32.3459 13.645 32.2515 13.6284 32.1673 13.5867C31.798 13.4464 31.6521 13.173 31.5154 12.8221C31.5054 12.7853 31.4823 12.7535 31.4505 12.7325C31.4187 12.7114 31.3803 12.7027 31.3425 12.7079C31.3048 12.7131 31.2702 12.7319 31.2452 12.7607C31.2203 12.7896 31.2067 12.8265 31.207 12.8646C31.194 12.9976 31.0223 13.0493 30.9096 13.0401C30.8306 13.0236 30.7563 12.9894 30.6924 12.9401C30.6284 12.8909 30.5764 12.8278 30.5402 12.7556C30.3694 12.4519 30.2231 12.1351 30.1025 11.8082C30.0887 11.7844 30.0689 11.7647 30.0451 11.751C30.0213 11.7373 29.9943 11.73 29.9668 11.73C29.9393 11.73 29.9123 11.7373 29.8885 11.751C29.8646 11.7647 29.8448 11.7844 29.831 11.8082C29.7447 12.0321 29.6285 12.2433 29.4857 12.4361C29.301 12.6707 29.1163 12.6374 28.9168 12.4232C28.7783 12.2773 28.5474 12.4989 28.6952 12.6467L28.6933 12.643Z" fill="black"/>
<path d="M55.2906 27.4422C55.3102 27.3495 55.3101 27.2536 55.2901 27.161C55.2701 27.0683 55.2308 26.9809 55.1746 26.9046C55.1185 26.8282 55.0469 26.7646 54.9644 26.7178C54.8819 26.6711 54.7905 26.6423 54.6961 26.6334C54.6018 26.6245 54.5066 26.6356 54.4168 26.6661C54.3271 26.6966 54.2448 26.7457 54.1753 26.8102C54.1059 26.8747 54.0509 26.9532 54.0139 27.0405C53.9769 27.1277 53.9588 27.2218 53.9608 27.3166L54.1972 27.1818C53.9239 26.9712 53.5822 26.8013 53.2294 26.8826C53.0862 26.9113 52.9556 26.9844 52.8561 27.0914C52.7567 27.1985 52.6934 27.3341 52.6754 27.4791L52.9118 27.3443C52.7012 27.2427 52.3946 27.0913 52.1527 27.1393C52.0596 27.1573 51.9755 27.2064 51.9141 27.2786C51.8526 27.3507 51.8176 27.4417 51.8147 27.5364C51.8147 27.578 51.8312 27.618 51.8607 27.6474C51.8901 27.6768 51.93 27.6934 51.9717 27.6934C52.0133 27.6934 52.0533 27.6768 52.0827 27.6474C52.1121 27.618 52.1287 27.578 52.1287 27.5364C52.1287 27.3166 52.6828 27.577 52.7529 27.614C52.7768 27.6273 52.8038 27.6343 52.8312 27.6342C52.8586 27.6341 52.8854 27.6269 52.9092 27.6134C52.933 27.5998 52.9529 27.5803 52.9669 27.5568C52.981 27.5333 52.9887 27.5065 52.9893 27.4791C53.0128 27.3907 53.0652 27.3127 53.1382 27.2574C53.2111 27.2022 53.3005 27.173 53.392 27.1744C53.6319 27.1908 53.8588 27.2893 54.0347 27.4533C54.1344 27.529 54.2711 27.4237 54.2711 27.3166C54.2674 27.2655 54.2748 27.2142 54.2925 27.1661C54.3103 27.118 54.3382 27.0743 54.3742 27.0379C54.4102 27.0014 54.4536 26.9731 54.5015 26.9548C54.5494 26.9364 54.6006 26.9285 54.6517 26.9316C54.7029 26.9346 54.7528 26.9485 54.7982 26.9724C54.8435 26.9963 54.8832 27.0296 54.9147 27.0701C54.9461 27.1105 54.9686 27.1573 54.9805 27.2071C54.9925 27.2569 54.9937 27.3088 54.984 27.3591C54.9507 27.5567 55.2536 27.6417 55.2869 27.4422H55.2906Z" fill="black"/>
<path d="M44.3321 28.4627C45.344 28.4627 46.1642 28.1353 46.1642 27.7314C46.1642 27.3274 45.344 27 44.3321 27C43.3203 27 42.5 27.3274 42.5 27.7314C42.5 28.1353 43.3203 28.4627 44.3321 28.4627Z" fill="#FFA4BA"/>
<path d="M8.5 36.5C4.5 38.8333 9 54.5 23.5 38" stroke="black" stroke-width="0.5"/>
<path d="M22.9916 34.1213L23.626 38.1022L25.4902 34.0372L22.9916 34.1213Z" fill="black" stroke="black" stroke-width="0.5" stroke-linejoin="round"/>
<ellipse cx="28.5" cy="26.5" rx="1" ry="2.5" fill="black"/>
<ellipse cx="36.5" cy="26.5" rx="1" ry="2.5" fill="black"/>
<path d="M36.5 32L30.5 33.7322C30.75 34.3096 31.7 35.8975 33.5 37.6297C35.3 39.3619 36.25 34.5983 36.5 32Z" fill="black" stroke="black" stroke-linejoin="round"/>
<path d="M23 32.5V34H24L23 32.5Z" fill="black" stroke="black" stroke-width="0.5" stroke-linejoin="round"/>
<path d="M18.8112 26L19.9825 28.1399L22.1224 29.3112L19.9825 30.4825L18.8112 32.6224L17.6399 30.4825L15.5 29.3112L17.6399 28.1399L18.8112 26Z" fill="black"/>
<path d="M11.5 16L10 3M2.5 9L8.5 17M1 19L8 19.5" stroke="black" stroke-width="0.5" stroke-linecap="round" stroke-linejoin="round"/>
<path d="M12.8112 19L13.9825 21.1399L16.1224 22.3112L13.9825 23.4825L12.8112 25.6224L11.6399 23.4825L9.5 22.3112L11.6399 21.1399L12.8112 19Z" fill="black"/>
</svg>
