<svg width="84" height="90" viewBox="0 0 84 90" fill="none" xmlns="http://www.w3.org/2000/svg">
<circle cx="42" cy="41" r="27" fill="white"/>
<g clip-path="url(#clip0_9_3)">
<path d="M67.1936 30.2216C68.4414 32.8152 68.5645 36.8234 68.6876 41.0713C68.786 44.4816 69.2348 48.3993 67.4833 51.9907C66.0405 54.9465 62.9806 57.1704 59.6632 59.7602C56.0221 62.6028 52.7066 65.3906 48.948 66.4092C44.6365 67.5787 40.3232 66.6148 36.3658 65.8792C32.043 65.0756 27.669 64.2513 24.4369 61.8332C22.2101 60.162 21.218 57.5646 19.8168 55.6746C18.1505 53.4111 16.0715 51.5814 15.3122 49.433C14.2196 46.3395 14.9486 43.4253 14.9202 41.773C14.8994 40.5148 13.9735 38.8134 14.2272 37.1045C14.4582 35.5955 15.8386 34.2412 16.2343 32.8133C16.7247 31.0327 16.3574 29.0276 17.005 28.0977C17.6847 27.1263 19.2658 26.6528 19.9758 25.5814C20.6859 24.51 20.5287 22.8407 21.288 21.9014C22.1382 20.8507 23.7495 20.7338 24.6963 20.117C25.643 19.5002 28.9377 16.7972 33.785 15.6673C36.8146 14.96 40.4027 15.5466 43.953 15.7258C47.2514 15.8899 50.885 15.6051 53.9885 17.2348C56.0524 18.3194 57.2187 20.3263 58.6824 21.394C60.6819 22.8558 62.8954 23.4783 63.9974 24.7439C66.6843 27.8242 66.1882 27.3017 67.1936 30.2216Z" stroke="black" stroke-miterlimit="10"/>
<path d="M25.5105 34.7825L26.7545 37.0498L29.0305 38.2891L26.7545 39.5283L25.5105 41.7937L24.2665 39.5283L21.9924 38.2891L24.2665 37.0498L25.5105 34.7825Z" fill="black"/>
<path d="M33.1355 52.8471L34.3795 55.1125L36.6536 56.3518L34.3795 57.591L33.1355 59.8564L31.8915 57.591L29.6155 56.3518L31.8915 55.1125L33.1355 52.8471Z" fill="black"/>
<path d="M42.336 37.9005L43.58 40.1677L45.8559 41.407L43.58 42.6463L42.336 44.9117L41.0919 42.6463L38.8179 41.407L41.0919 40.1677L42.336 37.9005Z" fill="black"/>
<path d="M49.5331 21.8787L50.7771 24.146L53.0512 25.3853L50.7771 26.6245L49.5331 28.8899L48.2891 26.6245L46.0131 25.3853L48.2891 24.146L49.5331 21.8787Z" fill="black"/>
<path d="M59.1615 38.9587L60.4055 41.2241L62.6815 42.4633L60.4055 43.7026L59.1615 45.968L57.9174 43.7026L55.6434 42.4633L57.9174 41.2241L59.1615 38.9587Z" fill="black"/>
<path d="M38.8179 58.9963C38.8179 58.9963 49.5729 61.7445 45.8559 45.968C45.8559 45.968 54.0793 56.7667 60.2351 49.0539" stroke="black" stroke-linecap="round" stroke-linejoin="round"/>
<path d="M50.548 30.8554C50.548 30.8554 55.9729 38.8116 61.0493 29.8632" stroke="black" stroke-linecap="round" stroke-linejoin="round"/>
<path d="M26.3455 48.0787C26.3455 48.0787 18.5159 47.3147 21.9905 41.0185" stroke="black" stroke-linecap="round" stroke-linejoin="round"/>
<path d="M26.3455 27.1376C26.3455 27.1376 27.2563 23.3764 30.3465 24.4025C30.3465 24.4025 32.4066 19.2663 35.6671 21.2355" stroke="black" stroke-linecap="round" stroke-linejoin="round"/>
</g>
<path d="M6.92553 17.5645L14.8245 20.8142M20 14.8237L14.5604 7.46699M26.7613 11.9571L26.5 3.32367" stroke="black" stroke-width="1.5" stroke-linecap="round"/>
<path d="M4.74738 68.355C4.31548 67.8683 4.00584 67.3588 3.81846 66.8262C3.63815 66.3017 3.57258 65.7538 3.62175 65.1825L4.75799 64.9442L4.90818 64.8964L4.93465 65.0227C4.89297 65.0882 4.84685 65.1648 4.79629 65.2525C4.75371 65.333 4.72349 65.4597 4.70564 65.6324C4.71422 65.9956 4.78702 66.3588 4.92404 66.7221C5.06814 67.0934 5.29596 67.4545 5.60749 67.8056C5.80575 68.0289 6.01821 68.2041 6.24488 68.3309C6.48661 68.4587 6.7235 68.5408 6.95556 68.5773C7.20267 68.6147 7.43388 68.602 7.64918 68.5393C7.87954 68.4774 8.08248 68.3686 8.25799 68.2129C8.39362 68.0925 8.50311 67.9668 8.58648 67.8358C8.67693 67.7127 8.73063 67.5724 8.74758 67.4147C8.77959 67.2579 8.78283 67.0768 8.7573 66.8713C8.73975 66.6586 8.69433 66.4066 8.62103 66.1151C8.54773 65.8236 8.44701 65.4851 8.31886 65.0997C8.05809 64.4041 7.90885 63.8021 7.87115 63.2936C7.84851 62.786 7.91218 62.3516 8.06217 61.9903C8.21923 61.637 8.43737 61.3364 8.7166 61.0886C9.08358 60.7629 9.48412 60.5714 9.91821 60.5142C10.3603 60.4499 10.8058 60.518 11.2548 60.7185C11.7188 60.92 12.1596 61.256 12.5774 61.7267C12.8181 61.998 13.0083 62.2926 13.1481 62.6108C13.3028 62.9298 13.408 63.2572 13.4635 63.5929C13.5262 63.9367 13.5321 64.2808 13.4813 64.6254L12.4449 64.7109L12.2854 64.7241L12.2696 64.6098C12.3263 64.5452 12.376 64.4726 12.4185 64.392C12.4611 64.3114 12.4913 64.1848 12.5092 64.0121C12.5227 63.6578 12.4659 63.3446 12.3385 63.0725C12.2191 62.7934 12.0285 62.5063 11.7665 62.2111C11.5895 62.0116 11.4023 61.8569 11.2048 61.7469C11.0144 61.6449 10.8178 61.5841 10.615 61.5644C10.4121 61.5448 10.2146 61.5632 10.0223 61.6198C9.84512 61.6772 9.68471 61.7697 9.54111 61.8971C9.40549 62.0175 9.29599 62.1432 9.21263 62.2742C9.12926 62.4052 9.07112 62.5567 9.03821 62.7285C9.0053 62.9003 8.99718 63.1001 9.01383 63.3277C9.03757 63.5634 9.08962 63.8309 9.17 64.1304C9.25746 64.4378 9.37588 64.7963 9.52527 65.2056C9.69939 65.7071 9.81686 66.1448 9.87769 66.5187C9.95358 66.8934 9.96795 67.223 9.92078 67.5073C9.88867 67.7925 9.80166 68.048 9.65975 68.2738C9.52493 68.5075 9.34184 68.727 9.11048 68.9324C8.76743 69.2368 8.35049 69.45 7.85965 69.5719C7.38387 69.6946 6.87543 69.6681 6.33433 69.4923C5.79323 69.3165 5.26425 68.9374 4.74738 68.355Z" fill="black"/>
<path d="M10.6567 74.26C10.4383 74.0722 10.2599 73.8625 10.1214 73.6309C9.9829 73.3994 9.88839 73.1493 9.83788 72.8808C9.80241 72.6112 9.81497 72.3266 9.87557 72.027C9.93617 71.7275 10.0558 71.4083 10.2345 71.0696C10.4212 70.7378 10.6676 70.394 10.9735 70.0381L13.6454 66.9546L14.4947 67.6847L11.835 70.7786C11.536 71.1264 11.3145 71.4495 11.1706 71.7478C11.0267 72.0461 10.9488 72.3167 10.9369 72.5596C10.933 72.8095 10.9802 73.0329 11.0782 73.2297C11.1763 73.4265 11.3102 73.598 11.4801 73.744C11.6742 73.9109 11.8915 74.0344 12.1321 74.1146C12.3796 74.1867 12.6381 74.205 12.9077 74.1695C13.1855 74.141 13.4691 74.0402 13.7585 73.8671C14.048 73.6939 14.3353 73.4416 14.6204 73.1099L17.2489 70.0524L18.0982 70.7826L14.0721 75.4659C13.9469 75.6115 13.8258 75.7605 13.7087 75.9131C13.6067 76.0645 13.5214 76.2373 13.4528 76.4316L12.6157 75.7119C12.6587 75.5801 12.7103 75.4627 12.7706 75.3598C12.8379 75.2489 12.9092 75.1414 12.9846 75.0374C13.068 74.9403 13.148 74.8473 13.2245 74.7583C13.0034 74.8355 12.78 74.8826 12.5544 74.8996C12.3287 74.9167 12.1008 74.9036 11.8707 74.8605C11.6555 74.8162 11.4457 74.7412 11.241 74.6357C11.0375 74.5451 10.8428 74.4199 10.6567 74.26Z" fill="black"/>
<path d="M20.1035 72.212L21.1175 72.8536L19.9391 74.6262L19.9458 74.3464C20.1767 74.1012 20.4282 73.9132 20.7003 73.7824C20.9723 73.6517 21.2487 73.5741 21.5292 73.5496C21.8155 73.5161 22.0941 73.5347 22.365 73.6051C22.6417 73.6666 22.9017 73.7743 23.1451 73.9283C23.4696 74.1336 23.73 74.3804 23.9263 74.6687C24.1372 74.9537 24.2796 75.2773 24.3534 75.6395L23.4416 76.1229L23.3105 76.2104L23.2501 76.0964C23.2777 76.0129 23.2934 75.9282 23.2973 75.8423C23.3012 75.7564 23.273 75.6313 23.2129 75.467C23.1257 75.2856 23.0276 75.1414 22.9185 75.0346C22.8241 74.9244 22.7003 74.8208 22.5471 74.7238C22.3217 74.5812 22.0679 74.4837 21.7855 74.4313C21.5088 74.3698 21.2188 74.3693 20.9154 74.4298C20.6211 74.496 20.3314 74.6346 20.0465 74.8456C19.7615 75.0566 19.4964 75.3559 19.2511 75.7435L17.1722 79.029L16.1852 78.4045L20.1035 72.212Z" fill="black"/>
<path d="M21.798 84.818L25.6309 75.599L26.7094 76.0475L26.1566 77.3771C26.4083 77.0774 26.6776 76.8602 26.9647 76.7254C27.2616 76.5947 27.5635 76.5354 27.8704 76.5475C28.1912 76.5538 28.5092 76.6225 28.8244 76.7535C29.1987 76.9091 29.5225 77.1304 29.796 77.4174C30.0834 77.6986 30.2958 78.0353 30.4331 78.4274C30.5803 78.8236 30.6376 79.2691 30.6052 79.7639C30.5826 80.2628 30.4484 80.8077 30.2027 81.3986C29.957 81.9896 29.6563 82.4768 29.3005 82.8602C28.9545 83.2478 28.5802 83.5369 28.1774 83.7276C27.7887 83.9125 27.3891 84.0121 26.9789 84.0263C26.5826 84.0348 26.2072 83.9654 25.8526 83.818C25.5866 83.7074 25.3441 83.5546 25.1248 83.3594C24.9114 83.1783 24.734 82.9659 24.5927 82.7223C24.4554 82.4689 24.3531 82.2011 24.2856 81.9188L22.8912 85.2725L21.798 84.818ZM26.0684 82.7987C26.3048 82.897 26.5526 82.9538 26.8119 82.9692C27.0753 82.9748 27.3415 82.9179 27.6106 82.7988C27.8796 82.6796 28.1379 82.4751 28.3855 82.1853C28.6372 81.8856 28.8674 81.4846 29.0763 80.9823C29.3015 80.4406 29.423 79.9539 29.4407 79.5223C29.4625 79.0808 29.3834 78.7014 29.2035 78.384C29.0334 78.0707 28.7653 77.8264 28.3993 77.6511C28.1317 77.5167 27.8543 77.4476 27.5671 77.4437C27.2898 77.4439 27.0104 77.5184 26.7291 77.6671C26.4478 77.8159 26.1752 78.0548 25.9112 78.3841C25.6612 78.7075 25.4277 79.1303 25.2106 79.6523C25.0894 79.9716 25.0052 80.2715 24.9578 80.5522C24.9104 80.8328 24.8999 81.0942 24.9264 81.3362C24.9569 81.5684 25.0194 81.7792 25.1139 81.9687C25.2125 82.1483 25.3411 82.3115 25.4995 82.4582C25.6621 82.5951 25.8517 82.7086 26.0684 82.7987Z" fill="black"/>
<path d="M33.3318 78.4948L34.5084 78.7303L34.0436 80.8075L33.9495 80.5439C34.0772 80.2322 34.2446 79.9666 34.4517 79.747C34.6589 79.5274 34.889 79.3559 35.1422 79.2325C35.3974 79.0987 35.6641 79.0161 35.9424 78.9848C36.2227 78.943 36.5041 78.9504 36.7864 79.007C37.163 79.0823 37.4945 79.2194 37.7811 79.4182C38.0802 79.6086 38.3291 79.8597 38.5277 80.1715L37.8498 80.9495L37.7588 81.0781L37.6615 80.9934C37.6573 80.9055 37.6417 80.8208 37.6145 80.7392C37.5873 80.6576 37.5162 80.5509 37.4012 80.4191C37.2548 80.281 37.1115 80.1816 36.9713 80.1209C36.8438 80.0519 36.6911 79.9995 36.5133 79.9639C36.2518 79.9116 35.9798 79.9115 35.6974 79.9638C35.4171 80.0055 35.1462 80.109 34.8846 80.2742C34.6336 80.4415 34.4128 80.6747 34.2224 80.9739C34.032 81.273 33.8917 81.6474 33.8017 82.0971L33.0384 85.9095L31.8931 85.6801L33.3318 78.4948Z" fill="black"/>
<path d="M40.0001 86.9178L39.9881 85.9899L41.8599 85.9656L41.7893 80.5101L40.0135 80.5331L40.0014 79.6052L42.9292 79.5673L43.0119 85.9507L44.7237 85.9286L44.7357 86.8565L40.0001 86.9178ZM42.2694 78.0397C42.0454 78.0426 41.8524 77.9651 41.6903 77.8072C41.5282 77.6492 41.4458 77.4583 41.4429 77.2343C41.4398 76.9997 41.5119 76.8014 41.6592 76.6395C41.8171 76.4774 42.0134 76.3949 42.248 76.3918C42.472 76.3889 42.6651 76.4718 42.8273 76.6403C43 76.7981 43.0878 76.989 43.0907 77.213C43.0936 77.437 43.0108 77.6301 42.8422 77.7922C42.6843 77.9543 42.4933 78.0368 42.2694 78.0397Z" fill="black"/>
<path d="M51.4531 85.9625C51.0583 86.0542 50.6694 86.1007 50.2864 86.102C49.9138 86.1009 49.5472 86.0546 49.1865 85.9631C48.8362 85.8693 48.497 85.729 48.169 85.5424L48.5463 84.3378L48.6073 84.1758L48.7153 84.2165C48.7553 84.2948 48.7966 84.3783 48.8391 84.4669C48.8896 84.5428 48.9864 84.6298 49.1297 84.728C49.3985 84.8955 49.7005 85.017 50.0356 85.0925C50.3787 85.1552 50.7892 85.1311 51.2671 85.0201C51.6516 84.9309 51.9628 84.8093 52.2009 84.6555C52.4493 84.4993 52.627 84.3211 52.7338 84.1211C52.8383 83.9107 52.864 83.6912 52.8109 83.4626C52.7747 83.3068 52.7122 83.1789 52.6233 83.0791C52.532 82.9689 52.4016 82.8788 52.232 82.8086C52.0728 82.7361 51.8668 82.6744 51.6141 82.6236C51.3614 82.5727 51.0567 82.534 50.7001 82.5073C50.1236 82.4769 49.6087 82.4048 49.1552 82.2911C48.7017 82.1774 48.3345 82.0108 48.0536 81.7913C47.7703 81.5614 47.5876 81.2698 47.5056 80.9166C47.4211 80.5529 47.4475 80.2183 47.5846 79.9127C47.7193 79.5967 47.962 79.3213 48.3126 79.0866C48.6713 78.8391 49.1363 78.649 49.7078 78.5163C50.0403 78.4391 50.3476 78.3951 50.6298 78.3843C50.9096 78.3632 51.1747 78.3728 51.425 78.4132C51.6753 78.4537 51.9108 78.5249 52.1316 78.627C52.3604 78.7162 52.5848 78.8338 52.8049 78.9798L52.3468 79.9075L52.2667 80.0575L52.1706 79.9977C52.1409 79.9169 52.0969 79.8451 52.0384 79.782C51.988 79.7061 51.8923 79.6243 51.7515 79.5365C51.4691 79.405 51.1664 79.3274 50.8433 79.3039C50.5179 79.2699 50.2149 79.2855 49.9344 79.3507C49.5187 79.4472 49.1772 79.6031 48.9096 79.8186C48.6421 80.034 48.5433 80.2923 48.6133 80.5937C48.6494 80.7495 48.7376 80.8933 48.8777 81.025C49.0257 81.144 49.2633 81.2476 49.5904 81.3359C49.9151 81.4138 50.3657 81.468 50.9422 81.4984C51.5779 81.5479 52.0953 81.6303 52.4944 81.7457C52.9015 81.8483 53.2119 82.0062 53.4256 82.2194C53.6498 82.4302 53.8017 82.707 53.8813 83.0499C53.9729 83.4447 53.9495 83.8389 53.8109 84.2324C53.6827 84.6235 53.4245 84.9737 53.0364 85.2828C52.6458 85.5815 52.1181 85.8081 51.4531 85.9625Z" fill="black"/>
<path d="M59.8823 83.1184C59.394 83.333 58.9175 83.4551 58.4528 83.4846C57.9837 83.5044 57.5383 83.4321 57.1166 83.268C56.7047 83.0995 56.3262 82.8348 55.9811 82.4738C55.6317 82.103 55.3346 81.6394 55.09 81.0828C54.841 80.5164 54.6981 79.9792 54.6612 79.4711C54.634 78.9587 54.6928 78.4959 54.8374 78.0828C54.9875 77.6556 55.2138 77.2823 55.5162 76.963C55.8283 76.6393 56.1944 76.3852 56.6143 76.2007C56.9951 76.0333 57.3794 75.9401 57.7672 75.9211C58.155 75.9021 58.5289 75.9708 58.889 76.1271C59.2447 76.2737 59.5789 76.5171 59.8916 76.8574C60.214 77.1934 60.4955 77.6348 60.7358 78.1816C60.7702 78.2597 60.8018 78.3449 60.8306 78.4371C60.865 78.5152 60.8944 78.5954 60.919 78.6778L56.1586 80.7703C56.367 81.1914 56.6055 81.5352 56.8741 81.8016C57.1384 82.0583 57.4181 82.2441 57.7133 82.359C58.0042 82.4642 58.303 82.5076 58.6095 82.4894C58.9259 82.4669 59.2354 82.3891 59.5381 82.256C59.7725 82.153 59.9815 82.032 60.1651 81.893C60.3444 81.7443 60.4983 81.5776 60.6269 81.3929C60.7609 81.1942 60.8646 80.9796 60.9382 80.7493L61.7751 81.063C61.6883 81.3691 61.5572 81.654 61.3818 81.9175C61.2161 82.1768 61.0067 82.4028 60.7535 82.5956C60.5047 82.7982 60.2143 82.9725 59.8823 83.1184ZM55.842 79.9308L59.5185 78.3147C59.3811 78.0022 59.2148 77.7433 59.0197 77.5378C58.8299 77.3182 58.6183 77.1549 58.3848 77.0478C58.1568 76.9267 57.9161 76.8694 57.6626 76.8759C57.4146 76.8684 57.1588 76.9226 56.8951 77.0385C56.6608 77.1415 56.4534 77.2793 56.2729 77.4518C56.1021 77.6201 55.9675 77.8307 55.869 78.0838C55.7662 78.327 55.7071 78.6035 55.6918 78.9132C55.6862 79.2186 55.7363 79.5578 55.842 79.9308Z" fill="black"/>
<path d="M67.6453 78.797L63.3196 72.9018L64.171 72.2771L64.597 72.8576C64.5843 72.642 64.6003 72.4384 64.645 72.2468C64.6919 72.0404 64.7664 71.8534 64.8685 71.6859C64.9791 71.5122 65.1118 71.3685 65.2666 71.2549C65.4386 71.1287 65.6261 71.0506 65.8291 71.0208C66.0258 70.9823 66.2187 70.9929 66.408 71.0524C66.6058 71.1057 66.7851 71.2057 66.9457 71.3525C66.8969 71.1237 66.8896 70.8975 66.924 70.6738C66.9669 70.4439 67.0492 70.2314 67.1707 70.0364C67.2945 69.8265 67.451 69.6521 67.6402 69.5133C67.838 69.3681 68.0384 69.2806 68.2414 69.2507C68.4444 69.2209 68.6436 69.24 68.8392 69.3082C69.0285 69.3678 69.214 69.4764 69.3958 69.6341C69.5713 69.7831 69.7337 69.9683 69.8828 70.1896L73.2052 74.7174L72.3538 75.3422L69.287 71.1626C69.022 70.8014 68.8037 70.558 68.6322 70.4325C68.4693 70.3007 68.3291 70.2448 68.2115 70.2649C68.0877 70.2764 67.9742 70.32 67.871 70.3957C67.7076 70.5156 67.6095 70.7066 67.5769 70.9687C67.5466 71.2158 67.5662 71.4859 67.6356 71.7789C67.7137 72.0656 67.8348 72.3208 67.9988 72.5444L70.8574 76.4401L69.9931 77.0743L66.9831 72.9722C66.6234 72.482 66.3363 72.1899 66.1218 72.0959C65.916 71.9956 65.6883 72.037 65.4389 72.2199C65.3443 72.2894 65.2707 72.3963 65.2179 72.5409C65.1675 72.6705 65.1435 72.827 65.1458 73.0105C65.1418 73.1854 65.1772 73.3778 65.2518 73.5877C65.3264 73.7975 65.4457 74.0143 65.6098 74.2378L68.4967 78.1723L67.6453 78.797Z" fill="black"/>
<path d="M77.4316 71.1609C77.0396 71.5226 76.6287 71.793 76.1988 71.972C75.7617 72.1432 75.317 72.2197 74.8649 72.2016C74.4205 72.1762 73.9765 72.049 73.5327 71.8198C73.0818 71.5829 72.6501 71.241 72.2378 70.7942C71.8182 70.3395 71.5083 69.878 71.3082 69.4095C71.1159 68.9338 71.021 68.4771 71.0234 68.0393C71.0265 67.5866 71.1191 67.16 71.3012 66.7597C71.4911 66.3521 71.7546 65.9928 72.0917 65.6817C72.3974 65.3996 72.7305 65.1865 73.0911 65.0424C73.4516 64.8984 73.8276 64.8417 74.2189 64.8725C74.6029 64.8954 74.9981 65.017 75.4045 65.2371C75.8186 65.4499 76.2283 65.7758 76.6334 66.2148C76.6913 66.2775 76.7489 66.3477 76.8061 66.4255C76.864 66.4882 76.918 66.5546 76.968 66.6245L73.1467 70.1512C73.4807 70.4817 73.818 70.7292 74.1587 70.8938C74.4921 71.0506 74.817 71.1353 75.1335 71.148C75.4428 71.1529 75.7395 71.0968 76.0235 70.9799C76.3153 70.8557 76.5827 70.6815 76.8257 70.4572C77.0138 70.2836 77.1721 70.1012 77.3005 69.9101C77.4217 69.7112 77.5131 69.5035 77.5746 69.287C77.6367 69.0555 77.6651 68.8189 77.6597 68.5771L78.5532 68.6016C78.5707 68.9193 78.5393 69.2313 78.4591 69.5376C78.3867 69.8367 78.2622 70.1185 78.0855 70.3832C77.916 70.6557 77.6981 70.9149 77.4316 71.1609ZM72.5743 69.4602L75.5255 66.7365C75.294 66.4857 75.0526 66.2948 74.8012 66.164C74.5504 66.0181 74.2971 65.9324 74.0415 65.9071C73.7865 65.8667 73.5402 65.8908 73.3026 65.9794C73.0657 66.0529 72.8414 66.1873 72.6297 66.3827C72.4416 66.5563 72.2903 66.754 72.1757 66.9759C72.069 67.1905 72.0102 67.4335 71.9993 67.7048C71.9812 67.9683 72.0152 68.2489 72.1014 68.5468C72.1954 68.8374 72.3531 69.1419 72.5743 69.4602Z" fill="black"/>
<defs>
<clipPath id="clip0_9_3">
<rect width="55" height="52" fill="white" transform="translate(14 15.1448)"/>
</clipPath>
</defs>
</svg>
